<svg xmlns="http://www.w3.org/2000/svg" viewBox="0 0 564.73 553.55">
  <title>Asset 1</title>
  <g id="Layer_2" data-name="Layer 2">
    <g id="Draw_Layer" data-name="Draw Layer">
      <g>
        <path d="M515.29,484.37c.69,6.07,1.25,12.15,1.54,18.24a124.73,124.73,0,0,1-.52,16.4l1.6.2c.07-.56.15-1.12.22-1.68,0,.39-.1.78-.16,1.17.22-1.6.4-3.19.47-4.8,0-.89,0-1.78,0-2.67,0-1.24,0-2.46-.09-3.69-.08-2.3-.14-4.6-.31-6.89a124.22,124.22,0,0,0-2.08-16c-.3-1.41-.7-2.8-1.12-4.18.16,1.29.31,2.58.45,3.86Z" fill="#fead16"/>
        <path d="M471.06,0a86.07,86.07,0,0,0-14.95,1.2,114.87,114.87,0,0,0-13.8,3.29c-2.2.69-4.43,1.36-6.58,2.2-2.52,1-5,2-7.52,3.07a46,46,0,0,0-6.5,3.19c-2.07,1.31-4.1,2.66-6.12,4.05a50.64,50.64,0,0,0-6.66,5.28c-1.34,1.31-2.61,2.7-3.85,4.11-2.46,2.8-4.85,5.66-7.12,8.61a38.32,38.32,0,0,0-2.89,4.14c-.87,1.48-1.7,3-2.51,4.52-1.69,3.16-3.09,6.52-4.49,9.82.16-.36.31-.73.47-1.1l-1.31,3.11h0l-.06.15c-.05.11-.1.23-.14.34h0c-.06.14-.12.27-.17.41a109.54,109.54,0,0,0-4.52,13.22c-.3,1.11-.57,2.21-.82,3.33s-.39,2.41-.57,3.61c-.38,2.5-.78,5-1.07,7.52-.58,4.92-1,9.83-1.29,14.77-.29,4.73-.19,9.47-.11,14.21.15,9.52,1.13,19,2.09,28.48.27,2.66.63,5.31,1,8,.31,2.25.84,4.46,1.31,6.67,1,4.61,2.42,9.14,3.86,13.63.7,2.18,1.34,4.38,2.07,6.55.83,2.48,1.7,4.92,2.63,7.36s2.08,5,3.16,7.54c.85,2,1.69,3.9,2.59,5.82a233.23,233.23,0,0,0,14.17,25.44A86.53,86.53,0,0,0,420,234c3.14,3.55,6.23,7.16,9.56,10.55,3.51,3.56,7.19,6.92,10.88,10.29,3.29,3,6.63,6,10.07,8.83q2.78,2.28,5.54,4.6c.93.79,1.87,1.56,2.82,2.33s1.92,1.49,2.92,2.18a22.41,22.41,0,0,0,4.67,2.27,2.73,2.73,0,0,0,.56.15,4.67,4.67,0,0,0,3.4,3.81,4.57,4.57,0,0,0,3.63-.47,60.6,60.6,0,0,0,5.49-4.51c1.8-1.6,3.54-3.28,5.26-5,3.21-3.15,6.42-6.28,9.48-9.58,3.26-3.52,6.08-7.44,9.07-11.19s6.2-7.73,9.09-11.75c2.76-3.81,5.49-7.67,8.07-11.61,1.33-2,2.59-4.08,3.82-6.17s2.3-4.33,3.42-6.49Q531,206,534.21,199.7c2.15-4.12,4.4-8.18,6.48-12.33s4.12-8.39,6-12.65c2-4.51,4-9,6-13.5,1-2.3,1.86-4.7,2.66-7.08.76-2.23,1.51-4.46,2.21-6.71s1.42-4.49,2.11-6.74,1.42-4.46,2-6.73a107.36,107.36,0,0,0,2.61-14.8,74.92,74.92,0,0,0,.48-7.48,64.43,64.43,0,0,0-.34-7c-.55-4.87-1.32-9.74-2.31-14.55-.49-2.37-1.08-4.72-1.75-7.06s-1.4-4.39-2.05-6.6-1.18-4.36-1.86-6.52-1.41-4.34-2.27-6.46a66.57,66.57,0,0,0-3.25-7.27q-1.85-3.37-3.79-6.67c-2.45-4.1-5-8.13-7.85-12A109.17,109.17,0,0,0,530,26.7c-1.81-1.88-3.63-3.72-5.49-5.53a44.16,44.16,0,0,0-9.11-6.53c-4.3-2.45-8.67-4.71-13.16-6.79-2.5-1.16-5.12-2.11-7.7-3.09-2.11-.8-4.27-1.45-6.45-2s-4.16-1-6.24-1.43A55,55,0,0,0,471.27,0Zm-7,264.27c-6.69-5.61-13.55-11.68-20.42-18.07-3.69-3.43-7-6.78-10.22-10.24-1.15-1.24-2.27-2.55-3.41-3.89q-.63-.75-1.26-1.47l-.74-.85c-1.34-1.55-2.68-3.1-4-4.66l-.16-.2-.09-.1-.14-.2c-.93-1.24-1.76-2.36-2.53-3.55-1.25-1.92-2.44-3.79-3.63-5.74-1.77-2.88-3.48-5.87-5.13-8.76l-.12-.22-.6-1a204,204,0,0,1-9.88-20.58c-1.54-3.81-2.72-7-3.71-10s-1.89-5.89-2.95-9.36c-1.26-4.17-2.23-7.65-3-10.94-.66-2.68-1.22-5.66-1.73-9.1-.56-4.76-1-9.45-1.4-13.81l-.23-2.46,0-.16c-.34-3.62-.7-7.36-.81-11.06-.12-4.38-.24-9.56-.19-14.72,0-4.85.48-9.67.89-14.33.13-1.36.29-2.71.46-4.12l.13-1.14.18-1.22c.25-1.73.5-3.46.78-5.18a49.25,49.25,0,0,1,1.67-7.06l.23-.75c.62-2,1.33-4.26,2.13-6.39.73-2,1.56-4.06,2.62-6.58l.21-.49c1.17-2.68,2.38-5.45,3.78-8.07.82-1.54,1.6-3,2.39-4.31a30.45,30.45,0,0,1,2.13-3.08l1.18-1.47c1.19-1.49,2.43-3,3.72-4.5l.2-.24.2-.22c.79-.9,1.58-1.8,2.4-2.69l.72-.77.72-.78a33.42,33.42,0,0,1,3.5-3.19c1.94-1.41,4.52-3.25,7.19-4.95a41.43,41.43,0,0,1,3.9-2.24c1.18-.57,2.47-1.15,4.18-1.89l.64-.27.09,0c1.67-.7,3.4-1.43,5.13-2,2.68-.91,5.1-1.7,7.42-2.4,2.05-.63,4.3-1.2,6.89-1.75s4.86-1,7.06-1.32a88.34,88.34,0,0,1,9.69-.6c1.86,0,3.66.08,5.36.25A106.64,106.64,0,0,1,487.74,12c1.71.47,3.44,1.13,5,1.71l.18.07c1.39.52,2.88,1.12,4.85,1.94,3.15,1.46,6,2.88,8.7,4.33a82.32,82.32,0,0,1,9.41,5.68A82,82,0,0,1,524.18,34c1.38,1.52,2.71,3,3.94,4.43.84,1,1.65,2,2.43,3l.1.13.11.14c1.48,2.06,2.66,3.76,3.73,5.37,1,1.45,1.89,3,2.78,4.44l.07.11.79,1.3c1,1.66,2.17,3.55,3.18,5.42l.39.69.14.25c.4.72.76,1.37,1.09,2.05l1.44,3a82.66,82.66,0,0,1,3.07,8.63c.77,2.78,1.8,6.43,3,10.09a103.28,103.28,0,0,1,2.72,10.44c.53,2.55,1,5.21,1.34,7.55l.24,1.51a71.81,71.81,0,0,1,.6,7.84c0,1.83,0,3.47-.13,5-.07,1.14-.19,2.29-.3,3.36l-.07.76c-.48,3.29-1,6.31-1.58,9.22a83.59,83.59,0,0,1-2.21,8.09l-.46,1.48c-1.85,6.07-3.9,12.57-6.32,19-.83,1.89-1.68,3.77-2.52,5.66q-1.51,3.38-3,6.76c-1.69,3.85-3.63,8-6,12.62-1.28,2.57-2.66,5.16-4,7.65l0,.1c-.82,1.55-1.64,3.09-2.45,4.64l-1.57,3.05-.76,1.47q-2.15,4.16-4.32,8.3l-.88,1.69-.21.41c-.83,1.62-1.77,3.45-2.79,5.17-1.38,2.35-3,4.83-5,7.82-3.39,5-6.53,9.38-9.58,13.44l-2.36,2.95c-1.63,2-3.33,4.16-5,6.27l-2,2.59-.54.72-.1.12c-.37.5-.75,1-1.16,1.48-1.43,1.64-2.94,3.26-4.24,4.64-2.23,2.37-4.61,4.67-6.71,6.7l-2,2c-1.4,1.36-2.88,2.71-4.51,4.12-.48.42-1,.82-1.49,1.22l-.08.06h0a4.69,4.69,0,0,0-2.44-1.75c-.73-.35-1.38-.68-2-1a18.85,18.85,0,0,1-2.1-1.47l-.19-.17-.19-.15.19.14-.17-.15Z" fill="#110802"/>
        <path d="M468.69,271.14a13.33,13.33,0,0,0-3,.95,19.73,19.73,0,0,0-5.22,3.16,6.44,6.44,0,0,0-1.38,1.88,10.55,10.55,0,0,0-1.08,3.19,8.89,8.89,0,0,0,.07,3.33c.18.47.38.93.58,1.39a9.28,9.28,0,0,0,1.48,1.71,4.58,4.58,0,0,0,1.37.94,13.54,13.54,0,0,0,1.59.64,12.17,12.17,0,0,0,3.07.44c.92.06,1.86,0,2.79,0,1.57,0,3.14-.06,4.71-.05a29,29,0,0,0,3.84,0,16.68,16.68,0,0,0,3.22-.63,10.21,10.21,0,0,0,2-.94,5.85,5.85,0,0,0,2.47-3.11,6.48,6.48,0,0,0-.65-5.19,11.94,11.94,0,0,0-1.51-2c-.27-.3-.55-.6-.83-.89a12.44,12.44,0,0,0-3.69-2.47c-.72-.34-1.47-.6-2.15-1l-.33-.25a4.47,4.47,0,0,0-1.84-.59,5,5,0,0,0-2.19-.6c-.52,0-1-.05-1.52-.05a10.14,10.14,0,0,0-1.8.14Zm8.39,1.91.18.13-.18-.13Zm-6.83,6.57.86,0,.32.26c-.76,0-1.53.05-2.3.06l.09,0c.34-.11.69-.21,1-.3Zm-4.75.14.11.13h0l-.09-.13Z" fill="#110802"/>
        <path d="M471.67,281.7a7.94,7.94,0,0,1-5.06.83c-4.67.77-8.93,3.67-12.15,7.06a28.47,28.47,0,0,0-2.86,3.34,17.92,17.92,0,0,0-1.66,3.08c-.7,1.59-1.53,3.11-2.21,4.7a21,21,0,0,0-1.14,3.07,7.54,7.54,0,0,0,.53,5.54,7.06,7.06,0,0,0,.62.92,8.18,8.18,0,0,0,1.91,1.94,7.46,7.46,0,0,0,3.2,1.45,18.15,18.15,0,0,0,5.88-.2,22.45,22.45,0,0,0,3.55-1.11c.83-.29,1.65-.61,2.48-.91a28.64,28.64,0,0,1,5.07-1.24c1.55-.26,3.1-.55,4.65-.8l3.69-.37a36.82,36.82,0,0,1,3.79-.13,23.5,23.5,0,0,0,4.81-.27,8.75,8.75,0,0,0,6.31-4.88,7,7,0,0,0,.63-1.67c.09-.59.17-1.19.21-1.79s-.16-1.25-.28-1.87a7.2,7.2,0,0,0-.45-1.28,24.91,24.91,0,0,0-1.46-3,27.16,27.16,0,0,0-2.09-2.8c-.55-.7-1.14-1.38-1.75-2a17.53,17.53,0,0,0-2.44-1.95,37,37,0,0,0-4-2.39,40.78,40.78,0,0,0-4.5-2.21,12.38,12.38,0,0,0-4.58-1.08c-.23,0-.45,0-.68,0Zm-16.44,23.17c.06-.19.13-.37.2-.56.42-.92.85-1.83,1.28-2.75.15-.31.29-.62.43-.94a24.31,24.31,0,0,1,1.62-3.12,31.22,31.22,0,0,1,4-4,26.35,26.35,0,0,1,3.51-2.08,15.18,15.18,0,0,1,2.6-.66,2.51,2.51,0,0,0,.75-.24h0a4.42,4.42,0,0,0,2,.46h.27a17.37,17.37,0,0,1,2.13.66c.64.3,1.28.62,1.91.94a43.92,43.92,0,0,1,4.86,2.83,20.81,20.81,0,0,1,2.27,2.47,12.4,12.4,0,0,1,.92,1.48,1.71,1.71,0,0,1,.13.23h0v0l-1,0-1.42,0-1.46,0c-.36,0-.72,0-1.07,0-.7,0-1.42.12-2.11.21l-.15,0c-.4.05-.81.11-1.22.15-1.36.14-3,.33-4.61.65-.65.13-1.3.24-2,.36a49.22,49.22,0,0,0-5,1.08c-1.12.33-2.2.75-3.45,1.25a28.62,28.62,0,0,1-4.66,1.55c-.21,0-.41,0-.63,0h-.16Zm-.76-.41c.06.14.12.27.17.4-.06-.13-.12-.26-.17-.4Z" fill="#110802"/>
        <path d="M446.46,24.1a17.81,17.81,0,0,0-6.06.86,7.17,7.17,0,0,0-.69.3h0a4.13,4.13,0,0,0-2.23-.68,3.72,3.72,0,0,0-1.14.18,65.35,65.35,0,0,0-8.66,3.68,55.88,55.88,0,0,0-8.7,6A46,46,0,0,0,412.18,41a36.92,36.92,0,0,0-4.7,7.08,111,111,0,0,0-5.82,13.46c-.69,2-1.41,4.19-2,6.42s-1,4.42-1.6,7.26a59.26,59.26,0,0,0-1.42,14.07,27.13,27.13,0,0,0,.5,4,8.39,8.39,0,0,0,1.91,3.58,4.34,4.34,0,0,0,1.12.93l.3.21a5.24,5.24,0,0,0,2.75.8,10,10,0,0,0,1.62-.17l.24,0a4.9,4.9,0,0,0,1.71-.71l.29-.15a10.94,10.94,0,0,0,1.56-1.14l.14-.11.14-.11c.39-.32.78-.63,1.15-1,.89-.87,1.78-1.74,2.66-2.63l.1-.11c.66-.68,1.35-1.38,2-2.1s1.45-1.79,2.11-2.67l.48-.63c1.34-1.77,2.63-3.53,3.83-5.25,2.38-3.42,5.17-7.51,7.77-11.88.86-1.45,1.7-3,2.44-4.28,1.29-2.31,2.75-4.93,4.35-7.3,1-1.5,2.08-2.94,2.91-4a52.94,52.94,0,0,1,6.38-6.75,80.59,80.59,0,0,0,6.79-6.35A15.68,15.68,0,0,0,454,38.55a12.49,12.49,0,0,0,1.49-5.41A8.19,8.19,0,0,0,455.3,31l-.06-.32a4.71,4.71,0,0,0-.27-.85,12.61,12.61,0,0,0-1.09-2.27,7.42,7.42,0,0,0-3.94-3.12,10.61,10.61,0,0,0-3.09-.37Zm-3.79,9.11a10,10,0,0,1,1.46-.41c.84-.06,1.61-.1,2.37-.1h.38s0,0,.07.18a2.72,2.72,0,0,1,0,.28c-.08.3-.16.59-.26.89s-.35.62-.54.92c-1.09,1.25-2.35,2.43-3.45,3.47l-.35.34c-.76.71-1.57,1.4-2.39,2.11l-.14.12c-.72.61-1.45,1.24-2.15,1.9a42.17,42.17,0,0,0-4.27,4.64c-1.44,1.78-3.09,3.86-4.55,6-1.91,2.85-3.61,5.86-5.25,8.78-.61,1.09-1.23,2.19-1.86,3.28-2.32,4-4.94,7.86-7.43,11.42-1.42,2.05-3,4.2-4.74,6.56-.84,1-1.76,2-2.62,3-.46.49-1,1-1.49,1.51l-.33.33v0l0,0c0-.6,0-1.2,0-1.81,0-1.47.18-2.93.36-4.55.28-1.88.65-3.75,1-5.65.43-2.16.89-4.4,1.51-6.58s1.19-4.17,1.94-6.17,1.47-3.86,2.27-5.79l.29-.63c.44-1,.89-1.9,1.36-2.84L415,52.13a35.31,35.31,0,0,1,3.14-5,38.38,38.38,0,0,1,3.33-3.61c1.18-1.1,2.54-2.26,4.28-3.63,1.31-1,2.68-1.92,4.16-2.87a38.11,38.11,0,0,1,5.26-2.73c1.1-.45,2.25-.89,3.43-1.3l.7-.28.1.05a4.48,4.48,0,0,0,2.22.6,3.29,3.29,0,0,0,1.07-.16ZM402.74,90.46l-.22,0,.22,0Z" fill="#110802"/>
        <path d="M469.08,308.71c-.43,1.26-.82,2.53-1.19,3.81a38,38,0,0,0-1,7.05c-.26,2.74-.39,5.48-.48,8.23s-.06,5.25-.06,7.87,0,5.12.05,7.68.35,4.87.58,7.29.44,5.1.69,7.64c.26,2.7.42,5.42.89,8.09.43,2.48.87,5,1.25,7.45.16,1,.3,2.05.44,3.08.68,5.21,1.06,10.46,2,15.63.22,1.2.47,2.4.7,3.61s.43,2.51.71,3.76.51,2.39.83,3.56.73,2.53,1.13,3.79c1.58,5,3.42,10,5.48,14.83.91,2.15,1.78,4.33,2.8,6.43s2.13,4.5,3.18,6.76c.87,1.86,1.73,3.7,2.71,5.51s2,3.91,2.93,5.92c.62,1.46,1.25,2.89,2,4.28s1.52,2.76,2.3,4.12,1.75,2.91,2.55,4.41,1.48,2.94,2.16,4.44c1,2.64,2.06,5.27,2.93,8,.41,1.25.77,2.51,1.14,3.78s.63,2.67,1,4,.72,2.42,1.06,3.63.59,2.48.84,3.72c.49,2.41,1,4.8,1.37,7.23.3,2.9.51,5.81.66,8.72.09,1.65.15,3.3.18,5a30,30,0,0,1-.21,3.91,57.28,57.28,0,0,1-3.71,12.68,23,23,0,0,1-2.3,4.22,17.06,17.06,0,0,1-2.18,2.07c-.54.41-1.07.81-1.62,1.2a30.29,30.29,0,0,1-2.95,1.77c-1.71,1-3.38,2-5.1,2.88-2,1.05-3.95,2.08-6,3.07-1.82.88-3.66,1.69-5.52,2.48a29.23,29.23,0,0,1-5.68,1.71c-2.4.25-4.79.3-7.2.35s-5,.25-7.45.29c-2.9,0-5.79.06-8.68.1-2.59,0-5.17.19-7.75.24s-5.37.07-8.06,0c-2.49-.12-5-.4-7.46-.63-5.38-.52-10.77-.62-16.15-1-2.9-.21-5.79-.39-8.68-.73-2.38-.32-4.75-.64-7.14-.85-2.61-.23-5.25-.19-7.87-.24-5.55-.11-11.12-.24-16.65-.71-5.29-.44-10.56-1.14-15.83-1.73-5.59-.63-11.2-.91-16.8-1.43-5.29-.48-10.59-.87-15.89-1.21-2.49-.16-5-.39-7.45-.5-2.64-.11-5.28-.22-7.91-.4s-5.22-.42-7.83-.57-5.17-.19-7.76-.22-5.07,0-7.61,0-5.37.12-8.06.19c-8,.21-16,.19-24,.17l-7.77,0H230.26c-2.44,0-4.87,0-7.32.12-1.09.07-2.18.23-3.27.31-1.34.08-2.68.15-4,.17-3.38.08-6.75.09-10.12.1-1.72,0-3.44,0-5.16,0s-3.4.14-5.09.19c-3.2.1-6.41.14-9.61.14s-6.66,0-10-.31c-.65-.09-1.29-.2-1.94-.33a12.81,12.81,0,0,1-2.18-.68l-1.44-.68a13.18,13.18,0,0,1-2.13-1.3,5.19,5.19,0,0,1-2-2.55,21,21,0,0,1-.78-2.76c4,0,8,0,12-.28,4.6-.29,9.13-1.06,13.68-1.74a31.44,31.44,0,0,0,6.6-1.35,8.56,8.56,0,0,0,2.15-1.1,9.1,9.1,0,0,0,2.29-2.46,9.61,9.61,0,0,0,.81-1.86,6.66,6.66,0,0,0,0-3.78,8.22,8.22,0,0,0-.94-2.15,12.69,12.69,0,0,0-1.17-1.56,12.85,12.85,0,0,0-1.73-1.65,11,11,0,0,0-1.93-1.37c-.58-.3-1.2-.55-1.81-.8a18.24,18.24,0,0,0-2.6-.82c-5.07-1.24-10.41-.22-15.47.51h0c-1,.14-1.94.29-2.91.53s-2.08.56-3.11.93a27.73,27.73,0,0,0-6.65,3.14,35.37,35.37,0,0,0-4.43,3.67,10.6,10.6,0,0,0-2,2.72c-.24.49-.44,1-.65,1.51h-3.32c-10.4,0-20.74-1.55-31.14-1.71-2.65,0-5.28,0-7.93.08s-5.23.16-7.84.18c-5.24,0-10.49,0-15.73,0-1.29,0-2.58,0-3.87,0-4.09,0-8.18,0-12.26.19-5.42.3-10.84.59-16.25,1-2.79.22-5.61.57-8.37,1s-5.42.86-8.11,1.38c-2.49.49-5,1-7.45,1.57-2.63.6-5.22,1.4-7.79,2.2-2.38.75-4.77,1.5-7.1,2.41a48.45,48.45,0,0,0-7.34,3.42c-1.29.78-2.6,1.53-3.85,2.39A42.61,42.61,0,0,0,2.82,539a14.35,14.35,0,0,0-1.74,2.21,10.72,10.72,0,0,0-.77,1.73A6.88,6.88,0,0,0,0,544.66a5.07,5.07,0,0,0,1.41,3.72A10.53,10.53,0,0,0,5.6,551c1.14.48,2.29.93,3.46,1.33a24.23,24.23,0,0,0,5.56.94c2.92.27,5.89.25,8.82.27a78.61,78.61,0,0,0,8.54-.39c3-.3,5.92-.84,8.87-1.28,1.15-.14,2.3-.29,3.45-.46s2.34-.45,3.51-.7c2.28-.48,4.56-1,6.86-1.39h0l.81-.09a4.19,4.19,0,0,0,2.75-1.13,3.87,3.87,0,0,0,0-5.49,3.75,3.75,0,0,0-2.75-1.14c-1.61.18-3.22.39-4.82.73l-3.51.73c-1.14.24-2.27.49-3.41.72s-2.24.4-3.37.55l.34,0c-2.4.33-4.79.75-7.19,1.09a73.63,73.63,0,0,1-9.62.6c-3.52,0-7-.06-10.53-.37-.43-.06-.85-.14-1.28-.22a15.1,15.1,0,0,1-1.76-.58c-.58-.2-1.14-.42-1.7-.65.47-.46.95-.91,1.44-1.34.82-.74,1.66-1.44,2.52-2.13a53.35,53.35,0,0,1,8.23-4.65,123.11,123.11,0,0,1,16-5.07c2.58-.66,5.21-1.15,7.83-1.65s5.4-1,8.11-1.38c2.29-.28,4.57-.58,6.87-.76,2.85-.22,5.7-.39,8.55-.56,2.5-.16,5-.32,7.5-.41,2.8-.11,5.58-.15,8.38-.14h16.16c5.29,0,10.58,0,15.87-.25s10.45.15,15.67.41,10.22.79,15.33,1.12c3.3.22,6.61.23,9.93.22.11.82.25,1.65.41,2.47a18.81,18.81,0,0,0,1.42,4.06,12,12,0,0,0,3.08,4.19,19.26,19.26,0,0,0,4.27,2.9c1.35.63,2.72,1.23,4.12,1.74a20.83,20.83,0,0,0,4.29.81,67.63,67.63,0,0,0,7.79.4q7.78.06,15.56-.27c5.2-.21,10.41-.09,15.62-.18,2.53,0,5.06-.09,7.58-.35a65.64,65.64,0,0,1,7-.31h23.58c7.91,0,15.82,0,23.73-.11,2.61,0,5.22-.16,7.82-.23s5.46,0,8.18,0q3.84,0,7.66.15c2.47.09,4.92.31,7.38.51,2.65.22,5.32.33,8,.47s5,.29,7.55.48c5.34.39,10.69.68,16,1.21,5.48.54,11,.9,16.45,1.4,2.79.26,5.57.66,8.35,1,2.58.3,5.16.59,7.74.85,5.37.53,10.76.74,16.15.85,2.74,0,5.49,0,8.23.18s5.15.41,7.73.75,5.12.58,7.69.73,5.07.37,7.6.48c2.74.11,5.47.17,8.2.38,2.52.19,5,.47,7.56.68a125.88,125.88,0,0,0,15.66,0c5.35-.2,10.71-.07,16.05-.38s10.86.07,15.95-1.78a113.76,113.76,0,0,0,14.92-6.88c2.15-1.16,4.26-2.4,6.39-3.59a25.41,25.41,0,0,0,2.83-1.84,38.26,38.26,0,0,0,3.41-2.68,18.49,18.49,0,0,0,3.74-5,55.84,55.84,0,0,0,2.64-6.1c.81-2.18,1.46-4.43,2.05-6.68a41.18,41.18,0,0,0,1.22-7.31,62.42,62.42,0,0,0-.13-7.49c-.13-2.41-.32-4.84-.52-7.25a63.56,63.56,0,0,0-1.09-7.24q-.61-3.11-1.3-6.2c-.24-1-.59-2.05-.9-3.07s-.6-2.2-.85-3.32c-.5-2.2-1.15-4.36-1.84-6.51s-1.59-4.28-2.38-6.41a62.79,62.79,0,0,0-3.36-7.43c-1.05-2-2.25-3.87-3.34-5.83s-2.12-3.82-3-5.83l.12.3c-.95-2.23-2-4.41-3.11-6.57-.57-1.08-1.2-2.14-1.73-3.24s-.94-2-1.42-3.07q-1.6-3.45-3.27-6.89c-1.14-2.35-2.1-4.78-3.13-7.18.14.31.27.62.4.93-2-4.87-3.78-9.85-5.35-14.89a61.31,61.31,0,0,1-1.78-7.46c-.46-2.57-1-5.11-1.45-7.68-.48-3.81-.85-7.63-1.34-11.43-.55-4.18-1.25-8.31-2-12.45-.45-3.68-.72-7.37-1.07-11.06S474,345.7,474,342c0-8.35-.09-16.75.92-25.06a41.75,41.75,0,0,1,1.68-6.1A3.94,3.94,0,0,0,473.9,306a3.77,3.77,0,0,0-1-.14,4,4,0,0,0-3.78,2.88ZM189.63,513.89a17.83,17.83,0,0,1,3.13.83,7.88,7.88,0,0,1,1,.58,16.88,16.88,0,0,1,1.3,1.24l.06.1-.15.08a26.64,26.64,0,0,1-3.85.82c-1.32.22-2.64.39-4,.57s-2.8.43-4.19.64c-2.21.23-4.42.43-6.63.56-2.49.15-5,.14-7.49.15h-1.65q.53-.45,1.05-.87a19.77,19.77,0,0,1,3.49-2,30.66,30.66,0,0,1,6.9-1.94l-.37.05,3.7-.52a36.17,36.17,0,0,1,7.64-.31Zm-21.89,18.63.15.11.11.09-.26-.2Zm313.34,9.78-.7.3.7-.3ZM34.14,545.16l-.3,0,.3,0Zm152.59-27,.45-.06h.08l-.53.07Zm.53-.07.51-.07-.51.07Z" fill="#110802"/>
        <path d="M470.09,9a88.34,88.34,0,0,0-9.69.6c-2.2.36-4.51.79-7.06,1.32s-4.84,1.12-6.89,1.75c-2.32.71-4.74,1.49-7.41,2.4-1.74.59-3.47,1.32-5.14,2l-.09,0-.64.27c-1.71.73-3,1.32-4.18,1.89a39.33,39.33,0,0,0-3.9,2.24c-2.67,1.7-5.25,3.54-7.19,4.95a32.37,32.37,0,0,0-3.5,3.2l-.72.77-.71.77c-.83.89-1.62,1.79-2.41,2.69l-.2.22-.2.24c-1.29,1.46-2.53,3-3.72,4.5l-1.18,1.47a30.45,30.45,0,0,0-2.13,3.08c-.78,1.36-1.57,2.77-2.39,4.31-1.4,2.63-2.61,5.39-3.78,8.07l-.22.49c-1.05,2.52-1.88,4.61-2.61,6.58-.8,2.13-1.51,4.4-2.13,6.4l-.23.74a49.25,49.25,0,0,0-1.67,7.06c-.28,1.72-.53,3.45-.77,5.17l-.18,1.23L389,84.65c-.17,1.41-.33,2.76-.45,4.12-.42,4.66-.85,9.48-.9,14.33-.05,5.16.07,10.34.19,14.72.11,3.7.47,7.44.81,11.06l0,.16.23,2.46c.4,4.36.84,9.05,1.4,13.81.5,3.44,1.07,6.42,1.73,9.09.81,3.3,1.77,6.78,3,10.95,1.06,3.47,1.95,6.37,2.95,9.36s2.17,6.18,3.71,10a204,204,0,0,0,9.88,20.58l.6,1.05.12.21c1.65,2.89,3.36,5.88,5.13,8.76,1.2,1.95,2.38,3.83,3.63,5.74.77,1.19,1.6,2.31,2.53,3.55l.14.19.09.11.16.19c1.32,1.57,2.66,3.12,4,4.66l.74.86q.63.72,1.26,1.47c1.14,1.33,2.26,2.65,3.41,3.89,3.19,3.46,6.53,6.81,10.22,10.24,6.87,6.39,13.73,12.46,20.42,18.06l.36.34a18.85,18.85,0,0,0,2.1,1.47c.59.34,1.24.67,2,1a4.64,4.64,0,0,1,2.44,1.75c.55-.42,1.07-.84,1.57-1.29,1.64-1.41,3.12-2.76,4.52-4.12l2-2c2.1-2,4.48-4.33,6.71-6.7,1.3-1.38,2.81-3,4.24-4.64.4-.47.79-1,1.16-1.47l.1-.14.54-.71,2-2.59c1.63-2.11,3.32-4.23,5-6.27l2.36-2.95c3.05-4.06,6.19-8.46,9.58-13.44,2-3,3.64-5.47,5-7.82,1-1.72,2-3.55,2.79-5.17l.21-.41c.29-.56.58-1.13.88-1.69q2.18-4.14,4.32-8.3l.76-1.47,1.57-3c.81-1.56,1.63-3.1,2.45-4.65l.06-.1c1.32-2.5,2.7-5.08,4-7.65,2.32-4.64,4.26-8.77,6-12.62,1-2.26,2-4.51,3-6.76.84-1.89,1.69-3.77,2.52-5.66,2.42-6.39,4.47-12.89,6.32-19l.46-1.48a82.81,82.81,0,0,0,2.21-8.09c.59-2.91,1.1-5.93,1.58-9.21l.07-.77c.11-1.07.23-2.22.3-3.36.09-1.54.13-3.18.13-5a69.4,69.4,0,0,0-.6-7.84l-.24-1.51c-.38-2.34-.81-5-1.34-7.55A103.28,103.28,0,0,0,550.41,83c-1.17-3.66-2.2-7.31-3-10.09a79.66,79.66,0,0,0-3.07-8.63l-1.44-3c-.33-.68-.69-1.33-1.09-2.05l-.14-.25-.39-.69c-1-1.88-2.16-3.76-3.18-5.42l-.79-1.3-.07-.11c-.89-1.47-1.82-3-2.78-4.45s-2.25-3.3-3.73-5.36l-.11-.14-.1-.13c-.78-1-1.59-2-2.43-3-1.23-1.42-2.56-2.91-3.94-4.43a82,82,0,0,0-8.33-8.18,82.32,82.32,0,0,0-9.41-5.68c-2.71-1.45-5.55-2.87-8.7-4.33-2-.82-3.46-1.42-4.85-1.94l-.18-.07c-1.53-.58-3.26-1.24-5-1.71a106.16,106.16,0,0,0-12.29-2.75c-1.7-.16-3.5-.25-5.36-.25ZM439.7,25.27h0c.22-.11.45-.2.69-.3a17.81,17.81,0,0,1,6.06-.86h.39a10.61,10.61,0,0,1,3.09.37,7.4,7.4,0,0,1,3.94,3.13A12.86,12.86,0,0,1,455,29.86a4.58,4.58,0,0,1,.27.86l.06.32a8.09,8.09,0,0,1,.23,2.1,12.63,12.63,0,0,1-1.5,5.41,15.34,15.34,0,0,1-2.12,2.85,80.59,80.59,0,0,1-6.79,6.35,52.25,52.25,0,0,0-6.38,6.75c-.83,1.1-1.91,2.54-2.91,4-1.61,2.37-3.06,5-4.35,7.3-.74,1.33-1.58,2.83-2.44,4.28-2.6,4.37-5.39,8.46-7.77,11.88-1.2,1.72-2.49,3.48-3.83,5.25l-.48.63c-.66.88-1.36,1.81-2.11,2.67s-1.32,1.42-2,2.1l-.1.11c-.87.89-1.77,1.76-2.66,2.64-.37.34-.76.65-1.15,1l-.13.11-.15.11a10.94,10.94,0,0,1-1.56,1.14l-.29.15a5,5,0,0,1-1.71.72l-.24,0a10,10,0,0,1-1.62.17,5.24,5.24,0,0,1-2.75-.8l-.3-.21a4.51,4.51,0,0,1-1.12-.93,8.41,8.41,0,0,1-1.92-3.58,28.4,28.4,0,0,1-.49-4,59.84,59.84,0,0,1,1.42-14.07c.56-2.84,1.07-5.14,1.6-7.27s1.27-4.38,2-6.41a110.74,110.74,0,0,1,5.81-13.46,36.62,36.62,0,0,1,4.7-7.08A45.42,45.42,0,0,1,419,34.45a54.75,54.75,0,0,1,8.7-6,62.8,62.8,0,0,1,8.66-3.68,3.45,3.45,0,0,1,1.14-.19,4.13,4.13,0,0,1,2.23.68Z" fill="#ff7850"/>
        <path d="M469.63,290.47h0a2.26,2.26,0,0,1-.75.24,15.18,15.18,0,0,0-2.6.66,26.35,26.35,0,0,0-3.51,2.08,31.22,31.22,0,0,0-4,4,24.31,24.31,0,0,0-1.62,3.12c-.14.32-.29.63-.43.94l-1.29,2.75-.2.56h.17a4.34,4.34,0,0,0,.63-.05,27.66,27.66,0,0,0,4.66-1.54c1.25-.5,2.33-.92,3.45-1.25a49.22,49.22,0,0,1,5-1.08l2-.36c1.64-.32,3.26-.51,4.62-.65l1.22-.16h.15c.69-.09,1.41-.18,2.11-.21.36,0,.71,0,1.07,0l1.46,0h2.45a12.68,12.68,0,0,0-1.05-1.73,20.1,20.1,0,0,0-2.28-2.47,42.77,42.77,0,0,0-4.85-2.83c-.63-.32-1.26-.64-1.91-.94a19.3,19.3,0,0,0-2.13-.66h-.27a4.42,4.42,0,0,1-2-.46Z" fill="#ff7850"/>
        <path d="M470.26,273l-1.09.68a6.76,6.76,0,0,0-2.28,2,10,10,0,0,0-.69,1.29,11.55,11.55,0,0,0-.32,1.53,4,4,0,0,0,.13,1.67c0,.21-.06.43-.08.64-.33,3.47,3.53,6.32,6.71,4.64a14.3,14.3,0,0,0,2.38-1.51,13.27,13.27,0,0,0,1.62-1.73c.55-.59,1.11-1.19,1.65-1.79a7.8,7.8,0,0,0,1.82-2.79,4.83,4.83,0,0,0-.19-3.62,4.64,4.64,0,0,0-1.55-1.8,4.71,4.71,0,0,0-2.23-.81,5.63,5.63,0,0,0-1.07-.11,9.5,9.5,0,0,0-4.81,1.74Z" fill="#ff7850"/>
        <path d="M446.88,32.7h-.38c-.76,0-1.53,0-2.37.11a10,10,0,0,0-1.46.39,3,3,0,0,1-1.07.18,4.49,4.49,0,0,1-2.22-.61l-.09-.05c-.24.1-.47.19-.71.27-1.18.42-2.33.86-3.43,1.31A37,37,0,0,0,429.89,37c-1.48.95-2.85,1.89-4.16,2.87-1.74,1.37-3.1,2.53-4.28,3.63a37.31,37.31,0,0,0-3.33,3.62,35.27,35.27,0,0,0-3.14,5l-1.13,2.27c-.47.94-.92,1.89-1.36,2.84l-.3.63c-.79,1.93-1.53,3.83-2.26,5.79s-1.35,4.06-1.94,6.17-1.08,4.42-1.52,6.58c-.38,1.9-.75,3.76-1,5.65-.18,1.62-.34,3.08-.36,4.55,0,.61,0,1.21,0,1.81.66-.6,1.27-1.24,1.84-1.84.86-.92,1.78-1.91,2.62-3,1.77-2.36,3.32-4.51,4.74-6.56,2.49-3.56,5.11-7.38,7.43-11.42.63-1.09,1.25-2.18,1.86-3.28,1.65-2.92,3.34-5.93,5.25-8.78,1.46-2.18,3.11-4.26,4.55-6.05a43,43,0,0,1,4.27-4.63c.7-.66,1.43-1.29,2.15-1.9l.14-.12c.83-.71,1.63-1.4,2.38-2.11l.36-.34c1.1-1,2.36-2.22,3.45-3.47.19-.3.37-.6.54-.92s.19-.59.26-.89a1.31,1.31,0,0,0,0-.28c-.05-.18-.05-.18-.06-.18Z" fill="#fefefe"/>
        <path d="M471.06,0a86.07,86.07,0,0,0-14.95,1.2,114.87,114.87,0,0,0-13.8,3.29c-2.2.69-4.43,1.36-6.58,2.2-2.52,1-5,2-7.52,3.07a46,46,0,0,0-6.5,3.19c-2.07,1.31-4.1,2.66-6.12,4.05a50.64,50.64,0,0,0-6.66,5.28c-1.34,1.31-2.61,2.7-3.85,4.11-2.46,2.8-4.85,5.66-7.12,8.61a38.32,38.32,0,0,0-2.89,4.14c-.87,1.48-1.7,3-2.51,4.52-1.69,3.16-3.09,6.52-4.49,9.82.16-.36.31-.73.47-1.1l-1.31,3.11h0l-.06.15c-.05.11-.1.23-.14.34h0c-.06.14-.12.27-.17.41a109.54,109.54,0,0,0-4.52,13.22c-.3,1.11-.57,2.21-.82,3.33s-.39,2.41-.57,3.61c-.38,2.5-.78,5-1.07,7.52-.58,4.92-1,9.83-1.29,14.77-.29,4.73-.19,9.47-.11,14.21.15,9.52,1.13,19,2.09,28.48.27,2.66.63,5.31,1,8,.31,2.25.84,4.46,1.31,6.67,1,4.61,2.42,9.14,3.86,13.63.7,2.18,1.34,4.38,2.07,6.55.83,2.48,1.7,4.92,2.63,7.36s2.08,5,3.16,7.54c.85,2,1.69,3.9,2.59,5.82a233.23,233.23,0,0,0,14.17,25.44A86.53,86.53,0,0,0,420,234c3.14,3.55,6.23,7.16,9.56,10.55,3.51,3.56,7.19,6.92,10.88,10.29,3.29,3,6.63,6,10.07,8.83q2.78,2.28,5.54,4.6c.93.79,1.87,1.56,2.82,2.33s1.92,1.49,2.92,2.18a22.41,22.41,0,0,0,4.67,2.27,2.73,2.73,0,0,0,.56.15,4.67,4.67,0,0,0,3.4,3.81,4.57,4.57,0,0,0,3.63-.47,60.6,60.6,0,0,0,5.49-4.51c1.8-1.6,3.54-3.28,5.26-5,3.21-3.15,6.42-6.28,9.48-9.58,3.26-3.52,6.08-7.44,9.07-11.19s6.2-7.73,9.09-11.75c2.76-3.81,5.49-7.67,8.07-11.61,1.33-2,2.59-4.08,3.82-6.17s2.3-4.33,3.42-6.49Q531,206,534.21,199.7c2.15-4.12,4.4-8.18,6.48-12.33s4.12-8.39,6-12.65c2-4.51,4-9,6-13.5,1-2.3,1.86-4.7,2.66-7.08.76-2.23,1.51-4.46,2.21-6.71s1.42-4.49,2.11-6.74,1.42-4.46,2-6.73a107.36,107.36,0,0,0,2.61-14.8,74.92,74.92,0,0,0,.48-7.48,64.43,64.43,0,0,0-.34-7c-.55-4.87-1.32-9.74-2.31-14.55-.49-2.37-1.08-4.72-1.75-7.06s-1.4-4.39-2.05-6.6-1.18-4.36-1.86-6.52-1.41-4.34-2.27-6.46a66.57,66.57,0,0,0-3.25-7.27q-1.85-3.37-3.79-6.67c-2.45-4.1-5-8.13-7.85-12A109.17,109.17,0,0,0,530,26.7c-1.81-1.88-3.63-3.72-5.49-5.53a44.16,44.16,0,0,0-9.11-6.53c-4.3-2.45-8.67-4.71-13.16-6.79-2.5-1.16-5.12-2.11-7.7-3.09-2.11-.8-4.27-1.45-6.45-2s-4.16-1-6.24-1.43A55,55,0,0,0,471.27,0Zm-69.3,184.69c-1.34-3.3-2.6-6.6-3.72-10-1-3.1-2-6.24-2.94-9.37-1.1-3.63-2.14-7.26-3-10.94-.74-3-1.28-6-1.73-9.09-.54-4.6-1-9.2-1.4-13.81s-.93-9.11-1.06-13.68c-.14-4.91-.24-9.81-.19-14.72s.47-9.57.9-14.33c.15-1.75.38-3.5.59-5.26.31-2.13.6-4.27.95-6.4a52,52,0,0,1,1.66-7.06c.75-2.39,1.49-4.78,2.36-7.13s1.71-4.4,2.62-6.58c1.26-2.88,2.51-5.78,4-8.56.77-1.45,1.56-2.89,2.39-4.31a31.12,31.12,0,0,1,2.12-3.08c1.62-2,3.21-4,4.9-6,.93-1.06,1.85-2.11,2.81-3.14.48-.52,1-1,1.43-1.55a34,34,0,0,1,3.5-3.19c2.36-1.72,4.73-3.39,7.19-4.95a38.58,38.58,0,0,1,3.9-2.24c1.38-.67,2.77-1.29,4.18-1.89,1.93-.82,3.87-1.65,5.86-2.33,2.46-.84,4.93-1.65,7.42-2.41,2.25-.68,4.59-1.25,6.89-1.74s4.69-.93,7-1.32a73.54,73.54,0,0,1,15.05-.35,107.25,107.25,0,0,1,12.28,2.74c1.75.49,3.46,1.15,5.15,1.79s3.24,1.27,4.85,1.93c2.95,1.38,5.84,2.81,8.7,4.34a82.48,82.48,0,0,1,9.41,5.68A81.23,81.23,0,0,1,524.16,34c1.34,1.47,2.65,2.94,4,4.43l.61.72h0c.69.82,1.36,1.66,2,2.51,1.49,2.07,2.68,3.77,3.73,5.36s2,3.11,2.9,4.64l.48.77.27.44c1,1.66,2.17,3.55,3.18,5.42l.39.69.14.26c.37.66.76,1.35,1.09,2l1.44,3a81.71,81.71,0,0,1,3.07,8.63c.77,2.78,1.8,6.43,3,10.09a103.28,103.28,0,0,1,2.72,10.44c.53,2.55,1,5.21,1.34,7.55l.24,1.51a71.81,71.81,0,0,1,.6,7.84c0,1.83,0,3.47-.13,5-.07,1.12-.19,2.28-.3,3.36l-.07.76c-.48,3.3-1,6.31-1.58,9.22-.55,2.71-1.38,5.4-2.21,8.09l-.46,1.48c-1.85,6.07-3.9,12.57-6.32,19l-2.23,5-.29.65c-1,2.24-2,4.5-3,6.75-1.7,3.88-3.65,8-6,12.62-1.28,2.57-2.66,5.15-4,7.65l-.06.1q-1.23,2.31-2.45,4.64L524,199.16q-2.15,4.16-4.32,8.3l-.88,1.69-.21.41c-.83,1.62-1.77,3.45-2.79,5.17-1.38,2.35-3,4.83-5,7.82-3.39,5-6.53,9.38-9.58,13.44l-2.35,2.94c-1.67,2.09-3.34,4.17-5,6.36l-1.95,2.51-.54.72-.1.12c-.37.5-.75,1-1.16,1.48-1.45,1.67-3,3.32-4.24,4.64-2.23,2.38-4.61,4.67-6.71,6.7l-2,2c-1.4,1.36-2.88,2.71-4.51,4.12-.48.42-1,.82-1.49,1.22l-.08.06h0a4.69,4.69,0,0,0-2.44-1.75c-.73-.35-1.38-.68-2-1a18.85,18.85,0,0,1-2.1-1.47l-.19-.17-.19-.15.19.14-.17-.15c-6.69-5.61-13.55-11.68-20.42-18.07-3.69-3.43-7-6.78-10.22-10.24-1.19-1.29-2.37-2.68-3.41-3.9l-.31-.35c-.31-.37-.63-.75-.95-1.11l-.74-.85-.34-.39c-1.22-1.43-2.45-2.84-3.66-4.27l-.16-.2-.09-.1-.14-.2c-.93-1.24-1.76-2.36-2.53-3.55-.61-.92-1.2-1.86-1.8-2.82s-1.22-1.95-1.82-2.93c-1.82-2.95-3.56-6-5.25-9l-.6-1c-.65-1.14-1.29-2.3-1.9-3.48-2.94-5.56-5.48-11.33-8-17.11Z" fill="#110802"/>
        <path d="M468.69,271.14a13.33,13.33,0,0,0-3,.95,19.73,19.73,0,0,0-5.22,3.16,6.44,6.44,0,0,0-1.38,1.88,10.55,10.55,0,0,0-1.08,3.19,8.89,8.89,0,0,0,.07,3.33c.18.47.38.93.58,1.39a9.28,9.28,0,0,0,1.48,1.71,4.58,4.58,0,0,0,1.37.94,13.54,13.54,0,0,0,1.59.64,12.17,12.17,0,0,0,3.07.44c.92.06,1.86,0,2.79,0,1.57,0,3.14-.06,4.71-.05a29,29,0,0,0,3.84,0,16.68,16.68,0,0,0,3.22-.63,10.21,10.21,0,0,0,2-.94,5.85,5.85,0,0,0,2.47-3.11,6.48,6.48,0,0,0-.65-5.19,11.94,11.94,0,0,0-1.51-2c-.27-.3-.55-.6-.83-.89a12.44,12.44,0,0,0-3.69-2.47c-.72-.34-1.47-.6-2.15-1l-.33-.25a4.47,4.47,0,0,0-1.84-.59,5,5,0,0,0-2.19-.6c-.52,0-1-.05-1.52-.05a10.14,10.14,0,0,0-1.8.14Zm8.39,1.91.18.13-.18-.13Zm-6.83,6.57.86,0,.32.26c-.76,0-1.53.05-2.3.06l.09,0c.34-.11.69-.21,1-.3Zm-4.75.14.11.13h0l-.09-.13Z" fill="#110802"/>
        <path d="M471.67,281.7a5.31,5.31,0,0,0-2.7.87,5.5,5.5,0,0,0-2.36,0c-4.67.77-8.93,3.67-12.14,7.06a30.29,30.29,0,0,0-2.87,3.34,18,18,0,0,0-1.66,3.09c-.7,1.58-1.53,3.1-2.21,4.69a21.07,21.07,0,0,0-1.14,3.08,7.52,7.52,0,0,0,.53,5.53,6.44,6.44,0,0,0,.62.92,8.18,8.18,0,0,0,1.91,1.94,7.46,7.46,0,0,0,3.2,1.45,18.15,18.15,0,0,0,5.88-.2,21.16,21.16,0,0,0,3.55-1.11c.83-.29,1.65-.61,2.48-.91a29.54,29.54,0,0,1,5.07-1.24c1.55-.26,3.1-.55,4.65-.8l3.69-.37a36.82,36.82,0,0,1,3.79-.13,23.5,23.5,0,0,0,4.81-.27,8.75,8.75,0,0,0,6.31-4.88,7.1,7.1,0,0,0,.63-1.66q.15-.9.21-1.8c-.07-.63-.16-1.25-.27-1.87a7.23,7.23,0,0,0-.46-1.28,18.37,18.37,0,0,0-3.55-5.78c-.55-.7-1.14-1.38-1.75-2a17,17,0,0,0-2.44-2,59.32,59.32,0,0,0-8.52-4.59,12.2,12.2,0,0,0-4.58-1.09l-.68,0Zm-2.79,9.05a2.65,2.65,0,0,0,.75-.25,4.4,4.4,0,0,0,2,.47h.26a17,17,0,0,1,2.13.66c.65.3,1.28.62,1.91.94a43.42,43.42,0,0,1,4.85,2.82,21.24,21.24,0,0,1,2.27,2.47,16.71,16.71,0,0,1,1.07,1.7c-.81,0-1.63,0-2.44,0s-1.7,0-2.54,0c-1.16.05-2.32.26-3.48.38-1.55.16-3.09.35-4.62.65-2.31.45-4.7.78-7,1.44-2.74.81-5.29,2.2-8.1,2.79l-.78.07.2-.56c.42-.92.85-1.84,1.29-2.75a32,32,0,0,1,2-4.05,31.81,31.81,0,0,1,4-4,25.81,25.81,0,0,1,3.5-2.08,15.33,15.33,0,0,1,2.61-.65Zm-14.41,13.72c.06.13.12.26.17.39-.06-.12-.12-.26-.17-.39Zm-.16,0,.08.1-.08-.1Zm-.22.05.07.05-.07-.05Z" fill="#110802"/>
        <path d="M446.47,24.08a17.79,17.79,0,0,0-6.07.87,6.4,6.4,0,0,0-.7.3,3.88,3.88,0,0,0-3.39-.5,62.75,62.75,0,0,0-8.65,3.68,54.57,54.57,0,0,0-8.71,6A46,46,0,0,0,412.17,41,37.65,37.65,0,0,0,407.46,48a113.69,113.69,0,0,0-5.81,13.47c-.73,2.12-1.43,4.23-2,6.41-.6,2.41-1.12,4.83-1.6,7.26a59.11,59.11,0,0,0-1.42,14.08,28.61,28.61,0,0,0,.49,4,8.54,8.54,0,0,0,1.93,3.59A6.43,6.43,0,0,0,400.49,98a5.33,5.33,0,0,0,2.77.82,14.3,14.3,0,0,0,1.86-.21,6.32,6.32,0,0,0,2-.88,11,11,0,0,0,1.71-1.25,16.6,16.6,0,0,0,1.28-1.08c.9-.87,1.79-1.74,2.66-2.64.71-.72,1.42-1.44,2.09-2.21.92-1,1.74-2.18,2.58-3.3q2-2.58,3.83-5.25c2.72-3.89,5.36-7.81,7.78-11.88,2.29-3.85,4.28-7.87,6.79-11.58.92-1.38,1.9-2.71,2.9-4a53.59,53.59,0,0,1,6.38-6.75,81.73,81.73,0,0,0,6.8-6.35,15.93,15.93,0,0,0,2.12-2.86,12.72,12.72,0,0,0,1.5-5.42,9.83,9.83,0,0,0-.29-2.42,4.39,4.39,0,0,0-.27-.87,13.85,13.85,0,0,0-1.09-2.26A7.37,7.37,0,0,0,450,24.46a10.14,10.14,0,0,0-3.1-.38Zm.41,8.65c0,.05,0,.1,0,.15v.27a9.07,9.07,0,0,1-.26.89,8.51,8.51,0,0,1-.54.92,52.4,52.4,0,0,1-3.8,3.8c-1.51,1.43-3.15,2.71-4.67,4.13a45.86,45.86,0,0,0-4.28,4.64c-1.57,2-3.14,4-4.54,6-2.61,3.88-4.78,8-7.11,12.06s-4.84,7.7-7.43,11.42c-1.54,2.22-3.13,4.4-4.75,6.55-.82,1-1.7,2-2.61,3-.6.62-1.2,1.25-1.81,1.85,0-.6,0-1.2,0-1.81,0-1.52.19-3,.36-4.55.28-1.86.64-3.71,1-5.56.45-2.23.9-4.47,1.53-6.66s1.18-4.14,1.94-6.17,1.48-3.87,2.26-5.79c.54-1.16,1.08-2.32,1.65-3.47L415,52.14a33.39,33.39,0,0,1,3.14-5,34.4,34.4,0,0,1,3.33-3.61c1.35-1.28,2.8-2.48,4.27-3.64q2-1.5,4.16-2.87a39.7,39.7,0,0,1,5.26-2.73c1.13-.46,2.27-.89,3.43-1.3a5.24,5.24,0,0,0,.69-.28l.09.06a4.18,4.18,0,0,0,3.31.43,9.43,9.43,0,0,1,1.45-.39,25.19,25.19,0,0,1,2.75-.1ZM402.74,90.46h0l-.22,0,.22,0Z" fill="#110802"/>
        <path d="M469.08,308.71c-.43,1.26-.82,2.53-1.19,3.81a38,38,0,0,0-1,7.05c-.26,2.74-.39,5.48-.48,8.23s-.06,5.25-.06,7.87,0,5.12.05,7.68.35,4.87.58,7.29.44,5.1.69,7.64c.26,2.7.42,5.42.89,8.09.43,2.48.87,5,1.25,7.45.16,1,.3,2.05.44,3.08.68,5.21,1.06,10.46,2,15.63.22,1.2.47,2.4.7,3.61s.43,2.51.71,3.76.51,2.39.83,3.56.73,2.53,1.13,3.79c1.58,5,3.42,10,5.48,14.83.91,2.15,1.78,4.33,2.8,6.43s2.13,4.5,3.18,6.76c.87,1.86,1.73,3.7,2.71,5.51s2,3.91,2.93,5.92c.62,1.46,1.25,2.89,2,4.28s1.52,2.76,2.3,4.12,1.75,2.91,2.55,4.41,1.48,2.94,2.16,4.44c1,2.64,2.06,5.27,2.93,8,.41,1.25.77,2.51,1.14,3.78s.63,2.67,1,4,.72,2.42,1.06,3.63.59,2.48.84,3.72c.49,2.41,1,4.8,1.37,7.23.3,2.9.51,5.81.66,8.72.09,1.65.15,3.3.18,5a30,30,0,0,1-.21,3.91,57.28,57.28,0,0,1-3.71,12.68,23,23,0,0,1-2.3,4.22,17.06,17.06,0,0,1-2.18,2.07c-.54.41-1.07.81-1.62,1.2a30.29,30.29,0,0,1-2.95,1.77c-1.71,1-3.38,2-5.1,2.88-2,1.05-3.95,2.08-6,3.07-1.82.88-3.66,1.69-5.52,2.48a29.23,29.23,0,0,1-5.68,1.71c-2.4.25-4.79.3-7.2.35s-5,.25-7.45.29c-2.9,0-5.79.06-8.68.1-2.59,0-5.17.19-7.75.24s-5.37.07-8.06,0c-2.49-.12-5-.4-7.46-.63-5.38-.52-10.77-.62-16.15-1-2.9-.21-5.79-.39-8.68-.73-2.38-.32-4.75-.64-7.14-.85-2.61-.23-5.25-.19-7.87-.24-5.55-.11-11.12-.24-16.65-.71-5.29-.44-10.56-1.14-15.83-1.73-5.59-.63-11.2-.91-16.8-1.43-5.29-.48-10.59-.87-15.89-1.21-2.49-.16-5-.39-7.45-.5-2.64-.11-5.28-.22-7.91-.4s-5.22-.42-7.83-.57-5.17-.19-7.76-.22-5.07,0-7.61,0-5.37.12-8.06.19c-8,.21-16,.19-24,.17l-7.77,0H230.26c-2.44,0-4.87,0-7.32.12-1.09.07-2.18.23-3.27.31-1.34.08-2.68.15-4,.17-3.38.08-6.75.09-10.12.1-1.72,0-3.44,0-5.16,0s-3.4.14-5.09.19c-3.2.1-6.41.14-9.61.14s-6.66,0-10-.31c-.65-.09-1.29-.2-1.94-.33a12.81,12.81,0,0,1-2.18-.68l-1.44-.68a13.18,13.18,0,0,1-2.13-1.3,5.19,5.19,0,0,1-2-2.55,21,21,0,0,1-.78-2.76c4,0,8,0,12-.28,4.6-.29,9.13-1.06,13.68-1.74a31.44,31.44,0,0,0,6.6-1.35,8.56,8.56,0,0,0,2.15-1.1,9.1,9.1,0,0,0,2.29-2.46,9.61,9.61,0,0,0,.81-1.86,6.66,6.66,0,0,0,0-3.78,8.22,8.22,0,0,0-.94-2.15,12.69,12.69,0,0,0-1.17-1.56,12.85,12.85,0,0,0-1.73-1.65,11,11,0,0,0-1.93-1.37c-.58-.3-1.2-.55-1.81-.8a18.24,18.24,0,0,0-2.6-.82c-5.07-1.24-10.41-.22-15.47.51h0c-1,.14-1.94.29-2.91.53s-2.08.56-3.11.93a27.73,27.73,0,0,0-6.65,3.14,35.37,35.37,0,0,0-4.43,3.67,10.6,10.6,0,0,0-2,2.72c-.24.49-.44,1-.65,1.51h-3.32c-10.4,0-20.74-1.55-31.14-1.71-2.65,0-5.28,0-7.93.08s-5.23.16-7.84.18c-5.24,0-10.49,0-15.73,0-1.29,0-2.58,0-3.87,0-4.09,0-8.18,0-12.26.19-5.42.3-10.84.59-16.25,1-2.79.22-5.61.57-8.37,1s-5.42.86-8.11,1.38c-2.49.49-5,1-7.45,1.57-2.63.6-5.22,1.4-7.79,2.2-2.38.75-4.77,1.5-7.1,2.41a48.45,48.45,0,0,0-7.34,3.42c-1.29.78-2.6,1.53-3.85,2.39A42.61,42.61,0,0,0,2.82,539a14.35,14.35,0,0,0-1.74,2.21,10.72,10.72,0,0,0-.77,1.73A6.88,6.88,0,0,0,0,544.66a5.07,5.07,0,0,0,1.41,3.72A10.53,10.53,0,0,0,5.6,551c1.14.48,2.29.93,3.46,1.33a24.23,24.23,0,0,0,5.56.94c2.92.27,5.89.25,8.82.27a78.61,78.61,0,0,0,8.54-.39c3-.3,5.92-.84,8.87-1.28,1.15-.14,2.3-.29,3.45-.46s2.34-.45,3.51-.7c2.28-.48,4.56-1,6.86-1.39h0l.81-.09a4.19,4.19,0,0,0,2.75-1.13,3.87,3.87,0,0,0,0-5.49,3.75,3.75,0,0,0-2.75-1.14c-1.61.18-3.22.39-4.82.73l-3.51.73c-1.14.24-2.27.49-3.41.72s-2.24.4-3.37.55l.34,0c-2.4.33-4.79.75-7.19,1.09a73.63,73.63,0,0,1-9.62.6c-3.52,0-7-.06-10.53-.37-.43-.06-.85-.14-1.28-.22a15.1,15.1,0,0,1-1.76-.58c-.58-.2-1.14-.42-1.7-.65.47-.46.95-.91,1.44-1.34.82-.74,1.66-1.44,2.52-2.13a53.35,53.35,0,0,1,8.23-4.65,123.11,123.11,0,0,1,16-5.07c2.58-.66,5.21-1.15,7.83-1.65s5.4-1,8.11-1.38c2.29-.28,4.57-.58,6.87-.76,2.85-.22,5.7-.39,8.55-.56,2.5-.16,5-.32,7.5-.41,2.8-.11,5.58-.15,8.38-.14h16.16c5.29,0,10.58,0,15.87-.25s10.45.15,15.67.41,10.22.79,15.33,1.12c3.3.22,6.61.23,9.93.22.11.82.25,1.65.41,2.47a18.81,18.81,0,0,0,1.42,4.06,12,12,0,0,0,3.08,4.19,19.26,19.26,0,0,0,4.27,2.9c1.35.63,2.72,1.23,4.12,1.74a20.83,20.83,0,0,0,4.29.81,67.63,67.63,0,0,0,7.79.4q7.78.06,15.56-.27c5.2-.21,10.41-.09,15.62-.18,2.53,0,5.06-.09,7.58-.35a65.64,65.64,0,0,1,7-.31h23.58c7.91,0,15.82,0,23.73-.11,2.61,0,5.22-.16,7.82-.23s5.46,0,8.18,0q3.84,0,7.66.15c2.47.09,4.92.31,7.38.51,2.65.22,5.32.33,8,.47s5,.29,7.55.48c5.34.39,10.69.68,16,1.21,5.48.54,11,.9,16.45,1.4,2.79.26,5.57.66,8.35,1,2.58.3,5.16.59,7.74.85,5.37.53,10.76.74,16.15.85,2.74,0,5.49,0,8.23.18s5.15.41,7.73.75,5.12.58,7.69.73,5.07.37,7.6.48c2.74.11,5.47.17,8.2.38,2.52.19,5,.47,7.56.68a125.88,125.88,0,0,0,15.66,0c5.35-.2,10.71-.07,16.05-.38s10.86.07,15.95-1.78a113.76,113.76,0,0,0,14.92-6.88c2.15-1.16,4.26-2.4,6.39-3.59a25.41,25.41,0,0,0,2.83-1.84,38.26,38.26,0,0,0,3.41-2.68,18.49,18.49,0,0,0,3.74-5,55.84,55.84,0,0,0,2.64-6.1c.81-2.18,1.46-4.43,2.05-6.68a41.18,41.18,0,0,0,1.22-7.31,62.42,62.42,0,0,0-.13-7.49c-.13-2.41-.32-4.84-.52-7.25a63.56,63.56,0,0,0-1.09-7.24q-.61-3.11-1.3-6.2c-.24-1-.59-2.05-.9-3.07s-.6-2.2-.85-3.32c-.5-2.2-1.15-4.36-1.84-6.51s-1.59-4.28-2.38-6.41a62.79,62.79,0,0,0-3.36-7.43c-1.05-2-2.25-3.87-3.34-5.83s-2.12-3.82-3-5.83l.12.3c-.95-2.23-2-4.41-3.11-6.57-.57-1.08-1.2-2.14-1.73-3.24s-.94-2-1.42-3.07q-1.6-3.45-3.27-6.89c-1.14-2.35-2.1-4.78-3.13-7.18.14.31.27.62.4.93-2-4.87-3.78-9.85-5.35-14.89a61.31,61.31,0,0,1-1.78-7.46c-.46-2.57-1-5.11-1.45-7.68-.48-3.81-.85-7.63-1.34-11.43-.55-4.18-1.25-8.31-2-12.45-.45-3.68-.72-7.37-1.07-11.06S474,345.7,474,342c0-8.35-.09-16.75.92-25.06a41.75,41.75,0,0,1,1.68-6.1A3.94,3.94,0,0,0,473.9,306a3.77,3.77,0,0,0-1-.14,4,4,0,0,0-3.78,2.88ZM189.63,513.89a17.83,17.83,0,0,1,3.13.83,7.88,7.88,0,0,1,1,.58,16.88,16.88,0,0,1,1.3,1.24l.06.1-.15.08a26.64,26.64,0,0,1-3.85.82c-1.32.22-2.64.39-4,.57s-2.8.43-4.19.64c-2.21.23-4.42.43-6.63.56-2.49.15-5,.14-7.49.15h-1.65q.53-.45,1.05-.87a19.77,19.77,0,0,1,3.49-2,30.66,30.66,0,0,1,6.9-1.94l-.37.05,3.7-.52a36.17,36.17,0,0,1,7.64-.31Zm-21.89,18.63.15.11.11.09-.26-.2Zm313.34,9.78-.7.3.7-.3ZM34.14,545.16l-.3,0,.3,0Zm152.59-27,.45-.06h.08l-.53.07Zm.53-.07.51-.07-.51.07Z" fill="#110802"/>
        <path d="M529.94,36.78a4.41,4.41,0,0,0-1.21,2.33h0c.69.82,1.36,1.66,2,2.51,1.49,2.07,2.68,3.77,3.73,5.36s2,3.11,2.9,4.64l.46.75c0-1.41,0-2.81-.1-4.21-.18-2.8-.35-5.6-.6-8.39a4.54,4.54,0,0,0-1.23-3,4.24,4.24,0,0,0-6,0Z" fill="#110802" opacity="0.24"/>
        <path d="M408.39,202.08a4.91,4.91,0,0,0-1.79,1.8,4.83,4.83,0,0,0-.51,3.85,6.89,6.89,0,0,0,1.63,2.66c.2.19.45.35.66.53l1.74,1.4a43.44,43.44,0,0,0,5.61,3.79c1.19.7,2.38,1.39,3.56,2.1-.6-1-1.21-1.94-1.81-2.92-1.82-2.95-3.56-6-5.25-9l-.6-1c-.69-1.22-1.37-2.46-2-3.71a4.79,4.79,0,0,0-1.22.51Z" fill="#110802" opacity="0.24"/>
        <path d="M528.73,39.11h0a2.91,2.91,0,0,0,0,.65c.25,2.67.42,5.4.58,8l.08,1.23c0,.8,0,1.61,0,2.4v1.12l0,2,0,2c0,5.14-.13,10.29-.33,15.09-.4,9.3-1.2,19.11-2.47,30l0,.29,0,.29a55.37,55.37,0,0,1-1,6.14c-.61,2.52-1.3,5.11-2.1,7.9-.51,1.8-1.05,3.58-1.59,5.37l-.44,1.43-.48,1.62c-.56,1.85-1.13,3.77-1.8,5.6-3.24,8.9-6.71,18.11-10.61,28.14-1.21,3.1-2.41,6.19-3.61,9.3-.93,2.17-1.73,4-2.66,5.79-1.24,2.41-2.48,4.58-3.79,6.63-.36.57-.73,1.14-1.1,1.71-1,1.5-2,3.06-2.92,4.63-1.29,2.16-2.56,4.32-3.82,6.5l-1.31,2.27c-1.95,3.38-4,6.88-6,10.28l-1.63,2.68c-1.85,3.08-3.77,6.26-5.87,9.27-.18.27-.38.53-.57.8-.6.71-1.25,1.41-1.87,2.08s-1.11,1.19-1.64,1.8l-.56.66a30.08,30.08,0,0,1-2.84,3l-.1.08h0c-.35,0-.71,0-1.07,0a35.61,35.61,0,0,1-4.15-.26,68.79,68.79,0,0,1-12.9-3.66c-2.52-.92-5.07-1.72-7-2.31-2.28-.7-4.56-1.51-6.78-2.42a31.15,31.15,0,0,1-4.59-2.41c-.92-.6-1.81-1.23-2.71-1.87s-1.51-1.08-2.28-1.6c-1.69-1.13-3.24-2.13-4.76-3l-.58-.36c-1.16-.7-2.35-1.41-3.46-2.21-.47-.39-.92-.81-1.38-1.24a20,20,0,0,0-2.61-2.16,5.05,5.05,0,0,0-4.29-.81c.64,1.26,1.33,2.5,2,3.72l.6,1c1.69,3,3.44,6,5.25,9,.6,1,1.21,2,1.82,2.93s1.19,1.9,1.8,2.82c.77,1.19,1.6,2.31,2.53,3.55l.14.19.09.11.16.19c1.21,1.44,2.44,2.86,3.66,4.27l.34.4.74.85,1,1.11.3.35c1,1.22,2.22,2.61,3.41,3.9,3.19,3.46,6.53,6.81,10.22,10.24,6.87,6.39,13.73,12.46,20.42,18.06l.36.34a18.85,18.85,0,0,0,2.1,1.47c.59.34,1.24.67,2,1a4.64,4.64,0,0,1,2.44,1.75c.55-.42,1.07-.84,1.57-1.29,1.64-1.41,3.12-2.76,4.52-4.12l2-2c2.1-2,4.48-4.32,6.71-6.7,1.24-1.32,2.79-3,4.24-4.64.4-.47.79-1,1.16-1.48l.1-.13.54-.71,1.95-2.52c1.69-2.18,3.36-4.27,5-6.35l2.35-2.94c3.05-4.06,6.19-8.46,9.58-13.44,2-3,3.64-5.47,5-7.82,1-1.72,2-3.55,2.79-5.17l.21-.41c.29-.56.58-1.13.88-1.69q2.18-4.14,4.32-8.3l2.33-4.51q1.22-2.34,2.46-4.65l0-.1c1.32-2.5,2.7-5.08,4-7.65,2.3-4.61,4.25-8.74,6-12.62,1-2.25,2-4.5,3-6.75l.29-.66q1.13-2.5,2.23-5c2.42-6.39,4.47-12.89,6.32-19l.46-1.48c.83-2.69,1.66-5.38,2.21-8.09.59-2.91,1.1-5.92,1.58-9.21l.07-.77c.11-1.08.23-2.24.3-3.36.09-1.54.13-3.18.13-5a69.4,69.4,0,0,0-.6-7.84l-.24-1.51c-.38-2.34-.81-5-1.34-7.55A103.28,103.28,0,0,0,550.41,83c-1.17-3.66-2.2-7.31-3-10.09a81.71,81.71,0,0,0-3.07-8.63l-1.44-3c-.33-.69-.72-1.38-1.09-2l-.14-.26-.39-.69c-1-1.88-2.16-3.76-3.18-5.42l-.27-.44-.48-.77c-.93-1.53-1.89-3.12-2.9-4.64s-2.24-3.29-3.73-5.36c-.66-.85-1.33-1.69-2-2.51Z" fill="#110802" opacity="0.24"/>
        <path d="M471.06,0a85.11,85.11,0,0,0-14.95,1.21,116.77,116.77,0,0,0-13.8,3.28c-2.2.7-4.43,1.36-6.58,2.2-2.52,1-5,2-7.52,3.07a46.1,46.1,0,0,0-6.5,3.2c-2.07,1.3-4.1,2.65-6.12,4a51.48,51.48,0,0,0-6.66,5.28c-1.34,1.31-2.61,2.71-3.85,4.11-2.46,2.8-4.85,5.66-7.12,8.61a38.32,38.32,0,0,0-2.89,4.14c-.87,1.49-1.7,3-2.51,4.52-1.69,3.16-3.09,6.52-4.49,9.82.16-.36.31-.73.47-1.1-.44,1-.88,2.08-1.31,3.12v0c-.21.52-.44,1-.66,1.56l.42-1,.21-.5-.34.81a110.29,110.29,0,0,0-4.52,13.23c-.3,1.11-.57,2.21-.82,3.34s-.39,2.41-.57,3.6c-.38,2.5-.78,5-1.07,7.52-.58,4.92-1,9.84-1.29,14.77-.29,4.73-.19,9.48-.11,14.21.15,9.52,1.13,19,2.09,28.49.27,2.66.63,5.3,1,8,.31,2.24.84,4.45,1.31,6.66,1,4.61,2.42,9.14,3.86,13.63.7,2.18,1.34,4.39,2.07,6.55.83,2.48,1.7,4.92,2.63,7.36s2.08,5,3.16,7.54c.85,2,1.69,3.9,2.59,5.83a234,234,0,0,0,14.17,25.43A86.53,86.53,0,0,0,420,234c3.14,3.55,6.23,7.16,9.56,10.55,3.51,3.56,7.19,6.92,10.88,10.29,3.29,3,6.63,6,10.07,8.83q2.78,2.28,5.54,4.6c.93.79,1.87,1.56,2.82,2.34s1.92,1.48,2.92,2.18a22.91,22.91,0,0,0,4.67,2.27,2.7,2.7,0,0,0,.56.14,4.67,4.67,0,0,0,3.4,3.81,4.57,4.57,0,0,0,3.63-.47,60.6,60.6,0,0,0,5.49-4.51c1.8-1.6,3.54-3.28,5.26-5,3.21-3.15,6.42-6.28,9.48-9.58,3.26-3.52,6.08-7.43,9.07-11.19s6.2-7.73,9.09-11.74c2.76-3.82,5.49-7.68,8.07-11.62,1.33-2,2.59-4.08,3.82-6.17s2.3-4.33,3.42-6.48c2.18-4.18,4.34-8.38,6.51-12.56s4.4-8.17,6.48-12.33,4.12-8.38,6-12.65c2-4.51,4-9,6-13.5,1-2.3,1.86-4.69,2.66-7.07s1.51-4.47,2.21-6.72,1.42-4.49,2.11-6.74,1.42-4.46,2-6.72a107.77,107.77,0,0,0,2.61-14.81,74.73,74.73,0,0,0,.48-7.48,64.43,64.43,0,0,0-.34-7c-.55-4.87-1.32-9.74-2.31-14.54-.49-2.38-1.08-4.73-1.75-7.06s-1.4-4.39-2.05-6.6-1.18-4.37-1.86-6.52-1.41-4.34-2.27-6.47a66.57,66.57,0,0,0-3.25-7.27c-1.23-2.25-2.49-4.46-3.79-6.67-2.45-4.1-5-8.13-7.85-12A108.17,108.17,0,0,0,530,26.7c-1.81-1.88-3.63-3.72-5.49-5.53a44.16,44.16,0,0,0-9.11-6.53c-4.3-2.45-8.67-4.7-13.16-6.79-2.5-1.16-5.12-2.11-7.7-3.09-2.11-.79-4.27-1.45-6.45-2s-4.16-1-6.24-1.44A55,55,0,0,0,471.27,0Zm4.39,9.31a105.21,105.21,0,0,1,12.28,2.75c1.75.48,3.46,1.14,5.15,1.78s3.24,1.27,4.85,1.93c2.94,1.38,5.84,2.81,8.7,4.34a82.85,82.85,0,0,1,9.4,5.67A80.52,80.52,0,0,1,524.16,34c1.34,1.46,2.65,2.93,4,4.42.91,1,1.77,2.14,2.63,3.23,1.27,1.77,2.52,3.54,3.73,5.37s2.42,3.85,3.61,5.79,2.21,3.62,3.22,5.48c.54,1,1.12,2,1.61,3s1,2,1.45,3a84.23,84.23,0,0,1,3.07,8.63c.93,3.38,1.89,6.75,3,10.09a103.92,103.92,0,0,1,2.72,10.44c.62,3,1.09,6,1.58,9a71,71,0,0,1,.6,7.84c0,1.68,0,3.33-.13,5-.09,1.37-.24,2.74-.38,4.11-.44,3.09-.95,6.15-1.57,9.22-.66,3.24-1.7,6.4-2.66,9.56-1.95,6.37-4,12.72-6.33,19-1.83,4.14-3.7,8.27-5.52,12.42s-3.88,8.47-6,12.62-4.34,8.26-6.49,12.4-4.4,8.56-6.65,12.82c-1.27,2.42-2.48,4.9-3.87,7.26-1.58,2.68-3.27,5.25-5,7.82-3.1,4.55-6.28,9-9.59,13.44-2.44,3.07-4.92,6.11-7.32,9.21l-2,2.6c-.59.77-1.16,1.58-1.8,2.32-1.37,1.58-2.8,3.11-4.23,4.64-2.81,3-5.81,5.8-8.75,8.67q-2.2,2.13-4.52,4.12c-.51.44-1,.87-1.55,1.29a4.52,4.52,0,0,0-2.35-1.73l-.09,0c-.67-.31-1.33-.64-2-1a25,25,0,0,1-2.48-1.78l.84.64q-10.87-9.06-21.22-18.73c-3.54-3.29-6.95-6.68-10.22-10.24-1.61-1.74-3.13-3.57-4.68-5.37s-3.17-3.65-4.73-5.51l-.26-.3c-.91-1.23-1.83-2.45-2.67-3.73-1.23-1.91-2.43-3.82-3.62-5.75-2-3.29-3.93-6.66-5.85-10a201.55,201.55,0,0,1-9.88-20.59c-1.34-3.3-2.6-6.6-3.72-10-1-3.1-2-6.24-2.94-9.37-1.1-3.63-2.14-7.26-3-10.94-.74-3-1.28-6-1.73-9.09-.54-4.6-1-9.2-1.4-13.81s-.93-9.1-1.06-13.68c-.14-4.9-.24-9.81-.19-14.72s.47-9.57.9-14.32c.16-1.76.38-3.51.59-5.27.31-2.13.6-4.27.95-6.39a51.7,51.7,0,0,1,1.66-7.06c.75-2.39,1.49-4.79,2.36-7.14s1.71-4.4,2.62-6.58c1.26-2.88,2.51-5.78,4-8.56.77-1.45,1.56-2.88,2.39-4.31a29.59,29.59,0,0,1,2.13-3.08c1.61-2,3.2-4,4.89-6,.93-1.05,1.85-2.11,2.81-3.14.48-.52,1-1,1.43-1.55a34.23,34.23,0,0,1,3.5-3.2c2.35-1.7,4.73-3.38,7.19-4.94a38.58,38.58,0,0,1,3.9-2.24c1.38-.67,2.77-1.29,4.18-1.89,1.93-.82,3.87-1.65,5.86-2.33q3.69-1.26,7.42-2.41c2.25-.68,4.59-1.25,6.89-1.73s4.69-.94,7-1.32a72.84,72.84,0,0,1,15.05-.36ZM387,56.06l-.22.52.09-.21.18-.43-.05.12Z" fill="#110802"/>
        <path d="M468.69,271.14a13.33,13.33,0,0,0-3,.95,19.73,19.73,0,0,0-5.22,3.16,6.44,6.44,0,0,0-1.38,1.88,10.55,10.55,0,0,0-1.08,3.19,8.89,8.89,0,0,0,.07,3.33c.18.47.38.93.58,1.39a9.28,9.28,0,0,0,1.48,1.71,4.58,4.58,0,0,0,1.37.94,13.54,13.54,0,0,0,1.59.64,12.17,12.17,0,0,0,3.07.44c.92.06,1.86,0,2.79,0,1.57,0,3.14-.06,4.71-.05a29,29,0,0,0,3.84,0,16.68,16.68,0,0,0,3.22-.63,10.21,10.21,0,0,0,2-.94,5.85,5.85,0,0,0,2.47-3.11,6.48,6.48,0,0,0-.65-5.19,11.94,11.94,0,0,0-1.51-2c-.27-.3-.55-.6-.83-.89a12.44,12.44,0,0,0-3.69-2.47c-.72-.34-1.47-.6-2.15-1l-.33-.25a4.47,4.47,0,0,0-1.84-.59,5,5,0,0,0-2.19-.6c-.52,0-1-.05-1.52-.05a10.14,10.14,0,0,0-1.8.14Zm8.39,1.91.18.13-.18-.13Zm-6.83,6.57.86,0,.32.26c-.76,0-1.53.05-2.3.06l.09,0c.34-.11.69-.21,1-.3Zm-4.75.14.11.13h0l-.09-.13Z" fill="#110802"/>
        <path d="M471.67,281.7a5.31,5.31,0,0,0-2.7.87,5.5,5.5,0,0,0-2.36,0c-4.67.77-8.93,3.67-12.14,7.06a30.29,30.29,0,0,0-2.87,3.34,18,18,0,0,0-1.66,3.09c-.7,1.58-1.53,3.1-2.21,4.69a21.07,21.07,0,0,0-1.14,3.08,7.52,7.52,0,0,0,.53,5.53,6.44,6.44,0,0,0,.62.92,8.18,8.18,0,0,0,1.91,1.94,7.46,7.46,0,0,0,3.2,1.45,18.15,18.15,0,0,0,5.88-.2,21.16,21.16,0,0,0,3.55-1.11c.83-.29,1.65-.61,2.48-.91a29.54,29.54,0,0,1,5.07-1.24c1.55-.26,3.1-.55,4.65-.8l3.69-.37a36.82,36.82,0,0,1,3.79-.13,23.5,23.5,0,0,0,4.81-.27,8.75,8.75,0,0,0,6.31-4.88,7.1,7.1,0,0,0,.63-1.66q.15-.9.21-1.8c-.07-.63-.16-1.25-.27-1.87a7.23,7.23,0,0,0-.46-1.28,18.37,18.37,0,0,0-3.55-5.78c-.55-.7-1.14-1.38-1.75-2a17,17,0,0,0-2.44-2,59.32,59.32,0,0,0-8.52-4.59,12.2,12.2,0,0,0-4.58-1.09l-.68,0Zm-2.79,9.05a2.65,2.65,0,0,0,.75-.25,4.4,4.4,0,0,0,2,.47h.26a17,17,0,0,1,2.13.66c.65.3,1.28.62,1.91.94a43.42,43.42,0,0,1,4.85,2.82,21.24,21.24,0,0,1,2.27,2.47,16.71,16.71,0,0,1,1.07,1.7c-.81,0-1.63,0-2.44,0s-1.7,0-2.54,0c-1.16.05-2.32.26-3.48.38-1.55.16-3.09.35-4.62.65-2.31.45-4.7.78-7,1.44-2.74.81-5.29,2.2-8.1,2.79l-.78.07.2-.56c.42-.92.85-1.84,1.29-2.75a32,32,0,0,1,2-4.05,31.81,31.81,0,0,1,4-4,25.81,25.81,0,0,1,3.5-2.08,15.33,15.33,0,0,1,2.61-.65Zm-14.41,13.72c.06.13.12.26.17.39-.06-.12-.12-.26-.17-.39Zm-.16,0,.08.1-.08-.1Zm-.22.05.07.05-.07-.05Z" fill="#110802"/>
        <path d="M446.47,24.08a17.79,17.79,0,0,0-6.07.87,6.4,6.4,0,0,0-.7.3,3.88,3.88,0,0,0-3.39-.5,62.75,62.75,0,0,0-8.65,3.68,54.57,54.57,0,0,0-8.71,6A46,46,0,0,0,412.17,41,37.65,37.65,0,0,0,407.46,48a113.69,113.69,0,0,0-5.81,13.47c-.73,2.12-1.43,4.23-2,6.41-.6,2.41-1.12,4.83-1.6,7.26a59.11,59.11,0,0,0-1.42,14.08,28.61,28.61,0,0,0,.49,4,8.54,8.54,0,0,0,1.93,3.59A6.43,6.43,0,0,0,400.49,98a5.33,5.33,0,0,0,2.77.82,14.3,14.3,0,0,0,1.86-.21,6.32,6.32,0,0,0,2-.88,11,11,0,0,0,1.71-1.25,16.6,16.6,0,0,0,1.28-1.08c.9-.87,1.79-1.74,2.66-2.64.71-.72,1.42-1.44,2.09-2.21.92-1,1.74-2.18,2.58-3.3q2-2.58,3.83-5.25c2.72-3.89,5.36-7.81,7.78-11.88,2.29-3.85,4.28-7.87,6.79-11.58.92-1.38,1.9-2.71,2.9-4a53.59,53.59,0,0,1,6.38-6.75,81.73,81.73,0,0,0,6.8-6.35,15.93,15.93,0,0,0,2.12-2.86,12.72,12.72,0,0,0,1.5-5.42,9.83,9.83,0,0,0-.29-2.42,4.39,4.39,0,0,0-.27-.87,13.85,13.85,0,0,0-1.09-2.26A7.37,7.37,0,0,0,450,24.46a10.14,10.14,0,0,0-3.1-.38Zm.41,8.65c0,.05,0,.1,0,.15v.27a9.07,9.07,0,0,1-.26.89,8.51,8.51,0,0,1-.54.92,52.4,52.4,0,0,1-3.8,3.8c-1.51,1.43-3.15,2.71-4.67,4.13a45.86,45.86,0,0,0-4.28,4.64c-1.57,2-3.14,4-4.54,6-2.61,3.88-4.78,8-7.11,12.06s-4.84,7.7-7.43,11.42c-1.54,2.22-3.13,4.4-4.75,6.55-.82,1-1.7,2-2.61,3-.6.62-1.2,1.25-1.81,1.85,0-.6,0-1.2,0-1.81,0-1.52.19-3,.36-4.55.28-1.86.64-3.71,1-5.56.45-2.23.9-4.47,1.53-6.66s1.18-4.14,1.94-6.17,1.48-3.87,2.26-5.79c.54-1.16,1.08-2.32,1.65-3.47L415,52.14a33.39,33.39,0,0,1,3.14-5,34.4,34.4,0,0,1,3.33-3.61c1.35-1.28,2.8-2.48,4.27-3.64q2-1.5,4.16-2.87a39.7,39.7,0,0,1,5.26-2.73c1.13-.46,2.27-.89,3.43-1.3a5.24,5.24,0,0,0,.69-.28l.09.06a4.18,4.18,0,0,0,3.31.43,9.43,9.43,0,0,1,1.45-.39,25.19,25.19,0,0,1,2.75-.1ZM402.74,90.46h0l-.22,0,.22,0Z" fill="#110802"/>
        <path d="M469.08,308.71c-.43,1.26-.82,2.53-1.19,3.81a38,38,0,0,0-1,7.05c-.26,2.74-.39,5.48-.48,8.23s-.06,5.25-.06,7.87,0,5.12.05,7.68.35,4.87.58,7.29.44,5.1.69,7.64c.26,2.7.42,5.42.89,8.09.43,2.48.87,5,1.25,7.45.16,1,.3,2.05.44,3.08.68,5.21,1.06,10.46,2,15.63.22,1.2.47,2.4.7,3.61s.43,2.51.71,3.76.51,2.39.83,3.56.73,2.53,1.13,3.79c1.58,5,3.42,10,5.48,14.83.91,2.15,1.78,4.33,2.8,6.43s2.13,4.5,3.18,6.76c.87,1.86,1.73,3.7,2.71,5.51s2,3.91,2.93,5.92c.62,1.46,1.25,2.89,2,4.28s1.52,2.76,2.3,4.12,1.75,2.91,2.55,4.41,1.48,2.94,2.16,4.44c1,2.64,2.06,5.27,2.93,8,.41,1.25.77,2.51,1.14,3.78s.63,2.67,1,4,.72,2.42,1.06,3.63.59,2.48.84,3.72c.49,2.41,1,4.8,1.37,7.23.3,2.9.51,5.81.66,8.72.09,1.65.15,3.3.18,5a30,30,0,0,1-.21,3.91,57.28,57.28,0,0,1-3.71,12.68,23,23,0,0,1-2.3,4.22,17.06,17.06,0,0,1-2.18,2.07c-.54.41-1.07.81-1.62,1.2a30.29,30.29,0,0,1-2.95,1.77c-1.71,1-3.38,2-5.1,2.88-2,1.05-3.95,2.08-6,3.07-1.82.88-3.66,1.69-5.52,2.48a29.23,29.23,0,0,1-5.68,1.71c-2.4.25-4.79.3-7.2.35s-5,.25-7.45.29c-2.9,0-5.79.06-8.68.1-2.59,0-5.17.19-7.75.24s-5.37.07-8.06,0c-2.49-.12-5-.4-7.46-.63-5.38-.52-10.77-.62-16.15-1-2.9-.21-5.79-.39-8.68-.73-2.38-.32-4.75-.64-7.14-.85-2.61-.23-5.25-.19-7.87-.24-5.55-.11-11.12-.24-16.65-.71-5.29-.44-10.56-1.14-15.83-1.73-5.59-.63-11.2-.91-16.8-1.43-5.29-.48-10.59-.87-15.89-1.21-2.49-.16-5-.39-7.45-.5-2.64-.11-5.28-.22-7.91-.4s-5.22-.42-7.83-.57-5.17-.19-7.76-.22-5.07,0-7.61,0-5.37.12-8.06.19c-8,.21-16,.19-24,.17l-7.77,0H230.26c-2.44,0-4.87,0-7.32.12-1.09.07-2.18.23-3.27.31-1.34.08-2.68.15-4,.17-3.38.08-6.75.09-10.12.1-1.72,0-3.44,0-5.16,0s-3.4.14-5.09.19c-3.2.1-6.41.14-9.61.14s-6.66,0-10-.31c-.65-.09-1.29-.2-1.94-.33a12.81,12.81,0,0,1-2.18-.68l-1.44-.68a13.18,13.18,0,0,1-2.13-1.3,5.19,5.19,0,0,1-2-2.55,21,21,0,0,1-.78-2.76c4,0,8,0,12-.28,4.6-.29,9.13-1.06,13.68-1.74a31.44,31.44,0,0,0,6.6-1.35,8.56,8.56,0,0,0,2.15-1.1,9.1,9.1,0,0,0,2.29-2.46,9.61,9.61,0,0,0,.81-1.86,6.66,6.66,0,0,0,0-3.78,8.22,8.22,0,0,0-.94-2.15,12.69,12.69,0,0,0-1.17-1.56,12.85,12.85,0,0,0-1.73-1.65,11,11,0,0,0-1.93-1.37c-.58-.3-1.2-.55-1.81-.8a18.24,18.24,0,0,0-2.6-.82c-5.07-1.24-10.41-.22-15.47.51h0c-1,.14-1.94.29-2.91.53s-2.08.56-3.11.93a27.73,27.73,0,0,0-6.65,3.14,35.37,35.37,0,0,0-4.43,3.67,10.6,10.6,0,0,0-2,2.72c-.24.49-.44,1-.65,1.51h-3.32c-10.4,0-20.74-1.55-31.14-1.71-2.65,0-5.28,0-7.93.08s-5.23.16-7.84.18c-5.24,0-10.49,0-15.73,0-1.29,0-2.58,0-3.87,0-4.09,0-8.18,0-12.26.19-5.42.3-10.84.59-16.25,1-2.79.22-5.61.57-8.37,1s-5.42.86-8.11,1.38c-2.49.49-5,1-7.45,1.57-2.63.6-5.22,1.4-7.79,2.2-2.38.75-4.77,1.5-7.1,2.41a48.45,48.45,0,0,0-7.34,3.42c-1.29.78-2.6,1.53-3.85,2.39A42.61,42.61,0,0,0,2.82,539a14.35,14.35,0,0,0-1.74,2.21,10.72,10.72,0,0,0-.77,1.73A6.88,6.88,0,0,0,0,544.66a5.07,5.07,0,0,0,1.41,3.72A10.53,10.53,0,0,0,5.6,551c1.14.48,2.29.93,3.46,1.33a24.23,24.23,0,0,0,5.56.94c2.92.27,5.89.25,8.82.27a78.61,78.61,0,0,0,8.54-.39c3-.3,5.92-.84,8.87-1.28,1.15-.14,2.3-.29,3.45-.46s2.34-.45,3.51-.7c2.28-.48,4.56-1,6.86-1.39h0l.81-.09a4.19,4.19,0,0,0,2.75-1.13,3.87,3.87,0,0,0,0-5.49,3.75,3.75,0,0,0-2.75-1.14c-1.61.18-3.22.39-4.82.73l-3.51.73c-1.14.24-2.27.49-3.41.72s-2.24.4-3.37.55l.34,0c-2.4.33-4.79.75-7.19,1.09a73.63,73.63,0,0,1-9.62.6c-3.52,0-7-.06-10.53-.37-.43-.06-.85-.14-1.28-.22a15.1,15.1,0,0,1-1.76-.58c-.58-.2-1.14-.42-1.7-.65.47-.46.95-.91,1.44-1.34.82-.74,1.66-1.44,2.52-2.13a53.35,53.35,0,0,1,8.23-4.65,123.11,123.11,0,0,1,16-5.07c2.58-.66,5.21-1.15,7.83-1.65s5.4-1,8.11-1.38c2.29-.28,4.57-.58,6.87-.76,2.85-.22,5.7-.39,8.55-.56,2.5-.16,5-.32,7.5-.41,2.8-.11,5.58-.15,8.38-.14h16.16c5.29,0,10.58,0,15.87-.25s10.45.15,15.67.41,10.22.79,15.33,1.12c3.3.22,6.61.23,9.93.22.11.82.25,1.65.41,2.47a18.81,18.81,0,0,0,1.42,4.06,12,12,0,0,0,3.08,4.19,19.26,19.26,0,0,0,4.27,2.9c1.35.63,2.72,1.23,4.12,1.74a20.83,20.83,0,0,0,4.29.81,67.63,67.63,0,0,0,7.79.4q7.78.06,15.56-.27c5.2-.21,10.41-.09,15.62-.18,2.53,0,5.06-.09,7.58-.35a65.64,65.64,0,0,1,7-.31h23.58c7.91,0,15.82,0,23.73-.11,2.61,0,5.22-.16,7.82-.23s5.46,0,8.18,0q3.84,0,7.66.15c2.47.09,4.92.31,7.38.51,2.65.22,5.32.33,8,.47s5,.29,7.55.48c5.34.39,10.69.68,16,1.21,5.48.54,11,.9,16.45,1.4,2.79.26,5.57.66,8.35,1,2.58.3,5.16.59,7.74.85,5.37.53,10.76.74,16.15.85,2.74,0,5.49,0,8.23.18s5.15.41,7.73.75,5.12.58,7.69.73,5.07.37,7.6.48c2.74.11,5.47.17,8.2.38,2.52.19,5,.47,7.56.68a125.88,125.88,0,0,0,15.66,0c5.35-.2,10.71-.07,16.05-.38s10.86.07,15.95-1.78a113.76,113.76,0,0,0,14.92-6.88c2.15-1.16,4.26-2.4,6.39-3.59a25.41,25.41,0,0,0,2.83-1.84,38.26,38.26,0,0,0,3.41-2.68,18.49,18.49,0,0,0,3.74-5,55.84,55.84,0,0,0,2.64-6.1c.81-2.18,1.46-4.43,2.05-6.68a41.18,41.18,0,0,0,1.22-7.31,62.42,62.42,0,0,0-.13-7.49c-.13-2.41-.32-4.84-.52-7.25a63.56,63.56,0,0,0-1.09-7.24q-.61-3.11-1.3-6.2c-.24-1-.59-2.05-.9-3.07s-.6-2.2-.85-3.32c-.5-2.2-1.15-4.36-1.84-6.51s-1.59-4.28-2.38-6.41a62.79,62.79,0,0,0-3.36-7.43c-1.05-2-2.25-3.87-3.34-5.83s-2.12-3.82-3-5.83l.12.3c-.95-2.23-2-4.41-3.11-6.57-.57-1.08-1.2-2.14-1.73-3.24s-.94-2-1.42-3.07q-1.6-3.45-3.27-6.89c-1.14-2.35-2.1-4.78-3.13-7.18.14.31.27.62.4.93-2-4.87-3.78-9.85-5.35-14.89a61.31,61.31,0,0,1-1.78-7.46c-.46-2.57-1-5.11-1.45-7.68-.48-3.81-.85-7.63-1.34-11.43-.55-4.18-1.25-8.31-2-12.45-.45-3.68-.72-7.37-1.07-11.06S474,345.7,474,342c0-8.35-.09-16.75.92-25.06a41.75,41.75,0,0,1,1.68-6.1A3.94,3.94,0,0,0,473.9,306a3.77,3.77,0,0,0-1-.14,4,4,0,0,0-3.78,2.88ZM189.63,513.89a17.83,17.83,0,0,1,3.13.83,7.88,7.88,0,0,1,1,.58,16.88,16.88,0,0,1,1.3,1.24l.06.1-.15.08a26.64,26.64,0,0,1-3.85.82c-1.32.22-2.64.39-4,.57s-2.8.43-4.19.64c-2.21.23-4.42.43-6.63.56-2.49.15-5,.14-7.49.15h-1.65q.53-.45,1.05-.87a19.77,19.77,0,0,1,3.49-2,30.66,30.66,0,0,1,6.9-1.94l-.37.05,3.7-.52a36.17,36.17,0,0,1,7.64-.31Zm-21.89,18.63.15.11.11.09-.26-.2Zm313.34,9.78-.7.3.7-.3ZM34.14,545.16l-.3,0,.3,0Zm152.59-27,.45-.06h.08l-.53.07Zm.53-.07.51-.07-.51.07Z" fill="#110802"/>
        <path d="M536.67,48.11c-1.82,3.33-3.62,6.67-5.34,10.06-1.42,2.78-2.82,5.57-4.23,8.37a4.13,4.13,0,0,0-.4,3.08,4,4,0,0,0,7.3.95c3.17-6.16,6.29-12.33,9.61-18.4a4.07,4.07,0,0,0-1.44-5.5,4,4,0,0,0-5.5,1.44Z" fill="#110802"/>
        <path d="M547.21,62.77a4.32,4.32,0,0,0-2.45,1.89c-3.8,5.65-7.68,11.25-11.56,16.84C530,86.17,527,91.07,524,95.89a4.07,4.07,0,0,0,7,4.1c3-4.8,6-9.68,9.24-14.35,3.88-5.59,7.77-11.19,11.57-16.84a4.11,4.11,0,0,0-3.55-6.17,4.46,4.46,0,0,0-1.09.14Z" fill="#110802"/>
        <path d="M547.82,88.54q-9.66,11.88-19.7,23.44-8.42,9.72-16.87,19.43l-1,1.21a4.14,4.14,0,0,0-1.18,2.82,4,4,0,0,0,6.83,2.83c12-13.59,23.94-27.17,35.38-41.2l2.29-2.82a4.28,4.28,0,0,0,1.18-2.86,4,4,0,0,0-4-4,3.87,3.87,0,0,0-2.86,1.18Z" fill="#110802"/>
        <path d="M553.51,108.52a4.44,4.44,0,0,0-2.45,1.89c-1.28,1.7-2.58,3.39-3.87,5.08-3.23,3.67-6.54,7.28-10,10.71-3.87,3.8-7.79,7.56-11.84,11.17a4.08,4.08,0,0,0,2.88,7,4.27,4.27,0,0,0,2.89-1.19c4.61-4.09,9.12-8.34,13.43-12.75,2.09-2.14,4.21-4.29,6.18-6.54,1.14-1.29,2.27-2.57,3.32-3.94,1.37-1.78,2.75-3.57,4.1-5.38a3.91,3.91,0,0,0,.42-3.15,4.1,4.1,0,0,0-3.95-3,4.32,4.32,0,0,0-1.08.14Z" fill="#110802"/>
        <path d="M530.31,168c-4.61,4-9.2,8-13.87,11.9-3.76,3.16-7.68,6.15-11.33,9.43a3.89,3.89,0,0,0,2.75,6.64,4,4,0,0,0,2.75-1.14c3.58-3.19,7.4-6.09,11.08-9.17,4.76-4,9.45-8.07,14.16-12.12a3.92,3.92,0,0,0-2.77-6.69,4.1,4.1,0,0,0-2.77,1.15Z" fill="#110802"/>
        <path d="M515.41,201.42c-3.09,3-6.21,6-9.43,8.89-2.77,2.49-5.52,5-8.4,7.38a3.72,3.72,0,0,0-1.13,2.72,3.84,3.84,0,0,0,3.85,3.84,4.08,4.08,0,0,0,2.71-1.12c2.88-2.37,5.63-4.89,8.41-7.38,3.22-2.88,6.33-5.87,9.43-8.89a3.88,3.88,0,0,0,0-5.44,3.81,3.81,0,0,0-2.7-1.1,4,4,0,0,0-2.74,1.1Z" fill="#110802"/>
      </g>
    </g>
  </g>
</svg>