<svg xmlns="http://www.w3.org/2000/svg" viewBox="0 0 214.64 588.91">
  <title>Asset 4</title>
  <g id="Layer_2" data-name="Layer 2">
    <g id="Draw_Layer" data-name="Draw Layer">
      <g>
        <path d="M93.7,262.51l-.06.07-.33,0,0,0a13.89,13.89,0,0,0-1.83.42,5.31,5.31,0,0,0-.81.34,5.15,5.15,0,0,0-1,.16c-1.15.17-2.3.35-3.45.56-.47.08-1,.22-1.42.35s-.72.24-1.14.39a12.75,12.75,0,0,0-1.68.77,14.93,14.93,0,0,0-1.32,1.06,10.83,10.83,0,0,0-1.51,1.92,11.53,11.53,0,0,0-.95,1.68A9.92,9.92,0,0,0,77,274.78a6.31,6.31,0,0,0,.83,2.89A14,14,0,0,0,79,279.2l.38.36c.43.34.86.68,1.3,1s1,.61,1.52.89a23.51,23.51,0,0,0,5,1.89,26.74,26.74,0,0,0,3.07.57l0,0,.88.11h.21a7.9,7.9,0,0,0,1.17.07,25,25,0,0,0,2.76-.21l.2,0c1.41-.16,2.76-.36,4-.61l.38-.07.16,0h0l0,0,0,0c.82-.15,1.64-.31,2.45-.53a30,30,0,0,0,3.88-1.42,14.31,14.31,0,0,0,3.49-2.26,8.65,8.65,0,0,0,2.23-3.61,5.64,5.64,0,0,0,.24-2,7.41,7.41,0,0,0-.9-3,8.11,8.11,0,0,0-2.43-2.62c-.58-.47-1.2-1-1.83-1.37a26.17,26.17,0,0,0-3.13-1.8,20.35,20.35,0,0,0-8.27-2.16h-.32a15.87,15.87,0,0,0-1.82.11Zm1.24,8.34-.19,0,.19,0Zm-3.48,4.53a27.2,27.2,0,0,1-4.18-1.07c-.4-.19-.8-.39-1.2-.63.16-.28.32-.54.5-.82a32.06,32.06,0,0,1,4.94-1l.4-.07a2.93,2.93,0,0,0,1.3-.58c.16,0,.31-.05.46-.09a6.09,6.09,0,0,1,.61-.17c.34,0,.67,0,1,0s.72,0,1.08,0a21.83,21.83,0,0,1,3.56,1,18.3,18.3,0,0,1,2.5,1.41l.31.2h0l-.1,0-.09.05a34.13,34.13,0,0,1-6.5,1.51,27.16,27.16,0,0,1-3.39.26c-.4,0-.81,0-1.21-.05Zm-6.58-2.64.17.21a1.73,1.73,0,0,1-.17-.21Zm19.45,2.18.06.14-.06-.14ZM85.58,275l0,.2,0-.2Z" fill="#110802"/>
        <path d="M97.72,276.69a4.44,4.44,0,0,0,1.58,6l.71.46h0l0,0,.32.21c.94.77,1.87,1.59,2.77,2.39l.29.25,1.69,1.48c1,.9,1.77,1.56,2.35,2.16l.39.38h0l0,0h0l0,0-4.08.14c-2.61.06-5.43.27-8.89.66l-2.41.24-.59.06c-2.08.19-4.94.46-7.57.95-1.1.2-2.22.46-3.4.73l-.28.07-.43.1c-1.13.28-2.18.49-3.14.64l-.45.08h0l.12-.32a26.91,26.91,0,0,1,2.23-3.6c.25-.3.49-.6.75-.89a7.35,7.35,0,0,1,.93-.85,16,16,0,0,1,1.91-1.23A44,44,0,0,1,87,285.7l1-.24a4,4,0,0,0,2.27-1.58h0a4.33,4.33,0,0,0,.63-3.53,4.24,4.24,0,0,0-5.14-2.92c-1.63.38-3.25.76-4.87,1.2a16.35,16.35,0,0,0-6.15,3.5,19.34,19.34,0,0,0-2.66,3c-.44.58-.92,1.16-1.32,1.79a23.52,23.52,0,0,0-2.29,4.5c-.83,2.27-1.67,4.89-.72,7.23A5.54,5.54,0,0,0,70,301.58a8,8,0,0,0,3.29,1,18.22,18.22,0,0,0,4.94-.37c3-.53,6-1.31,9-1.88,1.83-.23,3.67-.41,5.5-.6,2-.22,4.08-.46,6.12-.62,4.18-.32,8.38-.29,12.56-.67,2.27-.2,4.75-.27,6.34-2.16A5.42,5.42,0,0,0,119,293.9a6,6,0,0,0,0-2.8,10.41,10.41,0,0,0-1.34-3,27,27,0,0,0-4.4-5c-1.37-1.26-2.8-2.46-4.16-3.73a28.67,28.67,0,0,0-5.32-4.26,4.47,4.47,0,0,0-2.2-.58,4.4,4.4,0,0,0-3.8,2.15Z" fill="#110802"/>
        <path d="M94.63,0c-4.85.1-9.72.3-14.54.87-2.8.33-5.65.58-8.42,1.12a51.67,51.67,0,0,0-9.84,2.6C59.22,5.69,56.63,6.83,54,8a30.81,30.81,0,0,0-2.77,1.35,30.19,30.19,0,0,0-3.57,2.57,81.55,81.55,0,0,0-10.82,9.77c-1.8,2-3.59,4.1-5.25,6.25l-2.77,3.61c-.8,1-1.5,2.18-2.23,3.27a120.6,120.6,0,0,0-7.31,12.47c-1.25,2.42-2.48,4.84-3.69,7.28s-2.23,4.76-3.3,7.16C11.16,64.31,10.11,67,9,69.62c-1,2.4-1.8,4.84-2.67,7.28C5.58,79.14,5,81.45,4.31,83.73c-.35,1.21-.64,2.44-1,3.66-.28,1-.59,2.08-.82,3.14C2,93.1,1.38,95.65,1,98.26c-.22,1.54-.56,3.12-.67,4.68s-.19,2.92-.3,4.39c-.08,1.19,0,2.41,0,3.61l0,3.19c0,2.62.06,5.23.11,7.85.1,5.28.26,10.54.66,15.8a148.71,148.71,0,0,0,1.92,15.3c.56,3.16,1.15,6.33,1.89,9.46a57.82,57.82,0,0,0,1.91,5.8c.38,1.06.76,2.13,1.17,3.19,2,5.17,4,10.3,6.4,15.28q1.76,3.63,3.58,7.21c1.23,2.42,2.55,4.76,3.89,7.12s2.71,4.39,4.08,6.57S28.58,212,30,214.06,33,218,34.41,219.89c1.62,2.16,3.34,4.25,5,6.37s3.25,3.87,4.88,5.79c1.76,2.08,3.62,4.08,5.43,6.12s3.57,3.69,5.35,5.52c.67.69,1.4,1.33,2.1,2,1,.92,1.92,1.88,2.93,2.76,2,1.77,4.06,3.54,6.14,5.25,2.26,1.86,4.55,3.67,6.84,5.49s4.65,3.5,7,5.24c1,.7,2,1.3,3,1.94,1.58,1,3.17,2.06,4.79,3a4.49,4.49,0,0,0,5.44-.76,4,4,0,0,0,.42.49,4.68,4.68,0,0,0,2.07,1.21,4.57,4.57,0,0,0,3.61-.47c.69-.5,1.39-1,2-1.56.45-.4.9-.81,1.37-1.18a21.08,21.08,0,0,0,3.08-3.25c2.11-2.5,4.06-5.13,6-7.73,1-1.25,2-2.47,3-3.73l.11-.14h0l0,0v0h0l0,0,0,0,0-.05,0,.05c.19-.23.37-.47.55-.71l-.33.43c.59-.78,1.19-1.56,1.77-2.34,1.61-2,3.29-4,4.89-6.08a1.47,1.47,0,0,0-.1.13l.13-.17c.22-.27.43-.55.64-.83l-.24.31a265.38,265.38,0,0,0,15.27-23c2.56-4.18,5.17-8.33,7.79-12.48,1.33-2.11,2.65-4.22,3.94-6.36.59-1,1.11-2,1.66-3l2-3.62c2.43-4.54,4.69-9.15,6.87-13.82,1-2.25,2.06-4.53,3.1-6.78.95-2,2-4,2.89-6.09,2.13-4.67,4-9.45,5.74-14.28,1.68-4.67,3.37-9.35,4.72-14.12a59.43,59.43,0,0,0,1.29-7c.39-2.54.74-5.1,1.1-7.64.38-2.71.7-5.44,1-8.16a68.08,68.08,0,0,0,.54-7c.15-5.07.06-10.16-.05-15.24s-.31-10.12-.87-15.16c-.36-3.23-.73-6.45-1.15-9.68-.36-2.53-.82-5-1.28-7.55-.44-2.36-1.07-4.66-1.68-7a69.07,69.07,0,0,0-2-6.86A57.36,57.36,0,0,0,169.9,41c-1.05-1.89-2.29-3.7-3.48-5.5q-2.1-3.19-4.31-6.31a75.91,75.91,0,0,0-5-6.15,43.93,43.93,0,0,0-4.61-4.74c-2-1.71-4.07-3.28-6.18-4.82-1.83-1.34-3.65-2.68-5.5-4-.63-.44-1.29-.86-1.93-1.28a18.74,18.74,0,0,0-3.76-1.78c-1.19-.45-2.39-.82-3.6-1.17-2.18-.64-4.37-1.23-6.58-1.74-2.43-.54-4.86-1-7.31-1.52-2.79-.55-5.6-1-8.43-1.33A86.67,86.67,0,0,0,97.82,0c-1.07,0-2.13,0-3.19,0ZM53,19.36l.43-.33a22.64,22.64,0,0,1,4.36-2.64c1.82-.84,3.65-1.62,5.2-2.27,1.22-.51,2.12-.87,2.93-1.16A34.19,34.19,0,0,1,70,11.83c.43-.09.86-.2,1.29-.3,1.88-.43,3.76-.72,5.84-1,2.57-.29,5.31-.6,8.16-.82s5.36-.28,9.27-.42c1.2,0,2.39,0,3.59,0,1.69,0,3.32,0,5,.14,2.49.15,5,.4,8,.77,3.52.65,7.34,1.36,11.35,2.25a77.6,77.6,0,0,1,10.34,3,38.48,38.48,0,0,1,5.31,3.49l.43.32L143,22.44a49,49,0,0,1,4.75,4.15c1.8,1.86,3.53,3.9,5.2,5.88l.08.09.09.11c1.88,2.53,3.7,5.19,5.89,8.63l.69,1.08.08.11c.64,1,1.38,2.12,2,3.27.74,1.34,1.43,2.75,2.11,4.3a62.86,62.86,0,0,1,2.47,8.23l.51,2c.83,3.1,1.36,6.33,1.88,9.45l.23,1.41c.6,4.6,1,8.45,1.32,12.1.36,4.56.43,8.93.48,13V97.7c.05,4,.09,8,0,12.25-.13,3.5-.61,7.13-1,10.42l0,.12-.24,1.88-.13.87c-.33,2.3-.83,5.76-1.34,8.94l-.06.35,0,.14a35.1,35.1,0,0,1-.86,4.13c-.62,2.18-1.11,3.79-1.6,5.21-1,3.05-2.16,6.25-3.35,9.54l-.08.21c-.94,2.66-2,5.47-3.58,9.11-1,2.33-2.1,4.66-3.23,7l-.08.16-.13.28c-.76,1.61-1.52,3.22-2.26,4.83-2.06,4.57-4.37,9.32-6.85,14.14-1.82,3.56-4.28,8.23-7.17,12.77L136.84,203l-.13.21c-2,3.15-3.9,6.13-5.77,9.19-2.88,4.76-5.46,8.87-7.88,12.59l-.12.18c-2.31,3.56-4.92,7.59-7.8,11.38l-.13.17-.58.75q-1.35,1.71-2.73,3.39c-.84,1-2.57,3.14-4.06,5.13l-.1.12c-.39.49-.78,1-1.18,1.45l-.25.32-.26.31-.29.35-.44.55c-.78,1-1.53,2-2.1,2.77l-.07.1-.7.94-1.06,1.34c-1.2,1.51-2.41,3-3.65,4.53a11.09,11.09,0,0,1-1.49,1.39c-.24.2-.49.4-.72.61a13.21,13.21,0,0,0-1.69,1.86h0l-.1.12-.1-.11h-.08a4.46,4.46,0,0,0-1-.84c-2.2-1.3-4.5-2.81-6-3.81l-.12-.08-1.49-1c-.55-.35-1.1-.76-1.61-1.16l-.1-.08-.12-.09-.21-.16-.15-.12-.11-.08-.34-.26-1.87-1.4-1.09-.8-.81-.65-.09-.07-.22-.17c-2.73-2.17-5.56-4.41-8.24-6.76-4.11-3.61-7.4-6.71-10.35-9.74-3.55-3.66-6.37-6.75-8.86-9.7l-2.38-2.84L45.75,220c-1-1.19-1.91-2.37-2.84-3.58l-.07-.08-.85-1.1c-1.24-1.66-2.49-3.31-3.73-5-.84-1.13-1.67-2.35-2.43-3.5l-1.08-1.59c-2.2-3.18-4.23-6.41-6-9.61-2.12-3.73-3.93-7.17-5.54-10.53-.28-.58-.56-1.15-.85-1.73l-.08-.15-.08-.16c-.6-1.2-1.18-2.39-1.68-3.58l-1.17-2.76-1.17-2.79L15.93,168a66.89,66.89,0,0,1-3-9.56c-.93-4.13-1.58-8.21-2.28-12.73l-.27-2.27-.27-2.28-.06-.46c-.14-1.24-.23-2.53-.3-3.71l0-.16c0-.55-.07-1.11-.11-1.67-.25-3.44-.34-6.7-.4-9.72q-.12-6-.19-12.08c0-1.77,0-3.54,0-5.31,0-1.15.09-2.29.19-3.5l0-.22,0-.34.06-.86.2-1.4.26-1.81.15-1c.17-1.13.43-2.25.68-3.29l.05-.22.27-1.15c.53-2.54,1.25-5.32,2.19-8.48L13.91,83l.82-2.79c.29-1,.67-2,1.09-3.16l0-.1c.2-.54.41-1.09.6-1.64.8-2.27,1.82-4.72,2.56-6.5l.62-1.51.7-1.59C21.08,64,22,62,22.86,60.18c1.48-3,3-6,4.58-9,1.2-2.32,2.5-4.62,3.87-6.83.25-.4.49-.81.73-1.22.54-.89,1.11-1.84,1.7-2.71L35.44,38l.58-.76,0,0,.39-.57-.08.08,0,0c-.14.17-.27.35-.4.52.12-.17.25-.33.38-.49l-.37.44.19-.25-.18.2.14-.19L36,37a122.48,122.48,0,0,1,7.83-9.42,72,72,0,0,1,7-6.49L51,21c.53-.43,1.07-.87,1.62-1.3h0l-.1.06,0,0-.07,0,0,0h0l.54-.42Zm63.89,230.47-.42.53.42-.53Z" fill="#110802"/>
        <path d="M64.63,21.78a13.59,13.59,0,0,0-2.27.71h0a3.94,3.94,0,0,0-.81-.07,3.41,3.41,0,0,0-1.91.52c-2.71,1.92-5.07,3.71-7.19,5.47s-4.25,3.5-6.19,5.38c-.94.9-1.83,1.86-2.5,2.59l-.53.56-.27.28-.09.1c-.56.58-1.2,1.26-1.77,2C39.24,41.49,37.31,44,36,45.74l-.46.6c-.94,1.2-2.33,3-3.63,4.85-.49.71-.93,1.45-1.39,2.23l-.11.19-.08.14-.21.35-.12.22c-.45.78-.92,1.6-1.3,2.42-.93,2-1.85,4.09-2.74,6.15l-.65,1.49c-.77,1.75-1.52,3.47-2.17,5.21l0,.1c-.35,1-.69,1.9-1,2.86a26.1,26.1,0,0,0-.8,3.19A54.62,54.62,0,0,0,20,83a17.87,17.87,0,0,0,.37,6,7.94,7.94,0,0,0,2.38,4.17,6,6,0,0,0,4.05,1.55,5.18,5.18,0,0,0,1.36-.16c3.41-.74,5.51-3.92,7.19-6.47l.83-1.28.22-.33.15-.24.13-.19c1-1.47,2-3.14,3.16-4.69.9-1.25,1.82-2.49,2.74-3.73l.22-.31.48-.64.45-.62.15-.19,1-1.33c.9-1.23,1.8-2.48,2.69-3.72l.88-1.22,1.39-1.94,1.35-1.87.39-.52q1.3-1.86,2.65-3.68a83,83,0,0,1,7.86-9c1.81-1.72,3.71-3.45,5.39-5l.18-.17.78-.71.36-.33c.91-.84,1.83-1.67,2.73-2.52,1.54-1.42,3.22-2.92,5-4.44a40.66,40.66,0,0,0,4.37-4.2,22.48,22.48,0,0,0,1.54-2,9.13,9.13,0,0,0,.74-1.58c.06-.16.12-.33.19-.49a7.57,7.57,0,0,0,.06-4.09,5.37,5.37,0,0,0-1.33-2.28,12.43,12.43,0,0,0-1.79-1.42l-.61-.28A17.67,17.67,0,0,0,78,22.41c-.3-.11-.62-.2-.93-.29a28.21,28.21,0,0,0-6.63-1H70a27.44,27.44,0,0,0-5.35.67Zm-.46,9.63c.29-.17.59-.32.89-.47A22.55,22.55,0,0,1,68.65,30c.69-.06,1.37-.09,2-.09s1.16,0,1.75.06.94.17,1.32.27l.18,0h0c-1.12,1.14-2.31,2.16-3.33,3-1.75,1.44-3.34,2.83-4.87,4.24l-3.31,3-.78.72c-1.87,1.69-3.73,3.37-5.57,5.08A81.39,81.39,0,0,0,47.65,56c-1,1.26-1.91,2.55-2.85,3.88l-.21.29c-.33.46-.66.93-1,1.39L42.51,63l-.4.55-2.17,3L39,68l-.24.34c-.79,1.12-1.59,2.23-2.4,3.34l-1,1.31c-.85,1.15-1.7,2.31-2.53,3.48-1,1.47-2,3-2.9,4.37l-.09.14c-.39.6-.79,1.21-1.2,1.8l-.3.46v0s0,0,0,0c0-.41.07-.82.12-1.24.4-2.49.86-4.69,1.39-6.72a40.89,40.89,0,0,1,2-5.56l.18-.42c.85-2,1.7-4,2.56-6a65.39,65.39,0,0,1,3.3-6.46,49.88,49.88,0,0,1,3.62-5.24l.11-.15c1.34-1.76,2.69-3.53,4-5.27l-.09.08.41-.49a88.15,88.15,0,0,1,6.71-7.27c2.37-2.25,4.89-4.29,7.72-6.53l.27-.19A4.64,4.64,0,0,0,62,32a4.44,4.44,0,0,0,2.2-.58ZM28.74,87.33l.26.35c-.09-.11-.18-.23-.26-.35Z" fill="#110802"/>
        <path d="M99.19,461.35a10.82,10.82,0,0,0-2.32.39,8.32,8.32,0,0,0-2.73,1.36,9,9,0,0,0-3,3.46,12.52,12.52,0,0,0-1.08,4.21A26.46,26.46,0,0,0,90,474a67.52,67.52,0,0,0,.84,7.23,66.56,66.56,0,0,0,1.26,6.68c.41,1.7.93,3.37,1.48,5,.73,2.15,1.4,4.33,2.23,6.45l1.74,4.49c.46,1.17.87,2.36,1.4,3.51,1.2,2.61,2.4,5.24,3.67,7.83a4.07,4.07,0,0,0,5.56,1.45,2,2,0,0,0,.39-.26,4.37,4.37,0,0,0,3.67-1.19c1.64-1.58,3.41-3,5.17-4.48s3.24-2.67,4.85-4,3.43-2.78,5-4.29l2.51-2.36a37.38,37.38,0,0,0,5.91-7.35c.7-1.12,1.36-2.24,2-3.4a11,11,0,0,0,1.44-4.43,9.09,9.09,0,0,0-.14-2.07,6.11,6.11,0,0,0-.71-2.12,9,9,0,0,0-3.36-3.34c-2.25-1.17-4.76-.68-7,.2a32.21,32.21,0,0,0-3.58,1.66,37,37,0,0,0-3.25,2,29.08,29.08,0,0,0-4.73,4.2,46.63,46.63,0,0,0-4.39,5.42l0,.07c.08-2.86.11-5.73,0-8.6-.06-1.61-.16-3.2-.35-4.8s-.41-3-.7-4.51a20.17,20.17,0,0,0-1.57-4.54,14.21,14.21,0,0,0-2.44-3.28,18.25,18.25,0,0,0-3.15-2.8l-.94-.4a4.22,4.22,0,0,0-1.24-.37,10.41,10.41,0,0,0-2.16-.21Zm.61,7.93h0a25.52,25.52,0,0,1,2,2.07c.25.39.48.77.69,1.18a25.64,25.64,0,0,1,1.11,4.83,100.28,100.28,0,0,1,.12,17c0,.89-.09,1.77-.14,2.66-.35-1-.7-1.94-1-2.92-.85-2.53-1.72-5.05-2.42-7.64a73.79,73.79,0,0,1-1.65-8.73,37.49,37.49,0,0,1-.37-6.61c.08-.38.17-.75.29-1.13l0-.06c.11-.12.23-.23.35-.34a1.37,1.37,0,0,1,.2-.13l.62-.17Zm.3,0,.34,0-.34,0Zm.18.12.34.14-.34-.14Zm-1.78.33h0l-.06.05h0l.06,0Zm-.08.06h0l-.24.19.24-.19Zm-.2.47c0,.12-.1.23-.14.34,0-.11.09-.23.14-.34Zm34.06,14.52.16,0-.16,0Zm-1.81.49a38.92,38.92,0,0,1-3.35,5.31c-3.37,4.09-7.57,7.4-11.65,10.76l-.3.25c.37-.7.79-1.38,1.17-2.06,1-1.76,2.11-3.4,3.24-5.05a40.47,40.47,0,0,1,5.62-6.15,34.12,34.12,0,0,1,5.27-3.06Z" fill="#110802"/>
        <path d="M91.56,295.55a4,4,0,0,0-1.19,2.87q.82,8.07,1.58,16.15c.39,4.21.84,8.44,1.11,12.66q.45,6.93,1.16,13.82c.21,2.12.59,4.23.8,6.36s.51,4.52.67,6.8c.33,4.75.52,9.49.63,14.25.11,4.41.09,8.82.24,13.22s.33,8.89.42,13.33c.09,4.63.12,9.26.18,13.89.06,5.59.36,11.18.51,16.77.07,2.61.17,5.22.41,7.82s.54,5.41.9,8.1c.51,4.55.83,9.12,1.37,13.65.56,4.7,1.58,9.33,2.33,14,.34,2.69.69,5.38.94,8.08.31,3.24.48,6.48.58,9.73.1,3.06.14,6.12.14,9.18,0,3.22-.07,6.45,0,9.67a4.33,4.33,0,1,0,8.65,0c-.35-8.37-.09-16.76-.7-25.13-.15-2.11-.37-4.21-.62-6.31-.28-2.41-.5-4.84-.88-7.25-.61-3.93-1.4-7.83-2-11.76-.62-5.33-1-10.67-1.71-16-.52-4.43-.92-8.85-1-13.3s-.32-8.94-.47-13.41-.14-9.08-.2-13.62-.23-9.21-.39-13.81q-.22-6.33-.34-12.65-.11-7.05-.42-14.08c-.19-4.36-.67-8.74-1.23-13.07-.63-4.8-1.12-9.61-1.51-14.43-.18-2.38-.32-4.76-.51-7.14-.23-2.67-.51-5.34-.75-8q-.8-8.77-1.71-17.54a4.34,4.34,0,0,0-1.19-2.87,4.08,4.08,0,0,0-5.74,0Z" fill="#110802"/>
        <path d="M52.88,483.42a4,4,0,0,0-2.77,4.88,3.84,3.84,0,0,0,1.82,2.37c2.61,1.24,5.2,2.52,7.75,3.86v0h0c1.92,1,3.67,2,5.35,3,2.11,1.26,4.24,2.5,6.37,3.74,1.44.84,3,1.65,4.23,2.31l1.63.87c1.9,1,3.82,2.1,5.67,3.15l.43.25.7.39c1.37.78,2.74,1.56,4.13,2.32l3,1.65,1.5.82.48.26c2.25,1.23,4.5,2.45,6.73,3.7l2.18,1.21.18.09c3,1.68,6.18,3.42,9.19,5.27,4,2.45,7.64,4.67,11.37,6.86l3.12,1.82.53.32c2.46,1.44,5,2.92,7.5,4.34,2,1.11,3.95,2.19,5.93,3.29s3.8,2.26,5.58,3.4c4.34,2.77,8.62,5.67,12.76,8.48l1.31.88c1.47,1,3,2,4.52,2.92l1.63,1c.94.6,1.89,1.16,2.84,1.71l.27.16c.57.33,1.14.67,1.7,1,.23.14.46.28.68.43a4.26,4.26,0,0,0,5.57,1.22,4.33,4.33,0,0,0,2.23-3.83,4.92,4.92,0,0,0-2.48-4c-.87-.59-1.79-1.11-2.7-1.64-1.64-1-3.25-1.94-4.86-2.95-3.32-2.1-6.58-4.28-9.84-6.47-3.6-2.41-7.21-4.85-10.91-7.11q-2.82-1.73-5.71-3.3c-1.91-1.05-3.82-2.08-5.7-3.16-3.8-2.18-7.58-4.37-11.37-6.56s-7.38-4.41-11.09-6.59c-7.56-4.46-15.43-8.39-23.08-12.69-2.88-1.62-5.75-3.25-8.66-4.82-2.6-1.4-5.24-2.74-7.81-4.22-3-1.72-5.91-3.47-8.9-5.15-3.25-1.83-6.61-3.46-10-5.07a4.76,4.76,0,0,0-2.07-.54,3.87,3.87,0,0,0-1,.14Z" fill="#110802"/>
        <path d="M173.24,557c-.87.94-1.73,1.87-2.59,2.82h0l-2.08,2.28-1.32,1.47-.6.65-.36.39c-.41.46-.83.91-1.24,1.38a26.81,26.81,0,0,0-1.85,2.42l-.25.33-.41.58c-1.18,1.48-2.52,2.91-3.69,4.17-.67.72-1.33,1.44-2,2.17-.85,1-1.74,1.9-2.67,2.8h0q-1.75,1.72-3.64,3.32a4,4,0,0,0-1.22,2.94,4.15,4.15,0,0,0,4.15,4.15l1.11-.15a4.13,4.13,0,0,0,1.83-1.06,43.31,43.31,0,0,0,3.89-3.53c1.25-1.24,2.38-2.59,3.56-3.89s2.64-2.86,3.91-4.33c1.12-1.29,2.05-2.72,3.06-4.09s2.18-2.44,3.26-3.65c1.61-1.82,3.25-3.61,4.9-5.38a4.08,4.08,0,0,0-2.94-7,3.87,3.87,0,0,0-2.85,1.18Z" fill="#110802"/>
        <path d="M35.43,509.61a4.07,4.07,0,0,0-2.85,5l.41,1a4.11,4.11,0,0,0,1.47,1.46,132.61,132.61,0,0,0,11.47,7.4c1.72,1.06,3.42,2.17,5.18,3.16s3.75,2.08,5.63,3.12c3.76,2.1,7.41,4.41,11.19,6.49s7.86,4.16,11.75,6.34,7.52,4.49,11.25,6.76,7.63,4.55,11.56,6.64c1.8,1,3.66,1.86,5.44,2.87s3.85,2.18,5.7,3.4c3.49,2.3,7,4.53,10.59,6.66,1.77,1.05,3.55,2.1,5.34,3.13s3.58,1.92,5.25,3.05,3.75,2.24,5.64,3.34a56,56,0,0,1,5.25,3.4l-.58-.44a53.24,53.24,0,0,0,6.09,4.11,4.15,4.15,0,0,0,6.25-3.58,4,4,0,0,0-1.22-2.94c-.65-.52-1.32-1-2-1.48h0l-1.26-.85c-.68-.46-1.35-.91-2-1.38a57,57,0,0,0-5.07-3.47c-1.13-.69-2.28-1.34-3.42-2l-.31-.17-1.81-1c-.36-.2-.7-.42-1-.65l-.18-.11-.11-.07-1.07-.68L136,567l-.75-.43q-2.47-1.41-4.93-2.85l-.56-.32c-3.86-2.24-7.38-4.43-10.76-6.68a99.36,99.36,0,0,0-11-6.26c-5.74-2.83-11.3-6.21-16.68-9.48l-.13-.09c-2.07-1.25-4.14-2.51-6.21-3.74-2.82-1.67-5.78-3.21-8.64-4.7l-.09,0c-1-.5-1.91-1-2.86-1.5-2.54-1.33-5.12-2.86-7.4-4.21l-.72-.43-3.08-1.8-3.37-1.88-.33-.18-.44-.24-1.68-.94c-1.7-.94-3.39-2-4.87-2.9l-.83-.5-2.75-1.66-.3-.18c-1-.6-2-1.19-3-1.83-2.08-1.28-4.12-2.61-6.07-4.09a3.29,3.29,0,0,0-2-.56,4.23,4.23,0,0,0-1.16.15Z" fill="#110802"/>
        <path d="M50.58,485.49a4.1,4.1,0,0,0,1.09,5.39h0l-.06.3h0a19,19,0,0,1-.57,2.09,14.38,14.38,0,0,1-.87,1.34c-.22.26-.44.52-.69.77l-.34.19a23,23,0,0,1-4.08.94c-.45.06-.87.15-1.31.24l-.83.35-.48.2a3.89,3.89,0,0,0-1.42,1.4l-.15.22a4.71,4.71,0,0,0-.44,3.5c0,.11,0,.21.07.32l0,.11,0,.13c0,.19,0,.37,0,.56a21,21,0,0,1-.54,2.38,17.73,17.73,0,0,1-1,1.61l-.37.4H38c-.34,0-.68,0-1,0h0c-.79,0-1.58-.09-2.36-.13a4.17,4.17,0,0,0,0,8.33,30.79,30.79,0,0,0,5.84,0,6.74,6.74,0,0,0,3.85-2l.14-.13h0a16.49,16.49,0,0,0,1.38-1.72l.07-.1a12.71,12.71,0,0,0,2.41-5.33c.15-.78.26-1.57.39-2.37,2.6-.39,5.54-1.13,7.56-3.63.71-.87,1.3-1.64,1.82-2.35a11.92,11.92,0,0,0,1.66-3.95h0c.06-.24.11-.49.16-.73a9.51,9.51,0,0,0-.06-5.64,7.92,7.92,0,0,0-1.52-2.54,9.42,9.42,0,0,0-2-1.61,4,4,0,0,0-2.05-.56,4.23,4.23,0,0,0-3.64,2.06Zm1.06,4.9,0,.1,0-.1Zm.19.65a2,2,0,0,1,0,.24l0-.24Zm-.13,0c0,.1,0,.21-.05.31,0-.1,0-.21.05-.31ZM39,507.85l-.07.07h0l.08-.07Zm-.52.34,0,0,0,0Z" fill="#110802"/>
        <path d="M7.68,468.83a10.75,10.75,0,0,0-1.38.08,5.51,5.51,0,0,0-2.31.64,8.9,8.9,0,0,0-1.29.92,4.77,4.77,0,0,0-1.12,1.95,4.71,4.71,0,0,0,0,2.3,7.16,7.16,0,0,0,.36,1.17,19,19,0,0,0,1.35,2.94,23.7,23.7,0,0,0,1.59,2.27c1.52,2,3.07,4,4.69,5.87,1.85,2.19,3.88,4.23,5.73,6.42,2,2.38,4,4.77,6,7.2,2.9,3.76,5.75,7.54,8.43,11.46A4.37,4.37,0,0,0,32.2,514a4.18,4.18,0,0,0,4.77-6h0l-.06-.09a198,198,0,0,0-12.95-16.95l-2-2.38-.65-.75-.63-.72c-.43-.5-.88-1-1.33-1.49h0l-1.69-1.82c-1.8-2-3.53-4-5.21-6l2.79.68c2,.52,4,1,6.05,1.53v0h0l1.14.3c1,.26,2.3.62,3.65,1.08s2.67,1,3.89,1.44l.3.12.13.06.52.2.26.11.25.11,1,.44.22.09,2.91,1.26.32.14c.82.36,1.75.77,2.69,1.09.53.18,1.09.32,1.66.46l.3.08c1.1.27,2.19.57,3.28.89.71.2,1.42.46,2.1.71l.12,0,.34.13c1.06.46,2,.92,2.93,1.39l.15.07c.72.37,1.44.74,2.19,1.1h0c.65.3,1.31.59,2,.85a4,4,0,0,0,3.21-.42A4.16,4.16,0,0,0,58.33,486l-.65-.85a4.17,4.17,0,0,0-1.75-1c-1-.44-1.89-.91-2.83-1.38a38.43,38.43,0,0,0-4.35-1.94c-1.39-.49-2.77-.93-4.2-1.33-1.63-.46-3.28-.76-4.87-1.37l-3.5-1.48a4.13,4.13,0,0,0-.75-.32l-1.32-.56a4.35,4.35,0,0,0-.59-.25l-.23-.09c-2-.85-4.07-1.58-6.15-2.26-1.85-.62-3.79-1-5.69-1.48-2.18-.54-4.36-1.08-6.55-1.59a34.44,34.44,0,0,0-7-1.18Z" fill="#110802"/>
        <path d="M16.41,474.22a3.93,3.93,0,0,0-2.46,1.9c-1,2.1-1.62,4.33-2.39,6.52a4.17,4.17,0,0,0,6.12,4.7,4,4,0,0,0,1.62-1.78h0a6.58,6.58,0,0,0,.3-.71c.23-.67.45-1.34.66-2l.1-.3c.28-.88.56-1.76.89-2.64h0c.07-.2.14-.4.22-.6a4.13,4.13,0,0,0-4-5.22,4,4,0,0,0-1.08.15Z" fill="#110802"/>
        <path d="M6.68,474.12a4.18,4.18,0,0,0-.42,3.19,4.32,4.32,0,0,0,1.91,2.47Q10.59,481.43,13,483a4.11,4.11,0,0,0,6-4.64,4.31,4.31,0,0,0-1.88-2.45c-1.61-1.11-3.22-2.22-4.83-3.31a3.48,3.48,0,0,0-2-.59,4.38,4.38,0,0,0-3.69,2.08Z" fill="#110802"/>
        <path d="M58.22,509.68a4,4,0,0,0-.35,3.06,3.57,3.57,0,0,0,1.73,2.2c2.18,1.14,4.32,2.32,6.34,3.51,1.23.71,2.42,1.49,3.57,2.24l1.11.71c3.44,2.21,6.54,4.19,9.7,6.15,4.53,2.82,9,5.91,13.35,8.94,2.16,1.5,4.32,3,6.5,4.48a3.22,3.22,0,0,0,1.82.54,4,4,0,0,0,3.4-1.91,3.9,3.9,0,0,0,.39-2.93,4.09,4.09,0,0,0-1.76-2.29c-1.83-1.25-3.65-2.53-5.46-3.8l-.76-.53-.14-.1c-4.28-3-8.69-6.1-13.19-8.91-3.64-2.26-6.87-4.3-9.88-6.24l-1-.64c-1.09-.71-2.32-1.51-3.55-2.23-2.21-1.28-4.41-2.5-6.56-3.63a4.26,4.26,0,0,0-2-.49,3.78,3.78,0,0,0-3.29,1.87Z" fill="#110802"/>
        <path d="M112.71,541.47a4,4,0,0,0,1.4,5.32c2.64,1.63,5.4,3.19,8.06,4.69l.12.07,1.79,1c3,1.73,6,3.53,8.85,5.35,2.51,1.62,5.18,3.09,7.75,4.52l.17.09,1.13.63.88.49,1,.52a78.11,78.11,0,0,1,7.22,4.31,3.37,3.37,0,0,0,1.9.53,4.61,4.61,0,0,0,1.07-.13,4,4,0,0,0,2.31-1.78,3.9,3.9,0,0,0,.39-3,4.23,4.23,0,0,0-1.77-2.31,77.31,77.31,0,0,0-7.68-4.65l-1.35-.75-1.25-.7c-2.59-1.43-5.26-2.92-7.79-4.55-2.77-1.78-5.66-3.52-8.86-5.33l-1.69-1c-2.74-1.53-5.57-3.12-8.3-4.8a3.58,3.58,0,0,0-1.9-.53,4,4,0,0,0-3.42,1.92Z" fill="#110802"/>
        <path d="M21.24,479.88h0c-.33.88-.61,1.76-.89,2.64l-.1.3c-.21.68-.43,1.35-.66,2a6.58,6.58,0,0,1-.3.71c.45.5.9,1,1.33,1.49l.63.72.64.75c.69.79,1.37,1.59,2.05,2.38a198,198,0,0,1,13,16.95l.06.09,1,0h.71l.37-.41a14.58,14.58,0,0,0,1-1.6,21.13,21.13,0,0,0,.53-2.38,5.24,5.24,0,0,0,0-.56l0-.13,0-.11a2.72,2.72,0,0,1-.07-.33,4.69,4.69,0,0,1,.44-3.49l.15-.22a4,4,0,0,1,1.42-1.4l.48-.2.83-.35c.44-.09.86-.18,1.31-.25a22.18,22.18,0,0,0,4.08-.93l.34-.19c.25-.25.47-.51.69-.77a14.38,14.38,0,0,0,.87-1.34,19,19,0,0,0,.57-2.09c-.75-.36-1.47-.73-2.19-1.1L49.3,490c-.91-.46-1.87-.91-2.93-1.38l-.34-.13-.12,0c-.68-.25-1.39-.51-2.11-.72-1.09-.31-2.17-.61-3.27-.89l-.3-.07c-.57-.14-1.13-.28-1.66-.46-.94-.32-1.87-.73-2.69-1.09l-.32-.14-2.91-1.26-.21-.09-1-.44-.25-.11-.26-.11c-.17-.06-.35-.13-.52-.21l-.13-.05-.3-.12c-1.22-.48-2.53-1-3.89-1.44s-2.66-.82-3.65-1.09l-1.14-.3Z" fill="#ffecc9"/>
        <path d="M59.69,494.51h0A11.76,11.76,0,0,1,58,498.45c-.52.72-1.11,1.49-1.82,2.37-2,2.49-5,3.22-7.56,3.62-.13.8-.24,1.59-.38,2.37a12.87,12.87,0,0,1-2.42,5.33l-.07.1A15.28,15.28,0,0,1,44.39,514c1.07.69,2.14,1.33,3.22,2l.3.18,2.75,1.66.82.5c1.49.92,3.18,2,4.88,2.9l1.68.94.44.24.33.18c1.13.62,2.25,1.25,3.37,1.88l3.08,1.81.72.42c2.28,1.35,4.86,2.88,7.4,4.21.94.51,1.9,1,2.85,1.5l.1,0c2.86,1.49,5.82,3,8.64,4.7,2.08,1.23,4.14,2.49,6.21,3.74l.13.09c5.38,3.27,10.94,6.65,16.67,9.48a100.25,100.25,0,0,1,11,6.26c3.38,2.25,6.91,4.44,10.76,6.68l.56.32q2.46,1.44,4.93,2.85l.75.43,2,1.12c.37.22.72.45,1.07.68l.11.07.18.11c.34.23.68.45,1,.65l1.82,1,.31.17c1.14.65,2.29,1.3,3.42,2a57,57,0,0,1,5.07,3.47c.66.47,1.34.92,2,1.38l1.26.85c.92-.9,1.82-1.84,2.67-2.8.65-.73,1.32-1.45,2-2.17,1.17-1.26,2.5-2.69,3.69-4.17l.41-.58.25-.33a28.41,28.41,0,0,1,1.85-2.43l1.24-1.37.36-.39.6-.65,1.32-1.47,2.08-2.28c-.61-.4-1.22-.76-1.83-1.12l-.27-.16c-.95-.56-1.9-1.11-2.84-1.71l-1.63-1c-1.53-1-3-1.93-4.52-2.92l-1.3-.88c-4.14-2.81-8.43-5.71-12.77-8.48-1.78-1.15-3.63-2.33-5.58-3.4s-4-2.18-5.93-3.29c-2.51-1.42-5-2.9-7.49-4.34l-.54-.32-3.12-1.83c-3.73-2.18-7.35-4.4-11.37-6.86-3-1.84-6.15-3.58-9.2-5.26l-.16-.09L99.94,517c-2.24-1.25-4.5-2.47-6.74-3.7l-.48-.26-1.51-.82-3-1.65c-1.39-.76-2.76-1.54-4.13-2.32l-.7-.39-.43-.25c-1.85-1.05-3.77-2.13-5.67-3.15l-1.63-.87c-1.24-.66-2.79-1.47-4.23-2.31-2.13-1.24-4.26-2.48-6.37-3.74-1.68-1-3.43-2-5.35-3Zm42.3,47a3.29,3.29,0,0,1-1.82-.54c-2.18-1.48-4.34-3-6.5-4.48-4.36-3-8.82-6.12-13.35-8.94-3.16-2-6.26-3.94-9.7-6.15l-1.11-.71c-1.15-.75-2.34-1.53-3.57-2.24-2-1.19-4.16-2.37-6.34-3.52a3.52,3.52,0,0,1-1.73-2.19,4,4,0,0,1,.35-3.06,3.78,3.78,0,0,1,3.29-1.87,4.26,4.26,0,0,1,2,.49c2.14,1.13,4.35,2.35,6.56,3.63,1.23.72,2.46,1.52,3.55,2.23l1,.64c3,1.94,6.24,4,9.88,6.24C89,523.85,93.39,527,97.66,530l.14.1.75.53c1.82,1.27,3.64,2.55,5.47,3.8a4.09,4.09,0,0,1,1.76,2.29,3.9,3.9,0,0,1-.39,2.93,4,4,0,0,1-3.4,1.91ZM153,569a3.37,3.37,0,0,1-1.9-.53,78.11,78.11,0,0,0-7.22-4.31l-1-.53-.88-.48-1.13-.63-.17-.09c-2.57-1.43-5.24-2.91-7.75-4.52-2.82-1.82-5.8-3.62-8.85-5.35l-1.78-1-.13-.07c-2.66-1.5-5.42-3.06-8.06-4.69a4,4,0,0,1-1.4-5.32,4,4,0,0,1,3.42-1.92,3.58,3.58,0,0,1,1.9.53c2.73,1.68,5.56,3.27,8.3,4.8l1.69,1c3.19,1.81,6.09,3.55,8.85,5.33,2.54,1.63,5.21,3.11,7.79,4.55l1.26.7,1.35.75a74.25,74.25,0,0,1,7.67,4.65,4.2,4.2,0,0,1,1.78,2.31,3.85,3.85,0,0,1-2.7,4.74A4.13,4.13,0,0,1,153,569Z" fill="#ffc116"/>
        <path d="M95.29,270.91l-1,0a5.25,5.25,0,0,0-.6.17,3.89,3.89,0,0,1-.47.09,2.93,2.93,0,0,1-1.3.58l-.4.07a30.92,30.92,0,0,0-4.94,1c-.18.28-.35.54-.5.82.4.24.8.44,1.2.64a28.48,28.48,0,0,0,4.18,1.06c.4,0,.81.05,1.21.05a27.16,27.16,0,0,0,3.39-.26,33.39,33.39,0,0,0,6.5-1.51l.09,0,.1-.05a18.67,18.67,0,0,0-2.81-1.64,23.25,23.25,0,0,0-3.57-1l-1.08,0Z" fill="#e95e44"/>
        <path d="M70.68,29.92q-1,0-2,.09a22.7,22.7,0,0,0-3.58.93c-.3.15-.6.3-.9.47A4.37,4.37,0,0,1,62,32a4.64,4.64,0,0,1-1.3-.19l-.28.19c-2.82,2.24-5.34,4.28-7.7,6.53a87.16,87.16,0,0,0-7.13,7.76l.09-.08c-1.36,1.74-2.71,3.51-4,5.28l-.11.14a49.88,49.88,0,0,0-3.62,5.24,65.39,65.39,0,0,0-3.3,6.46c-.86,2-1.71,4-2.56,6l-.18.42a40.89,40.89,0,0,0-2,5.56c-.54,2-1,4.23-1.39,6.72-.05.42-.09.83-.12,1.24.53-.74,1-1.5,1.52-2.26l.09-.14c.87-1.36,1.86-2.9,2.9-4.37.83-1.17,1.68-2.33,2.53-3.48l1-1.31c.81-1.11,1.61-2.23,2.4-3.34L39,68l1-1.4c.72-1,1.45-2,2.17-3l.4-.55,1.09-1.48,1-1.39.21-.29c.94-1.33,1.87-2.62,2.85-3.88a81.39,81.39,0,0,1,8.44-9.63c1.84-1.71,3.7-3.39,5.57-5.08l.78-.72,3.31-3c1.53-1.41,3.12-2.8,4.87-4.24,1-.85,2.21-1.87,3.33-3A12.27,12.27,0,0,0,72.43,30c-.58,0-1.17-.06-1.75-.06Z" fill="#fefefe"/>
        <path d="M98.15,9.22c-1.2,0-2.39,0-3.59,0-3.91.14-6.49.23-9.27.42s-5.59.53-8.16.83c-2.08.29-4,.58-5.84,1q-.63.17-1.29.3A34.19,34.19,0,0,0,65.88,13c-.81.29-1.72.65-2.93,1.16-1.55.65-3.38,1.43-5.2,2.27A23.16,23.16,0,0,0,53.39,19l-.43.33-.54.42.24-.05a71.1,71.1,0,0,0-8.85,7.89C41,30.62,38.43,33.88,36,37l.69-.68L35.44,38l-1.7,2.49c-.6.86-1.17,1.81-1.7,2.71l-.73,1.22c-1.37,2.21-2.67,4.51-3.87,6.83-1.57,3-3.1,6-4.58,9C22,62,21.07,64,20.34,65.66l-.7,1.59L19,68.76c-.74,1.78-1.76,4.23-2.56,6.5-.19.55-.4,1.1-.61,1.64l0,.1c-.42,1.12-.8,2.14-1.09,3.16L13.91,83l-.82,2.78c-.94,3.16-1.66,5.94-2.2,8.48l-.26,1.15-.05.22c-.25,1-.51,2.16-.68,3.29l-.14,1-.26,1.82-.21,1.4c0,.29,0,.57-.06.86l0,.34,0,.22c-.1,1.21-.19,2.35-.19,3.5,0,1.77,0,3.54,0,5.31,0,4,.11,8,.18,12.08.06,3,.15,6.28.4,9.72.05.57.08,1.12.12,1.67V137c.07,1.18.16,2.47.3,3.71l.06.46.27,2.28.27,2.27c.7,4.52,1.35,8.6,2.28,12.73a65.64,65.64,0,0,0,3,9.56q1.11,2.94,2.23,5.88l1.17,2.79,1.17,2.76c.5,1.19,1.08,2.38,1.68,3.58l.08.16.08.15c.28.58.57,1.15.85,1.73,1.61,3.36,3.42,6.8,5.54,10.53,1.79,3.2,3.82,6.43,6,9.62l1.08,1.58c.77,1.15,1.59,2.37,2.43,3.49,1.24,1.66,2.49,3.31,3.73,5l.85,1.11.07.07c.94,1.22,1.85,2.4,2.85,3.59l2.37,2.83,2.38,2.83c2.49,3,5.31,6.05,8.86,9.71,3,3,6.24,6.13,10.35,9.74,2.68,2.35,5.51,4.59,8.24,6.76l.23.17.08.07.81.65,1.09.8,1.87,1.4.35.26.1.08.15.12.21.16.12.09.1.08a18.23,18.23,0,0,0,1.61,1.16l1.49,1,.12.09c1.52,1,3.82,2.5,6,3.8a4.3,4.3,0,0,1,1,.84l.33,0a13.24,13.24,0,0,1,1.68-1.86l.73-.61a11.09,11.09,0,0,0,1.49-1.39c1.24-1.5,2.45-3,3.65-4.53l1.06-1.34.7-.94.07-.1c.57-.78,1.32-1.8,2.1-2.77l.44-.55.29-.35.26-.31.25-.32c.4-.48.79-1,1.18-1.45l.1-.13c1.49-2,3.23-4.1,4.06-5.12s1.83-2.26,2.73-3.4l.58-.74.13-.17c2.88-3.79,5.49-7.82,7.8-11.38l.12-.18c2.42-3.71,5-7.83,7.88-12.59,1.87-3.06,3.77-6,5.77-9.19l.14-.21,1.82-2.86c2.89-4.55,5.35-9.22,7.18-12.78,2.47-4.81,4.78-9.57,6.84-14.14.74-1.61,1.5-3.22,2.26-4.83l.13-.28.08-.16c1.13-2.38,2.23-4.7,3.23-7,1.54-3.64,2.64-6.45,3.59-9.11l.07-.21c1.18-3.29,2.33-6.49,3.35-9.54.49-1.42,1-3,1.6-5.21a34.69,34.69,0,0,0,.86-4.13l0-.14.06-.35c.51-3.18,1-6.64,1.34-8.94l.12-.87.25-1.87,0-.13c.43-3.29.91-6.92,1-10.41.14-4.22.09-8.31,0-12.26V96.24c-.05-4.08-.12-8.45-.48-13-.3-3.65-.72-7.5-1.32-12.1l-.24-1.41c-.51-3.12-1.05-6.35-1.87-9.45l-.51-2a62.86,62.86,0,0,0-2.47-8.23c-.67-1.55-1.37-3-2.11-4.3-.62-1.15-1.36-2.29-2-3.27l-.08-.11L159,41.3c-2.19-3.44-4-6.1-5.89-8.62l-.09-.11-.08-.1c-1.67-2-3.4-4-5.2-5.88A49,49,0,0,0,143,22.44l-4.4-3.25-.42-.32a39.09,39.09,0,0,0-5.31-3.49,76,76,0,0,0-10.34-3c-4-.9-7.83-1.62-11.35-2.26-3-.37-5.55-.62-8-.77-1.64-.1-3.26-.14-5-.14ZM62.34,22.5h0a14.15,14.15,0,0,1,2.26-.71A27.44,27.44,0,0,1,70,21.11h.45a28.21,28.21,0,0,1,6.63,1c.31.09.63.18.93.29a17.67,17.67,0,0,1,1.72.67l.61.28a13.14,13.14,0,0,1,1.79,1.41,5.47,5.47,0,0,1,1.33,2.29,7.57,7.57,0,0,1-.06,4.09c-.07.16-.13.33-.19.49a8.65,8.65,0,0,1-.74,1.57,22.62,22.62,0,0,1-1.54,2,41.47,41.47,0,0,1-4.36,4.19c-1.79,1.52-3.47,3-5,4.45-.9.84-1.81,1.68-2.73,2.51l-.36.33-.78.71-.18.17c-1.68,1.53-3.58,3.26-5.39,5a84.1,84.1,0,0,0-7.86,9q-1.35,1.81-2.65,3.68l-.39.53-1.35,1.86L48.46,69.6l-.88,1.22q-1.34,1.88-2.69,3.72l-1,1.33-.15.2-.45.61-.48.64-.22.31c-.92,1.24-1.84,2.48-2.74,3.73-1.12,1.55-2.21,3.22-3.17,4.69l-.12.19-.15.24-.22.33-.83,1.28c-1.68,2.55-3.78,5.73-7.18,6.48a5.81,5.81,0,0,1-1.37.15,5.93,5.93,0,0,1-4.05-1.55A8.11,8.11,0,0,1,20.41,89,17.87,17.87,0,0,1,20,83a54.62,54.62,0,0,1,1.24-7.28,26.1,26.1,0,0,1,.8-3.19c.32-1,.66-1.91,1-2.86l0-.1c.65-1.74,1.4-3.46,2.17-5.21L26,62.89q1.35-3.09,2.74-6.15c.38-.82.85-1.64,1.3-2.42l.13-.22.2-.35.08-.14.11-.19c.46-.78.9-1.52,1.39-2.23,1.3-1.83,2.69-3.65,3.63-4.85l.46-.61c1.32-1.72,3.25-4.24,5.08-6.44.57-.71,1.21-1.39,1.77-2l.09-.1.27-.28.53-.56c.67-.73,1.55-1.69,2.5-2.59,1.94-1.88,4-3.55,6.18-5.38s4.49-3.55,7.2-5.47a3.46,3.46,0,0,1,1.91-.52,3.94,3.94,0,0,1,.81.07Z" fill="#ff7850"/>
        <path d="M100.06,283.14h0l-.16,0-.39.07c-1.26.24-2.61.44-4,.6l-.2,0a25.2,25.2,0,0,1-2.76.21,7.9,7.9,0,0,1-1.17-.07h-.21l-.87-.11A4,4,0,0,1,88,285.46l-1,.24a44,44,0,0,0-4.4,1.14,16.14,16.14,0,0,0-1.92,1.23,7.93,7.93,0,0,0-.92.85c-.26.29-.5.59-.75.89a28.1,28.1,0,0,0-2.24,3.6l-.11.32a34.47,34.47,0,0,0,3.62-.7l.43-.1.29-.06c1.17-.28,2.29-.54,3.39-.74,2.63-.49,5.49-.76,7.57-.95l.59-.06,2.41-.25c3.46-.38,6.28-.59,8.89-.66,1.36,0,2.72-.08,4.08-.14a29,29,0,0,0-2.75-2.58L103.46,286l-.29-.25c-.9-.8-1.83-1.62-2.78-2.39l-.31-.21,0,0Z" fill="#ff7850"/>
        <path d="M93.66,262.51l0,0-.3,0h0a13.15,13.15,0,0,0-1.88.43,4.92,4.92,0,0,0-.81.34,5.15,5.15,0,0,0-1,.16c-1.15.17-2.3.35-3.45.56a14,14,0,0,0-1.42.35c-.4.12-.72.24-1.15.39a13.25,13.25,0,0,0-1.67.77,14.93,14.93,0,0,0-1.32,1.06,10.39,10.39,0,0,0-1.51,1.92,12.6,12.6,0,0,0-1,1.68A10,10,0,0,0,77,274.78a6.42,6.42,0,0,0,.82,2.89A15.48,15.48,0,0,0,79,279.2l.38.36,1.29,1c.5.32,1,.61,1.53.89a23.43,23.43,0,0,0,5,1.89,33.33,33.33,0,0,0,4.19.71,18.51,18.51,0,0,0,4.14-.17c1.34-.15,2.7-.35,4-.6,1-.19,2-.37,3-.64a29.64,29.64,0,0,0,3.89-1.42,14.25,14.25,0,0,0,3.48-2.26,8.67,8.67,0,0,0,2.23-3.6,5.3,5.3,0,0,0,.24-2,7.24,7.24,0,0,0-.89-3,8.11,8.11,0,0,0-2.43-2.62c-.59-.47-1.2-1-1.83-1.37a27.84,27.84,0,0,0-3.13-1.8,20.35,20.35,0,0,0-8.27-2.16h-.32a14.51,14.51,0,0,0-1.86.11Zm1.28,8.34-.19,0,.19,0Zm-3.48,4.51a28.63,28.63,0,0,1-4.17-1.06c-.4-.19-.81-.4-1.19-.61.15-.28.32-.54.49-.81a34.22,34.22,0,0,1,5.33-1.07,3.08,3.08,0,0,0,1.31-.59,2.52,2.52,0,0,0,.46-.1l.61-.16a14.31,14.31,0,0,1,2.07,0,22,22,0,0,1,3.55,1,22.28,22.28,0,0,1,2.82,1.6l-.19.1a34.26,34.26,0,0,1-6.5,1.5,27.31,27.31,0,0,1-3.38.25c-.4,0-.8,0-1.21,0Zm-6.58-2.62.17.21-.17-.21Zm19.45,2.18.06.14-.06-.14ZM85.58,275l0,.2,0-.2Z" fill="#110802"/>
        <path d="M97.73,276.69a4.43,4.43,0,0,0,1.57,6c.36.22.71.46,1.06.71,1.63,1.33,3.17,2.75,4.76,4.12.95.82,1.88,1.64,2.77,2.51-1.36.06-2.72.1-4.08.14-3,.09-5.94.34-8.89.66-3.51.39-7.09.6-10.57,1.25-1.38.26-2.75.6-4.12.92-1.19.28-2.38.53-3.58.75l.12-.32A26.92,26.92,0,0,1,79,289.84c.25-.3.49-.6.75-.89a8.11,8.11,0,0,1,.91-.85,19.5,19.5,0,0,1,1.92-1.23c1.77-.58,3.62-1,5.43-1.38a4.18,4.18,0,1,0-2.22-8.06c-1.63.38-3.25.76-4.87,1.2a16.1,16.1,0,0,0-6.14,3.5,18.35,18.35,0,0,0-2.66,3,21.16,21.16,0,0,0-1.32,1.79,23,23,0,0,0-2.3,4.5c-.83,2.27-1.67,4.89-.72,7.23A5.54,5.54,0,0,0,70,301.58a8,8,0,0,0,3.29,1,18.63,18.63,0,0,0,4.94-.37c3-.53,6-1.31,9-1.88,1.83-.22,3.67-.41,5.51-.61,2-.21,4.07-.45,6.12-.61,4.18-.32,8.38-.29,12.55-.67,2.27-.2,4.76-.27,6.34-2.16A5.42,5.42,0,0,0,119,293.9a6,6,0,0,0,0-2.8,10.14,10.14,0,0,0-1.34-3,27.33,27.33,0,0,0-4.39-5c-1.38-1.27-2.81-2.46-4.16-3.73a28.66,28.66,0,0,0-5.33-4.26,4.47,4.47,0,0,0-2.2-.58,4.36,4.36,0,0,0-3.79,2.15Z" fill="#110802"/>
        <path d="M94.63,0c-4.85.1-9.73.3-14.54.87-2.81.33-5.65.58-8.43,1.12a52.07,52.07,0,0,0-9.84,2.6C59.21,5.69,56.63,6.83,54,8c-.94.41-1.88.85-2.78,1.35a30.92,30.92,0,0,0-3.56,2.57,81.62,81.62,0,0,0-10.82,9.77c-1.8,2-3.59,4.1-5.25,6.25l-2.78,3.61c-.8,1-1.49,2.18-2.23,3.27a124.31,124.31,0,0,0-7.31,12.47c-1.24,2.42-2.47,4.84-3.68,7.28s-2.23,4.76-3.31,7.16C11.15,64.31,10.11,67,9,69.62c-1,2.4-1.8,4.84-2.66,7.28C5.58,79.14,5,81.45,4.31,83.73c-.35,1.21-.65,2.44-1,3.66-.28,1-.6,2.08-.82,3.14C2,93.1,1.38,95.65,1,98.26c-.23,1.54-.56,3.12-.67,4.68L0,107.33c-.08,1.19,0,2.41,0,3.61s0,2.12,0,3.19q0,3.93.12,7.85c.09,5.28.26,10.54.65,15.8.38,5.11,1,10.25,1.92,15.3.57,3.16,1.15,6.33,1.9,9.46a57.82,57.82,0,0,0,1.91,5.8c.38,1.06.76,2.13,1.16,3.19,2,5.17,4,10.3,6.41,15.28q1.76,3.63,3.57,7.21c1.24,2.42,2.56,4.76,3.89,7.12s2.72,4.39,4.09,6.57S28.58,212,30,214.06s2.9,3.89,4.36,5.83c1.63,2.16,3.34,4.25,5,6.37s3.25,3.87,4.88,5.79c1.75,2.08,3.62,4.08,5.43,6.12s3.57,3.69,5.35,5.52c.67.69,1.4,1.33,2.09,2,1,.92,1.93,1.88,2.94,2.76,2,1.77,4.06,3.54,6.14,5.25,2.26,1.86,4.55,3.68,6.84,5.49s4.64,3.5,7,5.24c1,.7,2,1.3,3,1.95,1.58,1,3.16,2.05,4.79,3a4.49,4.49,0,0,0,5.44-.76,4,4,0,0,0,.42.49,4.64,4.64,0,0,0,2.06,1.21,4.56,4.56,0,0,0,3.61-.47,25.59,25.59,0,0,0,2-1.56c.45-.4.89-.81,1.37-1.18a20.55,20.55,0,0,0,3.07-3.25c2.12-2.5,4.07-5.13,6.05-7.73,1-1.29,2.07-2.55,3.09-3.85l.2-.26.43-.56-.34.44c.6-.78,1.2-1.57,1.78-2.35,1.58-2,3.22-3.95,4.8-6l.12-.16.64-.82-.24.3a265.38,265.38,0,0,0,15.27-23q3.84-6.27,7.79-12.48c1.33-2.11,2.65-4.22,3.94-6.36.59-1,1.1-2,1.65-3,.66-1.2,1.31-2.41,2-3.62,2.43-4.54,4.69-9.15,6.86-13.82,1.05-2.25,2.06-4.53,3.11-6.78.94-2,2-4,2.89-6.09,2.13-4.67,4-9.45,5.74-14.28,1.67-4.67,3.37-9.35,4.72-14.12a59.43,59.43,0,0,0,1.29-7c.39-2.54.74-5.1,1.1-7.64.38-2.71.69-5.44,1-8.16.29-2.31.47-4.66.54-7,.15-5.07.05-10.16-.05-15.24s-.31-10.12-.88-15.16c-.35-3.23-.71-6.45-1.14-9.68-.36-2.53-.82-5-1.29-7.55-.44-2.36-1.07-4.66-1.68-7a66.44,66.44,0,0,0-2-6.86A58.85,58.85,0,0,0,169.9,41c-1.05-1.89-2.29-3.7-3.48-5.5q-2.11-3.19-4.31-6.31a75.91,75.91,0,0,0-5-6.15,44.87,44.87,0,0,0-4.61-4.74c-2-1.71-4.07-3.28-6.18-4.82-1.83-1.34-3.65-2.68-5.51-4-.63-.44-1.28-.86-1.92-1.28a18.74,18.74,0,0,0-3.76-1.78c-1.19-.45-2.39-.82-3.61-1.17-2.17-.63-4.36-1.23-6.57-1.74-2.43-.54-4.87-1-7.31-1.52-2.8-.55-5.6-1-8.43-1.33A86.67,86.67,0,0,0,97.82,0c-1.06,0-2.13,0-3.19,0ZM57.78,16.44c1.72-.79,3.46-1.53,5.2-2.27,1-.41,1.94-.8,2.92-1.16a47.76,47.76,0,0,1,5.41-1.41c1.93-.45,3.87-.75,5.82-1,2.71-.32,5.43-.62,8.15-.82,3.09-.22,6.18-.32,9.28-.42,2.86-.08,5.7-.09,8.55.09,2.69.16,5.37.44,8,.77,3.79.68,7.57,1.4,11.32,2.25a75.43,75.43,0,0,1,10.34,3,27.26,27.26,0,0,1,3.44,2.13h0c.65.46,1.29.93,1.91,1.4l.36.27,4,2.95L142,21.8l.51.4.38.28c.89.7,1.93,1.53,3,2.42.66.59,1.25,1.15,1.8,1.72,1.85,1.91,3.58,4,5.28,6l.09.1c1.85,2.47,3.72,5.2,5.88,8.61l.7,1.08.08.12c.68,1.05,1.38,2.14,2,3.27.73,1.3,1.44,2.75,2.12,4.29a65.87,65.87,0,0,1,2.49,8.31c.16.64.32,1.27.49,1.91.8,3,1.32,6.17,1.82,9.21l0,.17.24,1.46c.61,4.65,1,8.49,1.32,12.1.36,4.42.43,8.85.48,13V97.7c0,4,.09,8.17,0,12.25-.12,3.49-.59,7-1,10.44v.12l-.25,1.86-.12.83c-.44,3-.86,6-1.35,9l0,.24a37.11,37.11,0,0,1-.89,4.36c-.61,2.13-1.1,3.74-1.6,5.21-1,3-2.07,6-3.1,8.85l-.25.7-.08.21c-1.2,3.38-2.54,6.64-3.58,9.11s-2.19,4.81-3.3,7.16c-.81,1.71-1.62,3.42-2.4,5.14-2.09,4.59-4.39,9.35-6.85,14.13-1.84,3.59-4.32,8.28-7.17,12.78l-1.83,2.87c-2.12,3.32-4,6.32-5.9,9.39s-4.83,7.89-7.89,12.59l-.22.35c-2.43,3.73-5,7.59-7.69,11.2l-.31.4-.4.51c-.86,1.1-1.74,2.18-2.62,3.26l-.06.08c-1.3,1.59-2.76,3.4-4.11,5.18l-.1.13c-.49.62-1,1.23-1.5,1.84l-.3.38-.62.76c-.77,1-1.51,2-2.26,3l-.61.82-1,1.21c-1.24,1.56-2.48,3.12-3.75,4.66A11.14,11.14,0,0,1,96,260.08l-.73.61a12.17,12.17,0,0,0-1.65,1.85h0l-.13.17a.86.86,0,0,0-.13-.14h0a4.16,4.16,0,0,0-1-.84c-2.09-1.24-4.15-2.59-6.13-3.89l-1.5-1c-.62-.4-1.22-.87-1.81-1.33l-.21-.16-.6-.46-1.08-.8-1.88-1.41-.83-.66c-2.82-2.23-5.75-4.55-8.53-7-4.13-3.61-7.41-6.71-10.35-9.74s-5-5.31-7-7.58q-.93-1.06-1.83-2.13l-2.38-2.83-2.38-2.84c-1-1.19-2-2.45-2.91-3.66L42,215.16c-.76-1-1.51-2-2.26-3l-1.45-1.94c-1.23-1.64-2.35-3.37-3.51-5.06-2.15-3.11-4.17-6.33-6-9.62-1.95-3.45-3.81-6.95-5.53-10.52-.91-1.87-1.89-3.72-2.7-5.63s-1.56-3.69-2.33-5.54L16,168a69.77,69.77,0,0,1-3-9.56c-.94-4.21-1.61-8.45-2.26-12.71l-.6-5c-.22-1.83-.29-3.69-.43-5.54-.24-3.23-.34-6.48-.4-9.72q-.12-6-.19-12.08c0-1.77,0-3.54,0-5.31s.19-3.29.31-4.91L10,98.88c.22-1.55.64-3.1,1-4.64.62-2.84,1.37-5.68,2.19-8.47.55-1.86,1.1-3.73,1.64-5.58.49-1.66,1.16-3.28,1.74-4.9,1-2.71,2.09-5.36,3.18-8,1-2.37,2.07-4.75,3.22-7.07q2.25-4.5,4.57-9c1.21-2.32,2.5-4.61,3.87-6.83.81-1.31,1.57-2.66,2.44-3.93l2.84-4.17-.72.93a123.42,123.42,0,0,1,7.94-9.56,83.28,83.28,0,0,1,9.54-8.56l-.94.72,1.2-.92L53.5,19a23,23,0,0,1,4.28-2.59Zm-3.41,1.91-.7.54.7-.54Zm67.51,225.22h0Zm-5,6.26-.42.54.42-.54ZM115,252.24l0,0-.14.18.18-.23Z" fill="#110802"/>
        <path d="M64.61,21.73a13.39,13.39,0,0,0-2.26.7,3.76,3.76,0,0,0-2.77.47c-2.47,1.73-4.89,3.54-7.21,5.46-2.11,1.74-4.22,3.49-6.19,5.38-.86.83-1.68,1.71-2.49,2.59s-1.84,1.9-2.67,2.91c-1.9,2.3-3.71,4.68-5.53,7-1.24,1.61-2.47,3.22-3.64,4.88-.57.82-1.07,1.69-1.58,2.56s-1.16,2-1.63,3c-.93,2-1.84,4.1-2.74,6.15-1,2.22-2,4.43-2.82,6.7-.36,1-.72,2-1,3a30,30,0,0,0-.82,3.2A60.15,60.15,0,0,0,20,83a18.62,18.62,0,0,0,.37,6,8.26,8.26,0,0,0,2.41,4.19,6.09,6.09,0,0,0,5.48,1.42c3.35-.74,5.44-3.82,7.21-6.52,1.47-2.25,2.92-4.53,4.49-6.71s3.35-4.54,5-6.81,3.3-4.6,5-6.89c1.47-2,2.9-4.06,4.39-6.06a81.26,81.26,0,0,1,7.86-9c3.09-3,6.31-5.79,9.44-8.71,1.63-1.52,3.29-3,5-4.44A42.28,42.28,0,0,0,81,35.27a20,20,0,0,0,1.53-2,10.19,10.19,0,0,0,.94-2.07,7.55,7.55,0,0,0,.08-4.11,5.65,5.65,0,0,0-1.35-2.33,13.8,13.8,0,0,0-1.81-1.42L79.73,23A13.83,13.83,0,0,0,78,22.36c-.31-.11-.62-.2-.94-.29a28.17,28.17,0,0,0-6.65-1H70a27,27,0,0,0-5.37.69ZM72.43,30c.51.08,1,.17,1.5.28a41.77,41.77,0,0,1-3.33,3c-1.66,1.37-3.28,2.77-4.87,4.23-3.2,2.94-6.46,5.84-9.65,8.81A82.09,82.09,0,0,0,47.64,56c-1.42,1.81-2.71,3.71-4.06,5.57-1.22,1.67-2.45,3.34-3.65,5s-2.4,3.4-3.63,5.08-2.36,3.17-3.5,4.79c-1.56,2.21-3,4.52-4.47,6.78,0-.41.07-.82.12-1.24.36-2.26.8-4.5,1.38-6.71a47.15,47.15,0,0,1,2.19-6c.85-2,1.71-4,2.57-6a67.41,67.41,0,0,1,3.29-6.45,51.13,51.13,0,0,1,3.74-5.38q2-2.66,4-5.29l-.07.09a85.69,85.69,0,0,1,7.12-7.75c2.43-2.33,5.07-4.45,7.71-6.54l.25-.18a4.47,4.47,0,0,0,3.51-.39c.3-.17.6-.33.9-.47A23.25,23.25,0,0,1,68.65,30a21.69,21.69,0,0,1,3.78,0ZM46.21,45.47l-.36.47.36-.47ZM28.74,87.33l.27.35a3,3,0,0,1-.27-.35Z" fill="#110802"/>
        <path d="M99.19,461.35a10.82,10.82,0,0,0-2.32.39,8.32,8.32,0,0,0-2.73,1.36,9,9,0,0,0-3,3.46,12.52,12.52,0,0,0-1.08,4.21A26.46,26.46,0,0,0,90,474a67.52,67.52,0,0,0,.84,7.23,66.56,66.56,0,0,0,1.26,6.68c.41,1.7.93,3.37,1.48,5,.73,2.15,1.4,4.33,2.23,6.45l1.74,4.49c.46,1.17.87,2.36,1.4,3.51,1.2,2.61,2.4,5.24,3.67,7.83a4.07,4.07,0,0,0,5.56,1.45,2,2,0,0,0,.39-.26,4.37,4.37,0,0,0,3.67-1.19c1.64-1.58,3.41-3,5.17-4.48s3.24-2.67,4.85-4,3.43-2.78,5-4.29l2.51-2.36a37.38,37.38,0,0,0,5.91-7.35c.7-1.12,1.36-2.24,2-3.4a11,11,0,0,0,1.44-4.43,9.09,9.09,0,0,0-.14-2.07,6.11,6.11,0,0,0-.71-2.12,9,9,0,0,0-3.36-3.34c-2.25-1.17-4.76-.68-7,.2a32.21,32.21,0,0,0-3.58,1.66,37,37,0,0,0-3.25,2,29.08,29.08,0,0,0-4.73,4.2,46.63,46.63,0,0,0-4.39,5.42l0,.07c.08-2.86.11-5.73,0-8.6-.06-1.61-.16-3.2-.35-4.8s-.41-3-.7-4.51a20.17,20.17,0,0,0-1.57-4.54,14.21,14.21,0,0,0-2.44-3.28,18.25,18.25,0,0,0-3.15-2.8l-.94-.4a4.22,4.22,0,0,0-1.24-.37,10.41,10.41,0,0,0-2.16-.21Zm.61,7.93h0a25.52,25.52,0,0,1,2,2.07c.25.39.48.77.69,1.18a25.64,25.64,0,0,1,1.11,4.83,100.28,100.28,0,0,1,.12,17c0,.89-.09,1.77-.14,2.66-.35-1-.7-1.94-1-2.92-.85-2.53-1.72-5.05-2.42-7.64a73.79,73.79,0,0,1-1.65-8.73,37.49,37.49,0,0,1-.37-6.61c.08-.38.17-.75.29-1.13l0-.06c.11-.12.23-.23.35-.34a1.37,1.37,0,0,1,.2-.13l.62-.17Zm.3,0,.34,0-.34,0Zm.18.12.34.14-.34-.14Zm-1.78.33h0l-.06.05h0l.06,0Zm-.08.06h0l-.24.19.24-.19Zm-.2.47c0,.12-.1.23-.14.34,0-.11.09-.23.14-.34Zm34.06,14.52.16,0-.16,0Zm-1.81.49a38.92,38.92,0,0,1-3.35,5.31c-3.37,4.09-7.57,7.4-11.65,10.76l-.3.25c.37-.7.79-1.38,1.17-2.06,1-1.76,2.11-3.4,3.24-5.05a40.47,40.47,0,0,1,5.62-6.15,34.12,34.12,0,0,1,5.27-3.06Z" fill="#110802"/>
        <path d="M91.56,295.55a4,4,0,0,0-1.19,2.87q.82,8.07,1.58,16.15c.39,4.21.84,8.44,1.11,12.66q.45,6.93,1.16,13.82c.21,2.12.59,4.23.8,6.36s.51,4.52.67,6.8c.33,4.75.52,9.49.63,14.25.11,4.41.09,8.82.24,13.22s.33,8.89.42,13.33c.09,4.63.12,9.26.18,13.89.06,5.59.36,11.18.51,16.77.07,2.61.17,5.22.41,7.82s.54,5.41.9,8.1c.51,4.55.83,9.12,1.37,13.65.56,4.7,1.58,9.33,2.33,14,.34,2.69.69,5.38.94,8.08.31,3.24.48,6.48.58,9.73.1,3.06.14,6.12.14,9.18,0,3.22-.07,6.45,0,9.67a4.33,4.33,0,1,0,8.65,0c-.35-8.37-.09-16.76-.7-25.13-.15-2.11-.37-4.21-.62-6.31-.28-2.41-.5-4.84-.88-7.25-.61-3.93-1.4-7.83-2-11.76-.62-5.33-1-10.67-1.71-16-.52-4.43-.92-8.85-1-13.3s-.32-8.94-.47-13.41-.14-9.08-.2-13.62-.23-9.21-.39-13.81q-.22-6.33-.34-12.65-.11-7.05-.42-14.08c-.19-4.36-.67-8.74-1.23-13.07-.63-4.8-1.12-9.61-1.51-14.43-.18-2.38-.32-4.76-.51-7.14-.23-2.67-.51-5.34-.75-8q-.8-8.77-1.71-17.54a4.34,4.34,0,0,0-1.19-2.87,4.08,4.08,0,0,0-5.74,0Z" fill="#110802"/>
        <path d="M52.88,483.42a4,4,0,0,0-2.77,4.88,3.84,3.84,0,0,0,1.82,2.37c4.45,2.12,8.86,4.33,13.1,6.84,2.11,1.26,4.24,2.51,6.37,3.75,1.92,1.11,3.9,2.12,5.86,3.17,3.68,2,7.27,4.11,10.93,6.11,3.91,2.15,7.83,4.27,11.74,6.44s7.76,4.24,11.54,6.56,7.55,4.62,11.37,6.86,7.41,4.37,11.15,6.48c2,1.11,3.95,2.2,5.93,3.29s3.75,2.23,5.58,3.41c4.75,3,9.4,6.2,14.07,9.36,2,1.36,4.1,2.64,6.15,3.95,1.8,1.15,3.7,2.16,5.5,3.31a4.26,4.26,0,0,0,5.57,1.22,4.33,4.33,0,0,0,2.23-3.83,5,5,0,0,0-2.48-4.05c-.87-.58-1.79-1.1-2.7-1.63-1.64-1-3.25-1.94-4.86-3-3.32-2.09-6.58-4.27-9.84-6.46-3.61-2.41-7.21-4.86-10.91-7.11q-2.82-1.73-5.71-3.3c-1.91-1.05-3.82-2.08-5.7-3.16q-5.7-3.27-11.37-6.56c-3.72-2.16-7.38-4.41-11.09-6.59-7.56-4.46-15.43-8.39-23.08-12.69-2.88-1.62-5.75-3.25-8.66-4.82-2.6-1.4-5.25-2.74-7.81-4.22-3-1.72-5.91-3.47-8.9-5.15-3.25-1.83-6.61-3.46-10-5.07a4.76,4.76,0,0,0-2.07-.54,3.87,3.87,0,0,0-1,.14Z" fill="#110802"/>
        <path d="M173.24,557c-2,2.17-4,4.37-6,6.56-.74.81-1.48,1.61-2.2,2.42a40.84,40.84,0,0,0-2.51,3.33c-1.78,2.21-3.79,4.22-5.67,6.34a61.9,61.9,0,0,1-6.3,6.14,4,4,0,0,0-1.22,2.94,4.15,4.15,0,0,0,4.15,4.15l1.11-.15a4.08,4.08,0,0,0,1.83-1.06,43.31,43.31,0,0,0,3.89-3.53c1.25-1.24,2.38-2.59,3.56-3.89s2.64-2.86,3.91-4.33c1.12-1.29,2.05-2.72,3.06-4.09s2.18-2.44,3.26-3.66c1.61-1.81,3.25-3.6,4.9-5.37a4.09,4.09,0,0,0-2.94-7,3.88,3.88,0,0,0-2.85,1.19Z" fill="#110802"/>
        <path d="M35.43,509.61a4.07,4.07,0,0,0-2.85,5l.41,1a4,4,0,0,0,1.47,1.46,132.61,132.61,0,0,0,11.47,7.4c1.72,1.06,3.42,2.17,5.18,3.16l5.62,3.13c3.77,2.09,7.42,4.41,11.2,6.48s7.86,4.16,11.75,6.34,7.51,4.5,11.25,6.77,7.63,4.54,11.55,6.64c1.81,1,3.66,1.85,5.45,2.86s3.85,2.18,5.7,3.41c3.49,2.29,7,4.52,10.58,6.65,1.78,1.05,3.56,2.1,5.35,3.13s3.58,1.92,5.24,3.05,3.76,2.24,5.64,3.34a53.5,53.5,0,0,1,5.25,3.4l-.57-.44a54.65,54.65,0,0,0,6.09,4.12,4.16,4.16,0,0,0,6.25-3.59,4,4,0,0,0-1.22-2.94c-1.68-1.36-3.53-2.46-5.28-3.72a57,57,0,0,0-5.09-3.47c-1.82-1.1-3.69-2.13-5.54-3.2-.81-.48-1.58-1-2.39-1.51s-1.8-1-2.71-1.55c-1.83-1-3.65-2.11-5.48-3.18-3.65-2.12-7.25-4.34-10.77-6.68a100,100,0,0,0-11-6.25c-7.94-3.93-15.4-8.81-23-13.32-3.78-2.23-7.72-4.2-11.6-6.24s-7.46-4.3-11.19-6.44c-1.93-1.1-3.89-2.16-5.82-3.24s-3.82-2.25-5.71-3.41A141.58,141.58,0,0,1,38.57,510a3.29,3.29,0,0,0-2-.56,4.23,4.23,0,0,0-1.16.15Z" fill="#110802"/>
        <path d="M50.57,485.49a4.21,4.21,0,0,0-.41,3.2,4.13,4.13,0,0,0,1.51,2.19h0a18.16,18.16,0,0,1-.63,2.41c-.27.46-.55.89-.86,1.32a10.21,10.21,0,0,1-.69.77l-.34.2a23.51,23.51,0,0,1-4.07.92c-.45.07-.88.16-1.32.25l-1.31.56a4.39,4.39,0,0,0-1.58,1.62,4.62,4.62,0,0,0-.45,3.51c0,.19.09.37.14.56s0,.37,0,.56a17.62,17.62,0,0,1-.53,2.37,14,14,0,0,1-1,1.6l-.35.4c-1.36.05-2.75-.08-4.11-.14a4.17,4.17,0,0,0,0,8.33,30.79,30.79,0,0,0,5.84,0,6.74,6.74,0,0,0,3.85-2,16.23,16.23,0,0,0,1.59-1.94,13.13,13.13,0,0,0,2.42-5.35c.14-.78.25-1.56.36-2.35,2.86-.43,5.65-1.26,7.58-3.63.62-.77,1.23-1.56,1.81-2.37a12.4,12.4,0,0,0,1.82-4.68,9.59,9.59,0,0,0-.06-5.64,8,8,0,0,0-1.52-2.54,9.42,9.42,0,0,0-2-1.61,4,4,0,0,0-2.05-.56,4.26,4.26,0,0,0-3.65,2.06Zm1.07,4.9s0,.07,0,.11l0-.11Zm.19.63h0a2.3,2.3,0,0,1,0,.26l0-.26Zm-.14,0a3.11,3.11,0,0,1,0,.32,3.11,3.11,0,0,0,0-.32ZM39,507.85l-.07.07h0l.08-.07Zm-.52.34h0l0,0,0,0Z" fill="#110802"/>
        <path d="M6.3,468.91a5.51,5.51,0,0,0-2.31.64,7.74,7.74,0,0,0-1.28.93,4.58,4.58,0,0,0-1.13,1.94,4.71,4.71,0,0,0,0,2.3,7.91,7.91,0,0,0,.36,1.17,19,19,0,0,0,1.35,2.94,22.25,22.25,0,0,0,1.6,2.28c1.51,2,3.06,3.95,4.68,5.86,1.85,2.19,3.88,4.23,5.73,6.42,2,2.38,4,4.77,6,7.2,2.89,3.76,5.76,7.54,8.43,11.46A4.41,4.41,0,0,0,32.2,514a4.17,4.17,0,0,0,4.71-6.13,199.3,199.3,0,0,0-12.95-17c-1.11-1.29-2.22-2.57-3.32-3.86-1-1.13-2-2.19-3-3.3-1.8-2-3.53-4-5.21-6,.94.22,1.87.45,2.8.69,2.39.6,4.8,1.19,7.19,1.82,1.24.34,2.44.68,3.65,1.09s2.6.93,3.89,1.44c.33.13.64.27,1,.38l.5.21,1.05.45.14.05.07,0,2.92,1.26c1,.43,2,.88,3,1.23.65.22,1.31.37,2,.53,1.1.28,2.18.58,3.27.89.87.25,1.71.58,2.57.88s2,.9,2.92,1.39a44,44,0,0,0,4.35,2,4,4,0,0,0,3.2-.42,4.22,4.22,0,0,0,1.91-2.49,4.17,4.17,0,0,0-.42-3.2l-.65-.84a4.09,4.09,0,0,0-1.75-1.05c-1-.44-1.89-.91-2.83-1.38a39,39,0,0,0-4.34-1.93c-1.4-.5-2.78-.94-4.21-1.34-1.63-.46-3.28-.75-4.87-1.37l-3.5-1.48a4.13,4.13,0,0,0-.75-.32l-1.32-.56a4.35,4.35,0,0,0-.59-.25l-.22-.09c-2-.84-4.08-1.57-6.16-2.26-1.85-.61-3.79-1-5.68-1.48-2.19-.54-4.37-1.08-6.56-1.59a34.44,34.44,0,0,0-7-1.18H7.69a10.8,10.8,0,0,0-1.39.08ZM40,478.19l.62.26-.62-.26Z" fill="#110802"/>
        <path d="M16.41,474.22A4,4,0,0,0,14,476.11c-1,2.11-1.62,4.34-2.39,6.52a4.17,4.17,0,0,0,6.12,4.71,4.38,4.38,0,0,0,1.92-2.49c.65-1.85,1.17-3.74,1.87-5.56a4.32,4.32,0,0,0,0-2.2,4.11,4.11,0,0,0-1.89-2.45,4.18,4.18,0,0,0-2.09-.57,4,4,0,0,0-1.08.15Z" fill="#110802"/>
        <path d="M6.68,474.12a4.18,4.18,0,0,0-.42,3.19,4.32,4.32,0,0,0,1.91,2.47Q10.59,481.43,13,483a4.11,4.11,0,0,0,6-4.64,4.31,4.31,0,0,0-1.88-2.45c-1.61-1.11-3.22-2.22-4.83-3.31a3.48,3.48,0,0,0-2-.59,4.38,4.38,0,0,0-3.69,2.08Z" fill="#110802"/>
        <path d="M58.2,509.67A3.89,3.89,0,0,0,59.59,515q3.21,1.69,6.34,3.51c1.6.94,3.13,2,4.68,3,3.23,2.07,6.45,4.13,9.7,6.15,6.79,4.21,13.23,8.94,19.85,13.42a3.83,3.83,0,0,0,5.63-4.33,4,4,0,0,0-1.76-2.29c-6.51-4.46-12.85-9.17-19.55-13.34q-5-3.09-9.88-6.24c-1.51-1-3-2-4.55-2.87-2.17-1.26-4.35-2.47-6.57-3.64a4.32,4.32,0,0,0-2-.49,3.79,3.79,0,0,0-3.31,1.88Z" fill="#110802"/>
        <path d="M112.7,541.46a4,4,0,0,0,1.4,5.35c3.27,2,6.63,3.87,10,5.77q4.5,2.55,8.85,5.34c2.93,1.89,6,3.55,9.06,5.24a104.46,104.46,0,0,1,9.07,5.33,3.75,3.75,0,0,0,3,.39,3.91,3.91,0,0,0,2.32-1.78,4,4,0,0,0,.39-3A4.19,4.19,0,0,0,155,561.8a88.71,88.71,0,0,0-9-5.41c-3-1.7-6.11-3.37-9-5.25s-5.86-3.63-8.86-5.33c-3.35-1.88-6.72-3.74-10-5.75a3.57,3.57,0,0,0-1.91-.54,4,4,0,0,0-3.43,1.94Z" fill="#110802"/>
        <path d="M137.48,13.47a4.31,4.31,0,0,0-1.31,3.15c0,.31.06.63.08.94h0c.65.46,1.29.93,1.91,1.4l.36.27,4.4,3.25c.88.69,1.92,1.52,2.94,2.41l-.15-1.56c-.22-2.24-.44-4.47-.64-6.71a4.73,4.73,0,0,0-1.3-3.15,4.47,4.47,0,0,0-6.3,0Z" fill="#110802" opacity="0.25"/>
        <path d="M37.65,213.2a5.3,5.3,0,0,0-1.55,3.74,5.44,5.44,0,0,0,1.55,3.73A19.59,19.59,0,0,0,41,223.5a19.18,19.18,0,0,0,4.51,2.24c1.13.41,2.31.66,3.47,1s2.25.61,3.34,1c-.61-.7-1.22-1.4-1.81-2.11l-2.38-2.83-2.38-2.84c-1-1.19-2-2.45-2.91-3.66L42,215.16c-.8-1.06-1.6-2.12-2.39-3.19a5.06,5.06,0,0,0-2,1.23Z" fill="#110802" opacity="0.25"/>
        <path d="M136.26,17.56h0q.36,4,.75,8.08c.27,2.88.54,5.76.79,8.64.17,1.86.24,3.77.31,5.62,0,.94.08,1.88.13,2.81.08,1.67.1,3.36.12,5,0,.76,0,1.52,0,2.29s0,1.79,0,2.67c0,.47,0,.94,0,1.41,0,1.08-.06,2.15-.13,3.22q-.25,4.29-.54,8.58c-.3,4.33-.5,9.09-.64,15-.11,5.06-.28,10.51-.68,16.07-.32,4.53-.88,9.12-1.42,13.56l-.1.8-.11.84c-.5,3.61-1,7.34-1.76,11-.9,4.42-1.81,8.75-3,13.07a189.11,189.11,0,0,1-8.55,24.2l-.47,1c-.56,1.28-1.15,2.6-1.78,3.87-1.22,2.47-2.18,4.35-3.11,6.1s-1.83,3.46-2.74,5.19c-1.13,2.16-2.27,4.33-3.42,6.48-2,3.67-4.06,7.14-5.87,10.06-.8,1.31-1.75,2.57-2.66,3.79l-1,1.31c-1.19,1.64-2.41,3.24-3.63,4.85l-.2.27c-1,1.23-1.92,2.51-3,3.69a36.12,36.12,0,0,1-4.24,4.18,40.24,40.24,0,0,1-7,4.47,69.69,69.69,0,0,1-12.83,3.89c-1.63.16-3.32.28-5,.34-.88,0-1.75.06-2.62.06s-1.56,0-2.24-.07c-.46-.09-.9-.2-1.35-.33l-.6-.3c-.29-.15-.58-.3-.88-.44a34.5,34.5,0,0,0-3.51-1.4c-.67-.24-1.36-.46-2-.68s-1.39-.45-2.08-.69a18.15,18.15,0,0,1-2.38-1.42c-.52-.44-1-.91-1.6-1.44a5.48,5.48,0,0,0-3.79-1.53,5.25,5.25,0,0,0-1.71.29c.8,1.08,1.6,2.14,2.4,3.2l.86,1.12c.94,1.21,1.91,2.47,2.91,3.66l2.38,2.84,2.38,2.83q.9,1.06,1.83,2.13c2,2.27,4.2,4.68,7,7.58s6.23,6.13,10.35,9.74c2.78,2.43,5.7,4.75,8.54,7l.82.66L81,254.11l1.07.8.6.46.21.16c.59.46,1.19.93,1.81,1.33l1.49,1c2,1.3,4,2.65,6.14,3.89a4.16,4.16,0,0,1,1,.84l.3,0a12.17,12.17,0,0,1,1.65-1.85l.73-.61a11.25,11.25,0,0,0,1.49-1.4c1.27-1.53,2.51-3.09,3.75-4.65l1-1.21.61-.82c.75-1,1.49-2,2.26-3l.62-.76.3-.38c.51-.61,1-1.22,1.5-1.84l.1-.13c1.35-1.78,2.81-3.59,4.11-5.18l.06-.08c.88-1.08,1.76-2.16,2.62-3.26l.4-.51.31-.41c2.74-3.6,5.26-7.46,7.69-11.19l.22-.35c3.07-4.7,6-9.43,7.89-12.59s3.78-6.07,5.9-9.39l1.83-2.87c2.85-4.5,5.33-9.19,7.17-12.77,2.46-4.79,4.76-9.55,6.85-14.14.78-1.72,1.59-3.43,2.4-5.14,1.11-2.35,2.25-4.76,3.3-7.16s2.38-5.73,3.58-9.11l.08-.21.25-.7c1-2.89,2.1-5.89,3.1-8.85.5-1.47,1-3.08,1.6-5.21a41.69,41.69,0,0,0,.89-4.36l0-.24c.49-3,.92-5.94,1.35-9l.12-.83.24-1.86,0-.12c.45-3.41.92-7,1-10.43.14-4.09.1-8.24.05-12.26V96.24c0-4.16-.12-8.59-.48-13-.29-3.61-.71-7.45-1.32-12.1l-.24-1.46,0-.17c-.5-3-1-6.18-1.82-9.21-.17-.63-.33-1.27-.49-1.91a64.26,64.26,0,0,0-2.49-8.31c-.68-1.54-1.39-3-2.12-4.3-.61-1.11-1.31-2.2-2-3.26l-.08-.12-.7-1.08c-2.16-3.41-4-6.14-5.88-8.6L153,32.6c-1.7-2-3.43-4.07-5.28-6-.55-.57-1.14-1.13-1.81-1.72-1-.89-2.06-1.72-2.95-2.42l-4.4-3.25-.35-.27c-.63-.47-1.27-.94-1.92-1.4Z" fill="#110802" opacity="0.25"/>
        <path d="M105.33,547.64a4.43,4.43,0,0,0,0,6.19c1.23,1.28,2.44,2.59,3.71,3.83s2.57,2.43,3.82,3.67,2.36,2.4,3.58,3.57a22.06,22.06,0,0,0,4.83,3.46c1.49.79,3,1.46,4.57,2.18a35.46,35.46,0,0,1,4.72,2.69c.71.48,1.38,1,2.1,1.47a22,22,0,0,0,4,1.81,19.87,19.87,0,0,0,4.81.84,36.31,36.31,0,0,0,3.61.63,9.22,9.22,0,0,0,4.27-.8,4.93,4.93,0,0,0,.79,1.61l.79,1a5.06,5.06,0,0,0,7.13,0c1.62-1.26,3.06-2.79,4.56-4.19,1.25-1.17,2.52-2.32,3.78-3.48a37,37,0,0,0,5-5.42,13.63,13.63,0,0,0,1.53-2.61,4.44,4.44,0,0,0,.64-2,6.31,6.31,0,0,0,0-2.9,5.07,5.07,0,0,0-2.32-3.18c-.46-.2-.92-.4-1.4-.58a5.54,5.54,0,0,0-2.94.05,6.72,6.72,0,0,0-2.38,1.25l-1.08.8-.56.41a8.17,8.17,0,0,0-1.84-.35c-2.56-.23-5,1-7.29,2-1.16.5-2.32,1-3.46,1.53-2.06.94-4.13,1.91-6.11,3a4.94,4.94,0,0,0-2.42,3.64l-1.4-.12a17.49,17.49,0,0,1-2.11-.61c-1.37-.7-2.57-1.63-3.9-2.41a36.55,36.55,0,0,0-4-2.08c-1.34-.58-2.67-1.15-4-1.75a20.65,20.65,0,0,1-3.2-1.91c-1.94-1.62-3.7-3.48-5.52-5.23-1-.94-2-1.83-3-2.79s-2.08-2.16-3.12-3.24a4.23,4.23,0,0,0-3.06-1.27,4.42,4.42,0,0,0-3.13,1.27Zm65.29,16.75-.29.22h0l.29-.22Zm-.62.48-.38.29,0,0,.34-.26Z" fill="#110802" opacity="0.25"/>
        <path d="M91.45,263a4.92,4.92,0,0,0-.81.34,4.51,4.51,0,0,0-1,.16c-1.15.17-2.3.35-3.45.56-.47.09-1,.22-1.42.35s-.72.24-1.14.4a11.53,11.53,0,0,0-1.68.76,14.93,14.93,0,0,0-1.32,1.06,10.83,10.83,0,0,0-1.51,1.92,12.6,12.6,0,0,0-1,1.68A10,10,0,0,0,77,274.78a6.31,6.31,0,0,0,.83,2.89A14,14,0,0,0,79,279.2l.38.36c.43.34.86.68,1.3,1s1,.61,1.52.89a23.64,23.64,0,0,0,5,1.89,31.48,31.48,0,0,0,4.2.71,17.87,17.87,0,0,0,4.13-.17c1.35-.15,2.7-.35,4-.6,1-.19,2-.37,3-.64a29.64,29.64,0,0,0,3.89-1.42,14.31,14.31,0,0,0,3.49-2.26,8.71,8.71,0,0,0,2.23-3.6,5.49,5.49,0,0,0,.23-2,7.24,7.24,0,0,0-.89-3,8.11,8.11,0,0,0-2.43-2.62c-.59-.47-1.2-1-1.83-1.37a27,27,0,0,0-3.13-1.8,20.35,20.35,0,0,0-8.27-2.16h-.32a13.68,13.68,0,0,0-4.07.59Zm3.49,7.86-.19,0,.19,0Zm1.43.12a21.37,21.37,0,0,1,3.56,1,22.88,22.88,0,0,1,2.81,1.6l-.19.1a34.26,34.26,0,0,1-6.5,1.5,22.72,22.72,0,0,1-4.59.21,28.63,28.63,0,0,1-4.17-1.06c-.41-.19-.81-.4-1.19-.61.15-.28.32-.54.49-.81a34.22,34.22,0,0,1,5.33-1.07,3.08,3.08,0,0,0,1.31-.59,2.52,2.52,0,0,0,.46-.1l.61-.16a14.31,14.31,0,0,1,2.07,0Zm-11.49,1.77.17.22-.17-.22Zm19.45,2.17.06.15-.06-.15ZM85.58,275l0,.2,0-.2Z" fill="#110802"/>
        <path d="M97.73,276.69a4.43,4.43,0,0,0,1.57,6c.36.22.71.46,1.06.71,1.63,1.33,3.17,2.75,4.76,4.12.95.82,1.88,1.64,2.77,2.51-1.36.06-2.72.1-4.08.14-3,.09-5.94.34-8.89.66-3.51.39-7.09.6-10.57,1.25-1.38.26-2.75.6-4.12.92-1.19.28-2.38.53-3.58.75l.12-.32A26.92,26.92,0,0,1,79,289.84c.25-.3.49-.6.75-.89a8.11,8.11,0,0,1,.91-.85,19.5,19.5,0,0,1,1.92-1.23c1.77-.58,3.62-1,5.43-1.38a4.18,4.18,0,1,0-2.22-8.06c-1.63.38-3.25.76-4.87,1.2a16.1,16.1,0,0,0-6.14,3.5,18.35,18.35,0,0,0-2.66,3,21.16,21.16,0,0,0-1.32,1.79,23,23,0,0,0-2.3,4.5c-.83,2.27-1.67,4.89-.72,7.23A5.54,5.54,0,0,0,70,301.58a8,8,0,0,0,3.29,1,18.63,18.63,0,0,0,4.94-.37c3-.53,6-1.31,9-1.88,1.83-.22,3.67-.41,5.51-.61,2-.21,4.07-.45,6.12-.61,4.18-.32,8.38-.29,12.55-.67,2.27-.2,4.76-.27,6.34-2.16A5.42,5.42,0,0,0,119,293.9a6,6,0,0,0,0-2.8,10.14,10.14,0,0,0-1.34-3,27.33,27.33,0,0,0-4.39-5c-1.38-1.27-2.81-2.46-4.16-3.73a28.66,28.66,0,0,0-5.33-4.26,4.47,4.47,0,0,0-2.2-.58,4.36,4.36,0,0,0-3.79,2.15Z" fill="#110802"/>
        <path d="M94.63,0c-4.85.1-9.72.3-14.54.87-2.8.33-5.65.58-8.43,1.12a52.07,52.07,0,0,0-9.84,2.6C59.21,5.69,56.63,6.83,54,8a30.81,30.81,0,0,0-2.77,1.35,30.19,30.19,0,0,0-3.57,2.57,80.87,80.87,0,0,0-10.82,9.77c-1.8,2-3.59,4.1-5.25,6.25l-2.77,3.61c-.81,1-1.5,2.18-2.24,3.27a122.34,122.34,0,0,0-7.3,12.47q-1.87,3.63-3.69,7.27c-1.17,2.36-2.23,4.77-3.31,7.17C11.16,64.31,10.11,67,9,69.62c-1,2.4-1.81,4.84-2.67,7.28C5.58,79.14,5,81.45,4.31,83.73c-.35,1.21-.65,2.44-1,3.66-.28,1-.59,2.08-.82,3.14C2,93.1,1.38,95.65,1,98.26c-.22,1.54-.56,3.12-.67,4.68L0,107.33c-.08,1.19,0,2.41,0,3.61s0,2.12,0,3.19c0,2.62.07,5.23.12,7.85.1,5.28.26,10.54.65,15.79a151.38,151.38,0,0,0,1.93,15.31c.56,3.16,1.14,6.33,1.89,9.46a57.82,57.82,0,0,0,1.91,5.8c.38,1.06.76,2.13,1.16,3.19,2,5.17,4,10.3,6.41,15.28q1.76,3.63,3.58,7.21c1.23,2.42,2.55,4.76,3.89,7.12s2.71,4.39,4.08,6.57S28.58,212,30,214.06,33,218,34.41,219.89c1.62,2.16,3.34,4.25,5,6.37s3.25,3.87,4.88,5.79c1.75,2.08,3.62,4.08,5.43,6.12s3.57,3.69,5.35,5.52c.67.69,1.4,1.33,2.1,2,1,.92,1.92,1.88,2.93,2.76,2,1.77,4.06,3.54,6.14,5.25,2.26,1.86,4.55,3.67,6.84,5.49s4.64,3.5,7,5.24c1,.7,2,1.3,3,1.94,1.58,1,3.16,2.06,4.79,3a4.51,4.51,0,0,0,5.44-.75,4.81,4.81,0,0,0,.42.48,4.68,4.68,0,0,0,2.07,1.21,4.55,4.55,0,0,0,3.6-.47c.7-.5,1.4-1,2-1.56.45-.4.89-.81,1.37-1.18a21.55,21.55,0,0,0,3.08-3.25c2.11-2.5,4.06-5.13,6-7.73,1-1.29,2.07-2.55,3.08-3.85.71-.9,1.4-1.82,2.08-2.73,1.61-2,3.29-4,4.89-6.08a1.47,1.47,0,0,0-.1.13l.13-.17.64-.83-.24.31a265.38,265.38,0,0,0,15.27-23c2.56-4.18,5.17-8.33,7.79-12.48,1.33-2.11,2.65-4.22,3.94-6.36.59-1,1.1-2,1.66-3l2-3.62c2.43-4.54,4.69-9.15,6.87-13.82,1-2.25,2-4.53,3.1-6.78.95-2,2-4,2.89-6.09,2.13-4.67,4-9.45,5.74-14.28,1.68-4.67,3.37-9.35,4.72-14.12a59.43,59.43,0,0,0,1.29-7c.39-2.54.74-5.1,1.1-7.64.38-2.71.69-5.44,1-8.16.3-2.31.47-4.66.54-7,.15-5.07.06-10.16-.05-15.24s-.31-10.12-.87-15.16c-.36-3.23-.73-6.45-1.15-9.68-.36-2.53-.82-5-1.28-7.55-.45-2.36-1.07-4.67-1.68-7a69.07,69.07,0,0,0-2-6.86A58.14,58.14,0,0,0,169.9,41c-1.05-1.89-2.29-3.7-3.48-5.5-1.4-2.13-2.85-4.23-4.31-6.31a77.83,77.83,0,0,0-5-6.16,44.77,44.77,0,0,0-4.61-4.73c-2-1.71-4.07-3.28-6.18-4.82-1.83-1.34-3.65-2.68-5.51-4-.62-.44-1.28-.86-1.92-1.28a18.74,18.74,0,0,0-3.76-1.78c-1.19-.45-2.39-.82-3.6-1.17-2.18-.64-4.37-1.23-6.58-1.74-2.43-.54-4.87-1-7.31-1.52-2.79-.55-5.6-1-8.43-1.33A86.67,86.67,0,0,0,97.82,0c-1.06,0-2.13,0-3.19,0ZM85.29,9.76c3.08-.22,6.17-.32,9.27-.42,2.86-.08,5.7-.09,8.55.09,2.69.16,5.36.44,8,.77,3.79.68,7.57,1.4,11.32,2.25a74,74,0,0,1,10.34,3,40.91,40.91,0,0,1,5.72,3.81l4.39,3.25a45.79,45.79,0,0,1,4.76,4.15c1.88,1.94,3.62,4,5.36,6.08,2.09,2.78,4,5.67,5.89,8.6.94,1.47,1.93,2.93,2.77,4.46s1.47,2.84,2.11,4.3a85.86,85.86,0,0,1,3,10.21c.93,3.57,1.48,7.21,2.09,10.84.53,4,1,8.06,1.32,12.1.35,4.32.43,8.67.48,13,0,4.57.12,9.14,0,13.71-.13,4.16-.76,8.3-1.29,12.42-.47,3.28-.93,6.55-1.47,9.81a41.92,41.92,0,0,1-.93,4.59c-.5,1.75-1,3.49-1.6,5.22-1.1,3.26-2.26,6.5-3.42,9.75-1.1,3.08-2.32,6.1-3.58,9.11-1.81,4.14-3.84,8.18-5.71,12.3-2.16,4.77-4.45,9.47-6.84,14.14-2.23,4.34-4.57,8.65-7.18,12.77s-5.21,8.14-7.73,12.26-5.18,8.44-7.88,12.59c-2.55,3.91-5.09,7.83-7.91,11.54l-.72.92c-2.24,2.85-4.6,5.61-6.79,8.52l-.1.13c-.79,1-1.61,2-2.42,3-1,1.25-1.92,2.54-2.86,3.82-1.57,2-3.12,3.93-4.71,5.86a19.1,19.1,0,0,1-2.22,2,13.35,13.35,0,0,0-1.79,2,4.48,4.48,0,0,0-1.16-1c-2.6-1.54-5.1-3.22-7.63-4.86-.9-.59-1.75-1.31-2.61-2l-3-2.21c-3.16-2.5-6.34-5-9.36-7.65-3.57-3.12-7-6.32-10.35-9.73-3.05-3.15-6.05-6.36-8.87-9.71q-2.37-2.83-4.75-5.66c-1.3-1.55-2.52-3.17-3.76-4.77s-2.49-3.31-3.73-5-2.35-3.37-3.51-5.06c-2.15-3.11-4.17-6.33-6-9.62-1.95-3.45-3.81-6.95-5.53-10.52-.9-1.87-1.89-3.72-2.7-5.63l-2.34-5.54Q17.09,170.9,16,168a71.18,71.18,0,0,1-3-9.56c-.94-4.21-1.61-8.45-2.26-12.71l-.6-5c-.22-1.83-.29-3.69-.43-5.54-.24-3.23-.34-6.48-.4-9.72q-.12-6-.19-12.08c0-1.77,0-3.54,0-5.32,0-1.63.19-3.27.31-4.9.2-1.42.4-2.83.61-4.24s.64-3.1,1-4.64c.62-2.84,1.37-5.68,2.19-8.47.55-1.86,1.1-3.73,1.64-5.58.49-1.66,1.16-3.28,1.74-4.9,1-2.71,2.09-5.36,3.18-8,1-2.36,2.07-4.75,3.22-7.07q2.25-4.5,4.57-9c1.21-2.32,2.5-4.61,3.88-6.83.8-1.31,1.56-2.66,2.43-3.93l2.84-4.17c-.24.31-.47.62-.72.93a121.31,121.31,0,0,1,8-9.56,82.35,82.35,0,0,1,9.53-8.56c-.31.24-.62.49-.94.72l1.2-.92-.22.17a22.74,22.74,0,0,1,4.35-2.64c1.72-.79,3.46-1.53,5.2-2.27,1-.41,1.94-.8,2.92-1.16a48.32,48.32,0,0,1,5.41-1.41c1.93-.46,3.87-.75,5.82-1,2.71-.32,5.43-.62,8.16-.82ZM54.37,18.35l-.7.54.7-.54ZM142,21.8l.67.52L142,21.8Zm10.35,10.07.21.27-.21-.27Zm-36.83,204-.17.23.06-.08.11-.15Zm-.64.83c-.07.09-.14.19-.22.28.08-.09.15-.19.22-.28Zm-7.55,9.5-.12.15.12-.15Zm9.48,3.65-.42.53.42-.53ZM115,252.29l-.13.18.18-.23,0,0Zm0,0c.2-.25.39-.51.59-.77l-.59.77ZM178.21,69.49c0,.19,0,.38.08.57l-.18-1.27c0,.24.07.47.1.7Z" fill="#110802"/>
        <path d="M64.61,21.73a13.39,13.39,0,0,0-2.26.7,3.76,3.76,0,0,0-2.77.47c-2.47,1.73-4.89,3.54-7.21,5.46-2.11,1.74-4.22,3.49-6.19,5.38-.86.83-1.68,1.71-2.49,2.59s-1.84,1.9-2.67,2.91c-1.9,2.3-3.71,4.68-5.53,7-1.24,1.61-2.47,3.22-3.64,4.88-.57.82-1.07,1.69-1.58,2.56s-1.16,2-1.63,3c-.93,2-1.84,4.1-2.74,6.15-1,2.22-2,4.43-2.82,6.7-.36,1-.72,2-1,3a30,30,0,0,0-.82,3.2A60.15,60.15,0,0,0,20,83a18.62,18.62,0,0,0,.37,6,8.26,8.26,0,0,0,2.41,4.19,6.09,6.09,0,0,0,5.48,1.42c3.35-.74,5.44-3.82,7.21-6.52,1.47-2.25,2.92-4.53,4.49-6.71s3.35-4.54,5-6.81,3.3-4.6,5-6.89c1.47-2,2.9-4.06,4.39-6.06a81.26,81.26,0,0,1,7.86-9c3.09-3,6.31-5.79,9.44-8.71,1.63-1.52,3.29-3,5-4.44A42.28,42.28,0,0,0,81,35.27a20,20,0,0,0,1.53-2,10.19,10.19,0,0,0,.94-2.07,7.55,7.55,0,0,0,.08-4.11,5.65,5.65,0,0,0-1.35-2.33,13.8,13.8,0,0,0-1.81-1.42L79.73,23A13.83,13.83,0,0,0,78,22.36c-.31-.11-.62-.2-.94-.29a28.17,28.17,0,0,0-6.65-1H70a27,27,0,0,0-5.37.69ZM72.43,30c.51.08,1,.17,1.5.28a41.77,41.77,0,0,1-3.33,3c-1.66,1.37-3.28,2.77-4.87,4.23-3.2,2.94-6.46,5.84-9.65,8.81A82.09,82.09,0,0,0,47.64,56c-1.42,1.81-2.71,3.71-4.06,5.57-1.22,1.67-2.45,3.34-3.65,5s-2.4,3.4-3.63,5.08-2.36,3.17-3.5,4.79c-1.56,2.21-3,4.52-4.47,6.78,0-.41.07-.82.12-1.24.36-2.26.8-4.5,1.38-6.71a47.15,47.15,0,0,1,2.19-6c.85-2,1.71-4,2.57-6a67.41,67.41,0,0,1,3.29-6.45,51.13,51.13,0,0,1,3.74-5.38q2-2.66,4-5.29l-.07.09a85.69,85.69,0,0,1,7.12-7.75c2.43-2.33,5.07-4.45,7.71-6.54l.25-.18a4.47,4.47,0,0,0,3.51-.39c.3-.17.6-.33.9-.47A23.25,23.25,0,0,1,68.65,30a21.69,21.69,0,0,1,3.78,0ZM46.21,45.47l-.36.47.36-.47ZM28.74,87.33l.27.35a3,3,0,0,1-.27-.35Z" fill="#110802"/>
        <path d="M99.19,461.35a10.82,10.82,0,0,0-2.32.39,8.32,8.32,0,0,0-2.73,1.36,9,9,0,0,0-3,3.46,12.52,12.52,0,0,0-1.08,4.21A26.46,26.46,0,0,0,90,474a67.52,67.52,0,0,0,.84,7.23,66.56,66.56,0,0,0,1.26,6.68c.41,1.7.93,3.37,1.48,5,.73,2.15,1.4,4.33,2.23,6.45l1.74,4.49c.46,1.17.87,2.36,1.4,3.51,1.2,2.61,2.4,5.24,3.67,7.83a4.07,4.07,0,0,0,5.56,1.45,2,2,0,0,0,.39-.26,4.37,4.37,0,0,0,3.67-1.19c1.64-1.58,3.41-3,5.17-4.48s3.24-2.67,4.85-4,3.43-2.78,5-4.29l2.51-2.36a37.38,37.38,0,0,0,5.91-7.35c.7-1.12,1.36-2.24,2-3.4a11,11,0,0,0,1.44-4.43,9.09,9.09,0,0,0-.14-2.07,6.11,6.11,0,0,0-.71-2.12,9,9,0,0,0-3.36-3.34c-2.25-1.17-4.76-.68-7,.2a32.21,32.21,0,0,0-3.58,1.66,37,37,0,0,0-3.25,2,29.08,29.08,0,0,0-4.73,4.2,46.63,46.63,0,0,0-4.39,5.42l0,.07c.08-2.86.11-5.73,0-8.6-.06-1.61-.16-3.2-.35-4.8s-.41-3-.7-4.51a20.17,20.17,0,0,0-1.57-4.54,14.21,14.21,0,0,0-2.44-3.28,18.25,18.25,0,0,0-3.15-2.8l-.94-.4a4.22,4.22,0,0,0-1.24-.37,10.41,10.41,0,0,0-2.16-.21Zm.61,7.93h0a25.52,25.52,0,0,1,2,2.07c.25.39.48.77.69,1.18a25.64,25.64,0,0,1,1.11,4.83,100.28,100.28,0,0,1,.12,17c0,.89-.09,1.77-.14,2.66-.35-1-.7-1.94-1-2.92-.85-2.53-1.72-5.05-2.42-7.64a73.79,73.79,0,0,1-1.65-8.73,37.49,37.49,0,0,1-.37-6.61c.08-.38.17-.75.29-1.13l0-.06c.11-.12.23-.23.35-.34a1.37,1.37,0,0,1,.2-.13l.62-.17Zm.3,0,.34,0-.34,0Zm.18.12.34.14-.34-.14Zm-1.78.33h0l-.06.05h0l.06,0Zm-.08.06h0l-.24.19.24-.19Zm-.2.47c0,.12-.1.23-.14.34,0-.11.09-.23.14-.34Zm34.06,14.52.16,0-.16,0Zm-1.81.49a38.92,38.92,0,0,1-3.35,5.31c-3.37,4.09-7.57,7.4-11.65,10.76l-.3.25c.37-.7.79-1.38,1.17-2.06,1-1.76,2.11-3.4,3.24-5.05a40.47,40.47,0,0,1,5.62-6.15,34.12,34.12,0,0,1,5.27-3.06Z" fill="#110802"/>
        <path d="M91.56,295.55a4,4,0,0,0-1.19,2.87q.82,8.07,1.58,16.15c.39,4.21.84,8.44,1.11,12.66q.45,6.93,1.16,13.82c.21,2.12.59,4.23.8,6.36s.51,4.52.67,6.8c.33,4.75.52,9.49.63,14.25.11,4.41.09,8.82.24,13.22s.33,8.89.42,13.33c.09,4.63.12,9.26.18,13.89.06,5.59.36,11.18.51,16.77.07,2.61.17,5.22.41,7.82s.54,5.41.9,8.1c.51,4.55.83,9.12,1.37,13.65.56,4.7,1.58,9.33,2.33,14,.34,2.69.69,5.38.94,8.08.31,3.24.48,6.48.58,9.73.1,3.06.14,6.12.14,9.18,0,3.22-.07,6.45,0,9.67a4.33,4.33,0,1,0,8.65,0c-.35-8.37-.09-16.76-.7-25.13-.15-2.11-.37-4.21-.62-6.31-.28-2.41-.5-4.84-.88-7.25-.61-3.93-1.4-7.83-2-11.76-.62-5.33-1-10.67-1.71-16-.52-4.43-.92-8.85-1-13.3s-.32-8.94-.47-13.41-.14-9.08-.2-13.62-.23-9.21-.39-13.81q-.22-6.33-.34-12.65-.11-7.05-.42-14.08c-.19-4.36-.67-8.74-1.23-13.07-.63-4.8-1.12-9.61-1.51-14.43-.18-2.38-.32-4.76-.51-7.14-.23-2.67-.51-5.34-.75-8q-.8-8.77-1.71-17.54a4.34,4.34,0,0,0-1.19-2.87,4.08,4.08,0,0,0-5.74,0Z" fill="#110802"/>
        <path d="M52.88,483.42a4,4,0,0,0-2.77,4.88,3.84,3.84,0,0,0,1.82,2.37c4.45,2.12,8.86,4.33,13.1,6.84,2.11,1.26,4.24,2.51,6.37,3.75,1.92,1.11,3.9,2.12,5.86,3.17,3.68,2,7.27,4.11,10.93,6.11,3.91,2.15,7.83,4.27,11.74,6.44s7.76,4.24,11.54,6.56,7.55,4.62,11.37,6.86,7.41,4.37,11.15,6.48c2,1.11,3.95,2.2,5.93,3.29s3.75,2.23,5.58,3.41c4.75,3,9.4,6.2,14.07,9.36,2,1.36,4.1,2.64,6.15,3.95,1.8,1.15,3.7,2.16,5.5,3.31a4.26,4.26,0,0,0,5.57,1.22,4.33,4.33,0,0,0,2.23-3.83,5,5,0,0,0-2.48-4.05c-.87-.58-1.79-1.1-2.7-1.63-1.64-1-3.25-1.94-4.86-3-3.32-2.09-6.58-4.27-9.84-6.46-3.61-2.41-7.21-4.86-10.91-7.11q-2.82-1.73-5.71-3.3c-1.91-1.05-3.82-2.08-5.7-3.16q-5.7-3.27-11.37-6.56c-3.72-2.16-7.38-4.41-11.09-6.59-7.56-4.46-15.43-8.39-23.08-12.69-2.88-1.62-5.75-3.25-8.66-4.82-2.6-1.4-5.25-2.74-7.81-4.22-3-1.72-5.91-3.47-8.9-5.15-3.25-1.83-6.61-3.46-10-5.07a4.76,4.76,0,0,0-2.07-.54,3.87,3.87,0,0,0-1,.14Z" fill="#110802"/>
        <path d="M173.24,557c-2,2.17-4,4.37-6,6.56-.74.81-1.48,1.61-2.2,2.42a40.84,40.84,0,0,0-2.51,3.33c-1.78,2.21-3.79,4.22-5.67,6.34a61.9,61.9,0,0,1-6.3,6.14,4,4,0,0,0-1.22,2.94,4.15,4.15,0,0,0,4.15,4.15l1.11-.15a4.08,4.08,0,0,0,1.83-1.06,43.31,43.31,0,0,0,3.89-3.53c1.25-1.24,2.38-2.59,3.56-3.89s2.64-2.86,3.91-4.33c1.12-1.29,2.05-2.72,3.06-4.09s2.18-2.44,3.26-3.66c1.61-1.81,3.25-3.6,4.9-5.37a4.09,4.09,0,0,0-2.94-7,3.88,3.88,0,0,0-2.85,1.19Z" fill="#110802"/>
        <path d="M35.43,509.61a4.07,4.07,0,0,0-2.85,5l.41,1a4,4,0,0,0,1.47,1.46,132.61,132.61,0,0,0,11.47,7.4c1.72,1.06,3.42,2.17,5.18,3.16l5.62,3.13c3.77,2.09,7.42,4.41,11.2,6.48s7.86,4.16,11.75,6.34,7.51,4.5,11.25,6.77,7.63,4.54,11.55,6.64c1.81,1,3.66,1.85,5.45,2.86s3.85,2.18,5.7,3.41c3.49,2.29,7,4.52,10.58,6.65,1.78,1.05,3.56,2.1,5.35,3.13s3.58,1.92,5.24,3.05,3.76,2.24,5.64,3.34a53.5,53.5,0,0,1,5.25,3.4l-.57-.44a54.65,54.65,0,0,0,6.09,4.12,4.16,4.16,0,0,0,6.25-3.59,4,4,0,0,0-1.22-2.94c-1.68-1.36-3.53-2.46-5.28-3.72a57,57,0,0,0-5.09-3.47c-1.82-1.1-3.69-2.13-5.54-3.2-.81-.48-1.58-1-2.39-1.51s-1.8-1-2.71-1.55c-1.83-1-3.65-2.11-5.48-3.18-3.65-2.12-7.25-4.34-10.77-6.68a100,100,0,0,0-11-6.25c-7.94-3.93-15.4-8.81-23-13.32-3.78-2.23-7.72-4.2-11.6-6.24s-7.46-4.3-11.19-6.44c-1.93-1.1-3.89-2.16-5.82-3.24s-3.82-2.25-5.71-3.41A141.58,141.58,0,0,1,38.57,510a3.29,3.29,0,0,0-2-.56,4.23,4.23,0,0,0-1.16.15Z" fill="#110802"/>
        <path d="M50.57,485.49a4.21,4.21,0,0,0-.41,3.2,4.13,4.13,0,0,0,1.51,2.19h0a18.16,18.16,0,0,1-.63,2.41c-.27.46-.55.89-.86,1.32a10.21,10.21,0,0,1-.69.77l-.34.2a23.51,23.51,0,0,1-4.07.92c-.45.07-.88.16-1.32.25l-1.31.56a4.39,4.39,0,0,0-1.58,1.62,4.62,4.62,0,0,0-.45,3.51c0,.19.09.37.14.56s0,.37,0,.56a17.62,17.62,0,0,1-.53,2.37,14,14,0,0,1-1,1.6l-.35.4c-1.36.05-2.75-.08-4.11-.14a4.17,4.17,0,0,0,0,8.33,30.79,30.79,0,0,0,5.84,0,6.74,6.74,0,0,0,3.85-2,16.23,16.23,0,0,0,1.59-1.94,13.13,13.13,0,0,0,2.42-5.35c.14-.78.25-1.56.36-2.35,2.86-.43,5.65-1.26,7.58-3.63.62-.77,1.23-1.56,1.81-2.37a12.4,12.4,0,0,0,1.82-4.68,9.59,9.59,0,0,0-.06-5.64,8,8,0,0,0-1.52-2.54,9.42,9.42,0,0,0-2-1.61,4,4,0,0,0-2.05-.56,4.26,4.26,0,0,0-3.65,2.06Zm1.07,4.9s0,.07,0,.11l0-.11Zm.19.63h0a2.3,2.3,0,0,1,0,.26l0-.26Zm-.14,0a3.11,3.11,0,0,1,0,.32,3.11,3.11,0,0,0,0-.32ZM39,507.85l-.07.07h0l.08-.07Zm-.52.34h0l0,0,0,0Z" fill="#110802"/>
        <path d="M6.3,468.91a5.51,5.51,0,0,0-2.31.64,7.74,7.74,0,0,0-1.28.93,4.58,4.58,0,0,0-1.13,1.94,4.71,4.71,0,0,0,0,2.3,7.91,7.91,0,0,0,.36,1.17,19,19,0,0,0,1.35,2.94,22.25,22.25,0,0,0,1.6,2.28c1.51,2,3.06,3.95,4.68,5.86,1.85,2.19,3.88,4.23,5.73,6.42,2,2.38,4,4.77,6,7.2,2.89,3.76,5.76,7.54,8.43,11.46A4.41,4.41,0,0,0,32.2,514a4.17,4.17,0,0,0,4.71-6.13,199.3,199.3,0,0,0-12.95-17c-1.11-1.29-2.22-2.57-3.32-3.86-1-1.13-2-2.19-3-3.3-1.8-2-3.53-4-5.21-6,.94.22,1.87.45,2.8.69,2.39.6,4.8,1.19,7.19,1.82,1.24.34,2.44.68,3.65,1.09s2.6.93,3.89,1.44c.33.13.64.27,1,.38l.5.21,1.05.45.14.05.07,0,2.92,1.26c1,.43,2,.88,3,1.23.65.22,1.31.37,2,.53,1.1.28,2.18.58,3.27.89.87.25,1.71.58,2.57.88s2,.9,2.92,1.39a44,44,0,0,0,4.35,2,4,4,0,0,0,3.2-.42,4.22,4.22,0,0,0,1.91-2.49,4.17,4.17,0,0,0-.42-3.2l-.65-.84a4.09,4.09,0,0,0-1.75-1.05c-1-.44-1.89-.91-2.83-1.38a39,39,0,0,0-4.34-1.93c-1.4-.5-2.78-.94-4.21-1.34-1.63-.46-3.28-.75-4.87-1.37l-3.5-1.48a4.13,4.13,0,0,0-.75-.32l-1.32-.56a4.35,4.35,0,0,0-.59-.25l-.22-.09c-2-.84-4.08-1.57-6.16-2.26-1.85-.61-3.79-1-5.68-1.48-2.19-.54-4.37-1.08-6.56-1.59a34.44,34.44,0,0,0-7-1.18H7.69a10.8,10.8,0,0,0-1.39.08ZM40,478.19l.62.26-.62-.26Z" fill="#110802"/>
        <path d="M16.41,474.22A4,4,0,0,0,14,476.11c-1,2.11-1.62,4.34-2.39,6.52a4.17,4.17,0,0,0,6.12,4.71,4.38,4.38,0,0,0,1.92-2.49c.65-1.85,1.17-3.74,1.87-5.56a4.32,4.32,0,0,0,0-2.2,4.11,4.11,0,0,0-1.89-2.45,4.18,4.18,0,0,0-2.09-.57,4,4,0,0,0-1.08.15Z" fill="#110802"/>
        <path d="M6.68,474.12a4.18,4.18,0,0,0-.42,3.19,4.32,4.32,0,0,0,1.91,2.47Q10.59,481.43,13,483a4.11,4.11,0,0,0,6-4.64,4.31,4.31,0,0,0-1.88-2.45c-1.61-1.11-3.22-2.22-4.83-3.31a3.48,3.48,0,0,0-2-.59,4.38,4.38,0,0,0-3.69,2.08Z" fill="#110802"/>
        <path d="M58.2,509.67A3.89,3.89,0,0,0,59.59,515q3.21,1.69,6.34,3.51c1.6.94,3.13,2,4.68,3,3.23,2.07,6.45,4.13,9.7,6.15,6.79,4.21,13.23,8.94,19.85,13.42a3.83,3.83,0,0,0,5.63-4.33,4,4,0,0,0-1.76-2.29c-6.51-4.46-12.85-9.17-19.55-13.34q-5-3.09-9.88-6.24c-1.51-1-3-2-4.55-2.87-2.17-1.26-4.35-2.47-6.57-3.64a4.32,4.32,0,0,0-2-.49,3.79,3.79,0,0,0-3.31,1.88Z" fill="#110802"/>
        <path d="M112.7,541.46a4,4,0,0,0,1.4,5.35c3.27,2,6.63,3.87,10,5.77q4.5,2.55,8.85,5.34c2.93,1.89,6,3.55,9.06,5.24a104.46,104.46,0,0,1,9.07,5.33,3.75,3.75,0,0,0,3,.39,3.91,3.91,0,0,0,2.32-1.78,4,4,0,0,0,.39-3A4.19,4.19,0,0,0,155,561.8a88.71,88.71,0,0,0-9-5.41c-3-1.7-6.11-3.37-9-5.25s-5.86-3.63-8.86-5.33c-3.35-1.88-6.72-3.74-10-5.75a3.57,3.57,0,0,0-1.91-.54,4,4,0,0,0-3.43,1.94Z" fill="#110802"/>
        <path d="M167.1,73.05c-2.5,4.39-5.44,8.51-8.36,12.63-2.54,3.58-5.13,7.11-7.64,10.71a4,4,0,0,0-.41,3.17,4.1,4.1,0,0,0,5.06,2.88,4.36,4.36,0,0,0,2.47-1.89c2.53-3.58,5.16-7.09,7.7-10.66a147.12,147.12,0,0,0,8.38-12.64,4.21,4.21,0,0,0-1.5-5.7,4.06,4.06,0,0,0-2.08-.56,4.13,4.13,0,0,0-3.62,2.06Z" fill="#110802"/>
        <path d="M172.19,95.09a4.27,4.27,0,0,0-2.38,1.83q-5.38,7.62-10.8,15.2c-3,4.24-6.12,8.44-9,12.75a4,4,0,0,0,1.43,5.48,4.08,4.08,0,0,0,3.09.41,4.22,4.22,0,0,0,2.4-1.84c2.92-4.32,6-8.53,9-12.77q5.41-7.59,10.78-15.21a3.82,3.82,0,0,0,.4-3.06A4,4,0,0,0,173.24,95a4.15,4.15,0,0,0-1.05.14Z" fill="#110802"/>
        <path d="M166.68,123.54q-7.89,8.8-15.78,17.62c-2.11,2.35-4.2,4.71-6.31,7.06-2.25,2.5-4.42,5.07-6.8,7.44a4,4,0,0,0,5.64,5.64c2.38-2.35,4.56-4.91,6.79-7.4s4.21-4.68,6.31-7l15.83-17.66a4.17,4.17,0,0,0,1.17-2.83,4,4,0,0,0-1.17-2.84,4.18,4.18,0,0,0-2.93-1.17,3.63,3.63,0,0,0-2.75,1.17Z" fill="#110802"/>
        <path d="M158.31,155.25C149.6,165,140.84,174.77,131.52,184a4.21,4.21,0,0,0,5.95,5.95c9.39-9.13,18.14-18.89,26.84-28.67a4.38,4.38,0,0,0,1.25-3,4.21,4.21,0,0,0-1.25-3,4.37,4.37,0,0,0-3.09-1.24,3.82,3.82,0,0,0-2.91,1.24Z" fill="#110802"/>
        <path d="M146.55,559.71c-3.86,1.37-7.64,3-11.44,4.52a4.4,4.4,0,0,0-2.44,1.88,4.06,4.06,0,0,0-.42,3.14,4.13,4.13,0,0,0,1.88,2.45,3.92,3.92,0,0,0,3.15.41c3.81-1.51,7.59-3.11,11.43-4.54a4.37,4.37,0,0,0,2.44-1.88,4.08,4.08,0,0,0,.41-3.13,4.13,4.13,0,0,0-1.87-2.44,4.5,4.5,0,0,0-2.12-.57,3.16,3.16,0,0,0-1,.16Z" fill="#110802"/>
        <path d="M154.72,568.67c-.64.34-1.28.64-1.93,1s-1.46.56-2.2.82c-1.18.41-2.41.7-3.62,1a4,4,0,0,0,2.11,7.65,48.51,48.51,0,0,0,4.78-1.39,39.18,39.18,0,0,0,4.86-2.18,4,4,0,0,0,1.42-5.41,3.85,3.85,0,0,0-3.39-1.92,4.49,4.49,0,0,0-2,.49Z" fill="#110802"/>
        <path d="M192.57,545.56a4.06,4.06,0,0,0-1.86,2.41c-.05.36-.09.72-.14,1.07a4.12,4.12,0,0,0,.55,2.05l1.25,2.88c.92,2.26,1.79,4.53,2.52,6.86a4,4,0,0,0,7.66-2.11A84.44,84.44,0,0,0,198.1,547a3.83,3.83,0,0,0-2.41-1.86,3.89,3.89,0,0,0-1.07-.15,4,4,0,0,0-2.05.56Z" fill="#110802"/>
        <path d="M205.85,544.9A4.16,4.16,0,0,0,203,550q1.78,6.1,3.61,12.2a4.11,4.11,0,0,0,7.92-2.18q-1.77-6.12-3.56-12.22a4.22,4.22,0,0,0-4-3,4,4,0,0,0-1.08.15Z" fill="#110802"/>
        <path d="M104.38,512.17a4.6,4.6,0,0,0-2.53,2c-2.83,3.78-5.64,7.57-8.37,11.41-1.15,1.61-2.27,3.23-3.34,4.89-.51.8-.91,1.68-1.36,2.52s-.93,1.75-1.34,2.65a4.45,4.45,0,0,0-.42,3.2,4.15,4.15,0,0,0,7.59,1c1-1.6,1.85-3.28,2.77-4.93a57.1,57.1,0,0,1,3.41-5c2.73-3.85,5.54-7.64,8.37-11.42a4.09,4.09,0,0,0,.43-3.26,4.25,4.25,0,0,0-5.21-3Z" fill="#110802"/>
        <path d="M107.31,512.67c-.22.27-.43.55-.65.84a4.13,4.13,0,0,0-.57,2.09c-.52,3.94-.7,7.9-.88,11.86-.17,3.6-.16,7.21-.16,10.81s.23,6.92.48,10.36c.12,1.59.23,3.17.31,4.75a48.83,48.83,0,0,0,.41,5.68,4.13,4.13,0,0,0,2,2.55,4.27,4.27,0,0,0,5.84-1.53c.14-.34.28-.68.43-1a4.3,4.3,0,0,0,.07-1.92c-.09-1.37-.13-2.73-.22-4.1-.11-1.57-.25-3.13-.38-4.69-.3-3.48-.51-7-.54-10.47s0-7,.12-10.42c.18-4,.35-7.92.87-11.86a3.89,3.89,0,0,0-1.22-2.93,4.14,4.14,0,0,0-5.87,0Z" fill="#110802"/>
      </g>
    </g>
  </g>
</svg>